<svg xmlns="http://www.w3.org/2000/svg" xmlns:xlink="http://www.w3.org/1999/xlink" width="500" zoomAndPan="magnify" viewBox="0 0 375 374.999991" height="500" preserveAspectRatio="xMidYMid meet" version="1.0"><path fill="#000000" d="M 32.632812 97.550781 C 28.996094 107.332031 26.371094 117.441406 24.707031 127.753906 C 14.289062 134.777344 7.339844 143.65625 4.019531 153.855469 C 4.132812 153.058594 4.253906 152.257812 4.378906 151.460938 C 6.746094 139.378906 10.3125 127.566406 15.0625 116.101562 C 18.984375 109.046875 24.859375 102.792969 32.632812 97.550781 Z M 47.179688 68.640625 C 41.832031 76.777344 37.214844 85.714844 33.445312 95.414062 C 25.90625 100.496094 20.15625 106.53125 16.242188 113.320312 C 21.734375 100.652344 28.550781 88.734375 36.628906 77.664062 C 39.097656 74.839844 41.214844 73.214844 47.179688 68.640625 Z M 55.5625 55.5625 C 59.097656 52.023438 62.757812 48.648438 66.53125 45.425781 C 66.617188 45.363281 66.703125 45.296875 66.785156 45.234375 C 59.996094 51.625 53.820312 58.847656 48.363281 66.871094 C 44.65625 69.371094 41.390625 72.109375 38.566406 75.058594 C 43.75 68.214844 49.417969 61.707031 55.5625 55.5625 Z M 129.148438 14.332031 C 122.707031 18.378906 116.550781 23.359375 110.773438 29.25 C 94.191406 31.542969 80.710938 36.101562 70.472656 42.429688 C 71.472656 41.515625 72.492188 40.625 73.519531 39.746094 C 82.886719 32.5 92.898438 26.1875 103.488281 20.847656 C 110.839844 17.894531 119.402344 15.683594 129.148438 14.332031 Z M 150.769531 4.578125 C 143.8125 6.585938 137.046875 9.554688 130.5625 13.460938 C 121.417969 14.726562 113.320312 16.761719 106.300781 19.457031 C 109.121094 18.09375 111.976562 16.800781 114.871094 15.574219 C 126.15625 10.800781 137.789062 7.1875 149.683594 4.738281 C 150.042969 4.683594 150.40625 4.628906 150.769531 4.578125 Z M 207.523438 1.972656 C 204.042969 2.207031 200.492188 3.121094 196.910156 4.695312 C 182.269531 2.695312 168.085938 2.304688 155.117188 3.796875 C 155.464844 3.703125 155.816406 3.613281 156.164062 3.523438 C 166.445312 1.789062 176.902344 0.914062 187.5 0.914062 C 194.230469 0.914062 200.910156 1.269531 207.523438 1.972656 Z M 248.335938 11.167969 C 243.96875 9.644531 239.5625 8.265625 235.144531 7.042969 C 239.621094 8.226562 244.054688 9.574219 248.445312 11.09375 C 248.410156 11.117188 248.375 11.136719 248.335938 11.167969 Z M 327.523438 65.207031 C 317.714844 55.605469 305.945312 46.753906 292.964844 38.917969 C 291.628906 35.226562 289.808594 32.222656 287.519531 29.941406 C 299 37.242188 309.675781 45.804688 319.433594 55.5625 C 320.511719 56.640625 321.574219 57.726562 322.621094 58.828125 C 324.394531 60.996094 326.140625 63.238281 327.523438 65.207031 Z M 334.4375 72.472656 C 332.925781 70.757812 331.328125 69.042969 329.640625 67.320312 C 328.90625 66.171875 328.136719 65.054688 327.335938 63.960938 C 329.792969 66.734375 332.160156 69.570312 334.4375 72.472656 Z M 359.734375 115.628906 C 355.015625 106.558594 348.015625 97.121094 338.660156 87.582031 C 336.695312 80.664062 333.933594 74.304688 330.421875 68.566406 C 332.6875 70.875 334.789062 73.175781 336.734375 75.464844 C 345.867188 87.597656 353.460938 100.777344 359.421875 114.871094 C 359.527344 115.121094 359.628906 115.375 359.734375 115.628906 Z M 369.382812 151.121094 C 368.875 146.023438 368.050781 141.011719 366.921875 136.101562 C 369.046875 143.523438 370.699219 151.058594 371.882812 158.695312 C 371.21875 156.207031 370.386719 153.679688 369.382812 151.121094 Z M 373.511719 202.257812 C 373.242188 195.515625 371.6875 188.402344 368.804688 181.035156 C 370.09375 171.527344 370.328125 162.1875 369.566406 153.105469 C 370.699219 155.996094 371.613281 158.84375 372.316406 161.640625 C 373.492188 170.152344 374.082031 178.777344 374.082031 187.5 C 374.082031 192.449219 373.890625 197.371094 373.511719 202.257812 Z M 360.925781 212.089844 C 364.554688 202.339844 367.058594 192.648438 368.503906 183.121094 C 371.523438 190.832031 373.089844 198.257812 373.25 205.28125 C 371.949219 219.097656 369.128906 232.628906 364.808594 245.757812 C 366.894531 235.519531 365.644531 224.144531 360.925781 212.089844 Z M 348.851562 279.214844 C 352.46875 273.746094 355.730469 268.007812 358.609375 262.015625 C 355.175781 269.890625 351.226562 277.476562 346.78125 284.746094 C 347.589844 282.949219 348.285156 281.105469 348.851562 279.214844 Z M 328.035156 304.1875 C 335.316406 297.160156 341.882812 289.433594 347.609375 281.058594 C 346.984375 283.152344 346.203125 285.1875 345.277344 287.167969 C 338.382812 298.066406 330.351562 308.238281 321.246094 317.59375 C 324.332031 313.464844 326.601562 308.976562 328.035156 304.1875 Z M 302.28125 324.34375 C 310.953125 318.867188 319.042969 312.640625 326.429688 305.714844 C 324.9375 310.707031 322.527344 315.367188 319.230469 319.632812 C 309.742188 329.09375 299.390625 337.429688 288.273438 344.570312 C 295.277344 338.894531 299.976562 332.054688 302.28125 324.34375 Z M 151.550781 369.378906 C 159.867188 370.578125 167.941406 370.863281 175.339844 370.089844 C 182.335938 372.347656 189.347656 373.601562 196.285156 373.878906 C 193.367188 374.011719 190.4375 374.082031 187.5 374.082031 C 176.832031 374.082031 166.300781 373.195312 155.957031 371.4375 C 154.464844 370.898438 152.996094 370.214844 151.550781 369.378906 Z M 77.777344 334.636719 C 83.261719 340.109375 89.875 345.160156 97.1875 349.640625 C 95.941406 349.457031 94.753906 349.171875 93.628906 348.796875 C 82.59375 342.371094 72.257812 334.824219 62.703125 326.210938 C 67.234375 329.566406 72.265625 332.390625 77.777344 334.636719 Z M 23.910156 276.875 C 24.195312 277.570312 24.503906 278.269531 24.824219 278.96875 C 23.828125 277.203125 22.863281 275.417969 21.925781 273.617188 C 22.570312 274.710938 23.226562 275.800781 23.910156 276.875 Z M 15.574219 260.125 C 13.011719 254.058594 10.78125 247.894531 8.886719 241.644531 C 7.09375 233.125 8.027344 228.140625 9.222656 221.796875 C 12.289062 231.375 16.292969 240.746094 21.171875 249.78125 C 19.140625 257.339844 19.753906 265.835938 23.125 274.882812 C 21.765625 272.71875 20.472656 270.515625 19.253906 268.277344 C 17.964844 265.59375 16.738281 262.878906 15.574219 260.125 Z M 2.667969 190.359375 C 3.648438 200.265625 5.636719 210.082031 8.566406 219.695312 C 7.007812 225.5 6.785156 231.78125 7.933594 238.40625 C 4.304688 225.605469 2.074219 212.449219 1.261719 199.046875 C 1.445312 196.058594 1.914062 193.160156 2.667969 190.359375 Z M 2.46875 188.1875 C 1.777344 190.753906 1.324219 193.402344 1.109375 196.125 C 0.980469 193.261719 0.910156 190.382812 0.910156 187.5 C 0.910156 178.769531 1.503906 170.132812 2.683594 161.613281 C 1.785156 170.484375 1.726562 179.367188 2.46875 188.1875 Z M 22.59375 161.460938 C 12.777344 168.082031 6.230469 176.449219 3.097656 186.0625 C 2.28125 176.089844 2.46875 166.042969 3.726562 156.046875 C 7.039062 145.875 13.964844 137.019531 24.355469 130.015625 C 22.832031 140.351562 22.257812 150.878906 22.59375 161.460938 Z M 26.722656 195.585938 C 17.863281 201.558594 11.960938 209.105469 9.136719 217.777344 C 6.226562 208.089844 4.261719 198.207031 3.296875 188.246094 C 6.40625 178.6875 12.917969 170.367188 22.679688 163.78125 C 23.144531 174.378906 24.507812 185.023438 26.722656 195.585938 Z M 69.574219 114.480469 C 67.460938 125.019531 66.050781 135.832031 65.320312 146.785156 C 48.648438 149.09375 35.089844 153.675781 24.796875 160.039062 C 24.519531 149.417969 25.132812 138.863281 26.6875 128.507812 C 37.582031 121.773438 51.929688 116.921875 69.574219 114.480469 Z M 78.847656 81.675781 C 75.1875 91.464844 72.265625 101.675781 70.050781 112.175781 C 52.355469 114.625 37.96875 119.488281 27.042969 126.242188 C 28.738281 115.914062 31.378906 105.792969 35.015625 96.011719 C 46.148438 89.128906 60.8125 84.171875 78.847656 81.675781 Z M 92.527344 53.0625 C 87.726562 61.011719 83.40625 69.847656 79.65625 79.539062 C 61.625 82.035156 46.960938 86.992188 35.828125 93.878906 C 39.597656 84.175781 44.199219 75.25 49.519531 67.128906 C 60.445312 60.375 74.828125 55.511719 92.527344 53.0625 Z M 93.585938 51.335938 C 75.9375 53.777344 61.589844 58.628906 50.695312 65.363281 C 56.121094 57.359375 62.253906 50.167969 68.988281 43.8125 C 79.28125 37.445312 92.839844 32.863281 109.511719 30.554688 C 103.789062 36.578125 98.449219 43.515625 93.585938 51.335938 Z M 168.046875 31.269531 C 163.785156 37.308594 159.597656 44.257812 155.535156 52.089844 C 135.203125 49.308594 115.507812 48.765625 97.496094 50.839844 C 102.3125 43.027344 107.578125 36.101562 113.207031 30.085938 C 130.226562 28.128906 148.835938 28.640625 168.046875 31.269531 Z M 181.960938 14.976562 C 177.601562 19.042969 173.257812 24.046875 168.984375 29.957031 C 149.878906 27.34375 131.375 26.835938 114.449219 28.785156 C 120.132812 22.902344 126.171875 17.9375 132.484375 13.910156 C 147.835938 12.144531 164.625 12.605469 181.960938 14.976562 Z M 182.914062 14.097656 C 165.730469 11.75 149.089844 11.292969 133.871094 13.046875 C 140.21875 9.152344 146.835938 6.203125 153.625 4.21875 C 166.765625 2.707031 181.132812 3.097656 195.964844 5.128906 C 191.640625 7.167969 187.273438 10.164062 182.914062 14.097656 Z M 244.378906 16.964844 C 242.875 19.695312 241.074219 23.320312 238.992188 27.808594 C 221.671875 21.761719 203.941406 17.269531 186.6875 14.644531 C 190.890625 10.6875 195.089844 7.664062 199.222656 5.597656 C 214.117188 7.863281 229.421875 11.742188 244.378906 16.964844 Z M 242.785156 29.164062 C 244.714844 24.617188 246.34375 20.929688 247.652344 18.132812 C 262.550781 23.546875 277.042969 30.285156 290.367188 38.070312 C 291.546875 42.03125 292.183594 46.777344 292.265625 52.257812 C 276.832031 43.238281 260.042969 35.433594 242.785156 29.164062 Z M 290.582031 72.390625 C 273.421875 62.359375 254.753906 53.683594 235.5625 46.707031 C 238.117188 40.363281 240.386719 34.839844 242.359375 30.171875 C 259.769531 36.5 276.703125 44.375 292.273438 53.472656 C 292.273438 59.0625 291.714844 65.382812 290.582031 72.390625 Z M 294.082031 76.167969 C 311.113281 86.453125 326.558594 98.066406 339.429688 110.664062 C 339.4375 118.683594 338.613281 127.191406 336.90625 136.113281 C 323.285156 122.78125 306.941406 110.488281 288.914062 99.609375 C 291.242188 91.160156 292.960938 83.332031 294.082031 76.167969 Z M 295.625 54.253906 C 295.40625 48.691406 294.613281 43.851562 293.269531 39.792969 C 306.417969 47.734375 318.339844 56.699219 328.277344 66.425781 C 331.667969 72.035156 334.3125 78.285156 336.175781 85.101562 C 324.667969 73.835938 310.855469 63.449219 295.625 54.253906 Z M 339.414062 108.910156 C 326.613281 96.386719 311.253906 84.835938 294.316406 74.609375 C 295.351562 67.546875 295.792969 61.152344 295.660156 55.484375 C 311.027344 64.761719 324.960938 75.242188 336.570312 86.605469 C 338.320312 93.5 339.285156 100.960938 339.414062 108.910156 Z M 339.84375 139.046875 C 341.511719 130.085938 342.285156 121.527344 342.207031 113.4375 C 354.652344 126.125 363.371094 138.652344 368.5 150.519531 C 369.234375 159.535156 368.980469 168.824219 367.671875 178.292969 C 362.242188 165.738281 353.019531 152.480469 339.84375 139.046875 Z M 359.773438 209.289062 C 354.222656 196.457031 344.796875 182.90625 331.332031 169.179688 C 334.972656 159.449219 337.667969 150.035156 339.46875 141.015625 C 352.675781 154.484375 361.925781 167.78125 367.371094 180.371094 C 365.914062 189.871094 363.398438 199.539062 359.773438 209.289062 Z M 325.375 269.335938 C 332.589844 261.441406 339.101562 253.03125 344.792969 244.179688 C 349.671875 256.628906 350.761719 268.339844 348.222656 278.789062 C 342.492188 287.195312 335.910156 294.960938 328.617188 302.042969 C 331.015625 292.167969 329.980469 281.101562 325.375 269.335938 Z M 299.882812 292.90625 C 308.457031 286.1875 316.464844 278.878906 323.785156 271.058594 C 328.363281 282.757812 329.390625 293.765625 327.007812 303.582031 C 319.605469 310.566406 311.496094 316.859375 302.804688 322.414062 C 304.96875 313.503906 304.039062 303.519531 299.882812 292.90625 Z M 272.972656 337.683594 C 274.824219 330.0625 274.027344 321.515625 270.46875 312.433594 C 280.121094 307.046875 289.335938 301.003906 297.996094 294.371094 C 302.113281 304.890625 303.039062 314.789062 300.894531 323.617188 C 292.117188 329.0625 282.769531 333.769531 272.972656 337.683594 Z M 239.6875 348.8125 C 250.269531 346.761719 260.539062 343.863281 270.375 340.164062 C 268.164062 347.554688 263.351562 354.003906 256.035156 359.140625 C 247.058594 361.707031 237.722656 363.371094 228.136719 364.097656 C 234.027344 359.960938 237.910156 354.765625 239.6875 348.8125 Z M 196.574219 363.171875 C 200.71875 360.257812 203.449219 356.597656 204.703125 352.410156 C 215.808594 352.242188 226.738281 351.167969 237.367188 349.246094 C 235.621094 355.085938 231.8125 360.183594 226.03125 364.242188 C 216.414062 364.835938 206.554688 364.488281 196.574219 363.171875 Z M 200.71875 373.34375 C 193.347656 373.125 185.878906 371.921875 178.410156 369.703125 C 185.523438 368.636719 191.289062 366.597656 195.640625 363.796875 C 205.496094 365.199219 215.230469 365.628906 224.738281 365.117188 C 218.667969 369.019531 210.632812 371.863281 200.71875 373.34375 Z M 140.097656 358.851562 C 144.542969 359.488281 148.855469 359.644531 152.808594 359.230469 C 159.726562 363.710938 166.75 367.152344 173.796875 369.574219 C 166.621094 370.328125 158.792969 370.046875 150.726562 368.886719 C 146.992188 366.5625 143.429688 363.226562 140.097656 358.851562 Z M 125.613281 355.210938 C 130.078125 356.800781 134.65625 357.992188 139.121094 358.703125 C 142.179688 363.035156 145.476562 366.332031 148.957031 368.617188 C 140.859375 367.328125 132.550781 365.167969 124.445312 362.285156 C 124.484375 360.910156 124.867188 358.5625 125.613281 355.210938 Z M 111.910156 348.824219 C 115.871094 351.171875 120.1875 353.210938 124.636719 354.859375 C 123.617188 358.109375 122.964844 360.359375 122.675781 361.644531 C 114.605469 358.65625 106.769531 354.957031 99.582031 350.691406 C 103.183594 350.976562 107.300781 350.375 111.910156 348.824219 Z M 100.675781 340.285156 C 103.609375 343.210938 107.140625 345.910156 111.046875 348.304688 C 106.195312 349.707031 101.847656 350.171875 98.015625 349.75 C 90.925781 345.402344 84.515625 340.503906 79.195312 335.199219 C 85.726562 337.710938 92.902344 339.429688 100.675781 340.285156 Z M 67.34375 318.53125 C 75.574219 323.433594 84.527344 327.65625 94.144531 331.101562 C 95.273438 333.832031 97.230469 336.714844 100.046875 339.644531 C 92.089844 338.605469 84.746094 336.714844 78.050781 334.035156 C 72.941406 328.722656 69.390625 323.484375 67.34375 318.53125 Z M 39.8125 277.59375 C 38.195312 283.605469 38.683594 290.363281 41.363281 297.554688 C 34.820312 291.082031 29.070312 284.042969 24.183594 276.535156 C 20.855469 267.605469 20.25 259.21875 22.253906 251.753906 C 27.257812 260.746094 33.132812 269.394531 39.8125 277.59375 Z M 36.707031 229.148438 C 29.128906 234.261719 24.074219 240.71875 21.65625 248.140625 C 16.808594 239.007812 12.828125 229.554688 9.789062 219.894531 C 12.585938 211.300781 18.441406 203.820312 27.21875 197.898438 C 29.554688 208.449219 32.734375 218.910156 36.707031 229.148438 Z M 69.695312 217.816406 C 56.824219 219.597656 46.355469 223.136719 38.410156 228.050781 C 34.535156 217.746094 31.445312 207.226562 29.1875 196.625 C 38.394531 190.933594 50.519531 186.835938 65.429688 184.773438 C 66.214844 195.855469 67.644531 206.917969 69.695312 217.816406 Z M 123.382812 149.894531 C 121.246094 160.847656 119.476562 171.921875 118.078125 182.984375 C 100.746094 180.617188 83.957031 180.152344 68.605469 181.921875 C 68.046875 170.820312 68.117188 159.703125 68.847656 148.722656 C 85.769531 146.773438 104.277344 147.28125 123.382812 149.894531 Z M 131.527344 115.234375 C 128.605469 125.761719 126.046875 136.5625 123.859375 147.496094 C 104.644531 144.867188 86.035156 144.359375 69.015625 146.316406 C 69.839844 135.351562 71.324219 124.527344 73.488281 113.984375 C 91.5 111.910156 111.191406 112.453125 131.527344 115.234375 Z M 142.15625 82.445312 C 138.472656 92.234375 135.144531 102.441406 132.171875 112.929688 C 111.78125 110.140625 92.03125 109.597656 73.972656 111.679688 C 76.238281 101.175781 79.183594 90.957031 82.84375 81.167969 C 101.25 79.050781 121.378906 79.605469 142.15625 82.445312 Z M 142.96875 80.308594 C 122.191406 77.46875 102.0625 76.914062 83.65625 79.035156 C 87.40625 69.339844 91.699219 60.511719 96.449219 52.566406 C 114.507812 50.488281 134.257812 51.027344 154.644531 53.816406 C 150.601562 61.777344 146.691406 70.617188 142.96875 80.308594 Z M 221.195312 70.089844 C 217.960938 78.246094 214.488281 87.191406 210.792969 96.894531 C 189.84375 89.578125 168.398438 84.144531 147.53125 80.96875 C 151.253906 71.273438 155.132812 62.433594 159.121094 54.464844 C 179.597656 57.578125 200.636719 62.910156 221.195312 70.089844 Z M 230.757812 46.601562 C 228.058594 53.023438 225.097656 60.273438 221.898438 68.316406 C 201.402344 61.15625 180.417969 55.839844 160 52.734375 C 164.003906 44.894531 168.109375 37.933594 172.265625 31.875 C 191.5625 34.8125 211.386719 39.835938 230.757812 46.601562 Z M 231.347656 45.203125 C 212.082031 38.476562 192.367188 33.480469 173.179688 30.5625 C 177.34375 24.636719 181.558594 19.617188 185.765625 15.523438 C 203.171875 18.171875 221.058594 22.707031 238.535156 28.808594 C 236.410156 33.421875 234.007812 38.902344 231.347656 45.203125 Z M 284.941406 97.246094 C 266.679688 86.574219 246.808594 77.339844 226.386719 69.914062 C 229.527344 61.851562 232.402344 54.574219 235 48.109375 C 254.296875 55.125 273.066406 63.851562 290.324219 73.9375 C 289.109375 81.042969 287.320312 88.832031 284.941406 97.246094 Z M 328.328125 166.179688 C 314.40625 152.558594 297.703125 139.996094 279.28125 128.875 C 282.945312 119.160156 285.976562 110.007812 288.394531 101.46875 C 306.46875 112.382812 322.859375 124.707031 336.519531 138.074219 C 334.6875 147.058594 331.96875 156.449219 328.328125 166.179688 Z M 316.992188 200.128906 C 322.207031 190.699219 326.753906 181.066406 330.519531 171.316406 C 343.984375 185.042969 353.410156 198.59375 358.960938 211.425781 C 355.179688 221.15625 350.453125 230.53125 344.894531 239.484375 C 339.453125 226.890625 330.199219 213.597656 316.992188 200.128906 Z M 298.011719 229.664062 C 304.546875 220.777344 310.523438 211.589844 315.835938 202.191406 C 329.011719 215.625 338.234375 228.878906 343.664062 241.4375 C 337.992188 250.328125 331.496094 258.785156 324.308594 266.75 C 319.175781 254.882812 310.460938 242.355469 298.011719 229.664062 Z M 275.195312 257.117188 C 282.796875 248.980469 289.960938 240.449219 296.574219 231.605469 C 308.953125 244.230469 317.621094 256.683594 322.722656 268.484375 C 315.433594 276.375 307.457031 283.757812 298.921875 290.570312 C 294.289062 279.867188 286.425781 268.566406 275.195312 257.117188 Z M 249.34375 281.804688 C 257.765625 274.632812 265.859375 266.964844 273.527344 258.890625 C 284.65625 270.242188 292.453125 281.445312 297.039062 292.054688 C 288.421875 298.78125 279.25 304.933594 269.644531 310.433594 C 265.683594 301.273438 258.953125 291.601562 249.34375 281.804688 Z M 203.554688 337.351562 C 214.5 335.101562 225.277344 332.046875 235.761719 328.257812 C 238.539062 335.34375 239.160156 342.007812 237.714844 347.953125 C 227.058594 349.992188 216.09375 351.1875 204.953125 351.484375 C 205.992188 347.21875 205.546875 342.433594 203.554688 337.351562 Z M 168.632812 349.289062 C 169.1875 347.007812 168.949219 344.453125 167.886719 341.734375 C 179.050781 341.289062 190.183594 339.964844 201.152344 337.832031 C 203.082031 342.761719 203.515625 347.398438 202.511719 351.535156 C 191.347656 351.699219 180.011719 350.96875 168.632812 349.289062 Z M 164.15625 355.53125 C 166.371094 353.976562 167.832031 352.023438 168.5 349.785156 C 179.839844 351.601562 191.136719 352.46875 202.269531 352.433594 C 201.050781 356.496094 198.40625 360.042969 194.382812 362.867188 C 184.382812 361.40625 174.269531 358.972656 164.15625 355.53125 Z M 131.703125 340.960938 C 141.539062 346.699219 151.5 351.394531 161.472656 355.078125 C 159.289062 356.480469 156.398438 357.503906 152.832031 358.035156 C 145.46875 353.460938 138.199219 347.84375 131.117188 341.160156 C 131.359375 341.121094 131.554688 341.054688 131.703125 340.960938 Z M 159.511719 333.226562 C 162.207031 335.976562 164.097656 338.691406 165.207031 341.257812 C 154.105469 341.75 142.980469 341.359375 131.953125 340.027344 C 131.878906 339.855469 131.75 339.671875 131.570312 339.488281 C 140.78125 338.257812 150.128906 336.140625 159.511719 333.226562 Z M 149.085938 325.15625 C 152.777344 327.382812 156.121094 329.898438 158.910156 332.625 C 149.710938 335.71875 140.546875 338.023438 131.527344 339.449219 C 131.339844 339.265625 131.117188 339.09375 130.867188 338.945312 C 136.753906 335.140625 142.851562 330.503906 149.085938 325.15625 Z M 136.289062 319.074219 C 140.46875 320.59375 144.535156 322.488281 148.273438 324.671875 C 142.285156 330.167969 136.4375 334.953125 130.8125 338.910156 C 130.558594 338.765625 130.285156 338.636719 130.003906 338.535156 C 131.808594 332.789062 133.917969 326.261719 136.289062 319.074219 Z M 129.089844 338.296875 C 126.558594 331.433594 124.429688 323.808594 122.699219 315.558594 C 126.882812 316.195312 131.175781 317.285156 135.371094 318.75 C 133.277344 326.03125 131.453125 332.664062 129.941406 338.511719 C 129.660156 338.414062 129.371094 338.339844 129.089844 338.296875 Z M 128.429688 340.515625 C 128.679688 340.664062 128.953125 340.792969 129.234375 340.898438 C 127.394531 346.335938 125.945312 350.734375 124.867188 354.128906 C 120.695312 352.585938 116.644531 350.671875 112.929688 348.46875 C 117.609375 346.78125 122.78125 344.144531 128.429688 340.515625 Z M 127.71875 339.976562 C 127.90625 340.160156 128.128906 340.332031 128.375 340.480469 C 122.46875 343.957031 117.042969 346.441406 112.117188 347.980469 C 108.453125 345.734375 105.136719 343.203125 102.390625 340.460938 C 110.25 341.191406 118.707031 341.054688 127.71875 339.976562 Z M 127.308594 339.394531 C 127.378906 339.570312 127.5 339.75 127.679688 339.933594 C 118.480469 340.820312 109.839844 340.769531 101.796875 339.859375 C 99.15625 337.109375 97.320312 334.402344 96.261719 331.84375 C 105.972656 335.175781 116.34375 337.722656 127.308594 339.394531 Z M 95.492188 324.242188 C 105.4375 329.867188 116.042969 334.785156 127.253906 338.882812 C 127.21875 339.027344 127.226562 339.183594 127.292969 339.359375 C 116.257812 337.507812 105.820312 334.785156 96.042969 331.285156 C 95.097656 328.746094 94.921875 326.363281 95.492188 324.242188 Z M 65.859375 303.828125 C 74.304688 310.839844 83.480469 317.269531 93.328125 323 C 92.71875 325.257812 92.902344 327.800781 93.910156 330.507812 C 84.230469 326.890625 75.210938 322.507812 66.921875 317.453125 C 65.089844 312.542969 64.757812 307.933594 65.859375 303.828125 Z M 41.289062 279.382812 C 48.085938 287.515625 55.683594 295.1875 64.019531 302.285156 C 62.882812 306.515625 63.226562 311.269531 65.113281 316.335938 C 56.929688 311.179688 49.472656 305.359375 42.8125 298.964844 C 40.183594 291.90625 39.703125 285.28125 41.289062 279.382812 Z M 52.164062 261.1875 C 46.140625 265.253906 42.121094 270.386719 40.199219 276.289062 C 33.550781 267.980469 27.710938 259.21875 22.734375 250.136719 C 25.121094 242.808594 30.105469 236.4375 37.589844 231.390625 C 41.675781 241.597656 46.554688 251.570312 52.164062 261.1875 Z M 78.398438 252.175781 C 68.160156 253.59375 59.839844 256.40625 53.519531 260.3125 C 48.023438 250.625 43.253906 240.578125 39.269531 230.304688 C 47.113281 225.457031 57.445312 221.960938 70.152344 220.203125 C 72.292969 231.078125 75.050781 241.78125 78.398438 252.175781 Z M 114.886719 218.367188 C 100.054688 216.335938 85.6875 215.941406 72.550781 217.457031 C 70.664062 206.535156 69.386719 195.453125 68.734375 184.351562 C 83.957031 182.601562 100.597656 183.058594 117.78125 185.410156 C 116.4375 196.464844 115.472656 207.5 114.886719 218.367188 Z M 162.558594 232.429688 C 159.171875 242.574219 155.917969 252.484375 152.835938 262.027344 C 140.945312 257.875 128.769531 254.789062 116.925781 252.988281 C 116.90625 242.664062 117.261719 232.023438 117.980469 221.210938 C 132.6875 223.445312 147.796875 227.277344 162.558594 232.429688 Z M 173.859375 199.121094 C 170.242188 209.621094 166.707031 220.027344 163.304688 230.207031 C 148.347656 224.984375 133.039062 221.105469 118.144531 218.835938 C 118.917969 207.996094 120.058594 196.988281 121.550781 185.953125 C 138.804688 188.578125 156.535156 193.070312 173.859375 199.121094 Z M 185.746094 165.140625 C 181.996094 175.703125 178.28125 186.304688 174.652344 196.820312 C 157.175781 190.714844 139.292969 186.183594 121.882812 183.535156 C 123.429688 172.496094 125.332031 161.4375 127.578125 150.5 C 146.765625 153.417969 166.480469 158.417969 185.746094 165.140625 Z M 197.890625 131.460938 C 194.109375 141.777344 190.320312 152.277344 186.566406 162.828125 C 167.195312 156.066406 147.371094 151.042969 128.074219 148.105469 C 130.371094 137.1875 133.011719 126.398438 135.992188 115.875 C 156.410156 118.984375 177.390625 124.300781 197.890625 131.460938 Z M 274.40625 128.597656 C 270.664062 138.363281 266.480469 148.273438 261.933594 158.214844 C 243.621094 147.511719 223.699219 138.25 203.21875 130.804688 C 207.054688 120.53125 210.851562 110.441406 214.566406 100.664062 C 235.441406 108.25 255.742188 117.6875 274.40625 128.597656 Z M 275.21875 126.460938 C 256.554688 115.554688 236.253906 106.113281 215.378906 98.527344 C 219.070312 88.824219 222.515625 79.871094 225.695312 71.691406 C 246.175781 79.136719 266.09375 88.398438 284.410156 99.101562 C 281.941406 107.609375 278.886719 116.746094 275.21875 126.460938 Z M 265.917969 160.582031 C 270.515625 150.671875 274.726562 140.777344 278.46875 131.011719 C 296.890625 142.132812 313.597656 154.695312 327.519531 168.316406 C 323.75 178.066406 319.226562 187.71875 314.042969 197.1875 C 300.382812 183.820312 283.992188 171.492188 265.917969 160.582031 Z M 249.890625 192.398438 C 255.222656 182.585938 260.253906 172.664062 264.90625 162.753906 C 282.929688 173.636719 299.277344 185.929688 312.898438 199.257812 C 307.625 208.695312 301.699219 217.9375 295.238281 226.890625 C 282.363281 214.296875 266.921875 202.679688 249.890625 192.398438 Z M 231.78125 223.492188 C 237.667969 214.03125 243.339844 204.347656 248.714844 194.546875 C 265.652344 204.773438 281.011719 216.324219 293.8125 228.847656 C 287.269531 237.761719 280.195312 246.378906 272.691406 254.613281 C 261.082031 243.25 247.144531 232.769531 231.78125 223.492188 Z M 247.203125 279.664062 C 237.265625 269.941406 225.339844 260.972656 212.191406 253.035156 C 218.445312 244.1875 224.570312 234.992188 230.488281 225.5625 C 245.71875 234.757812 259.53125 245.148438 271.042969 256.410156 C 263.480469 264.585938 255.496094 272.367188 247.203125 279.664062 Z M 221.257812 303.058594 C 230.246094 297.058594 239.027344 290.464844 247.496094 283.367188 C 256.980469 293.039062 263.625 302.589844 267.535156 311.628906 C 257.871094 317.039062 247.785156 321.792969 237.398438 325.824219 C 234.25 318.542969 228.898438 310.851562 221.257812 303.058594 Z M 191.730469 320.207031 C 201.042969 315.589844 210.265625 310.277344 219.285156 304.363281 C 226.78125 312.007812 232.03125 319.550781 235.121094 326.699219 C 224.691406 330.625 213.976562 333.828125 203.09375 336.230469 C 200.878906 331.105469 197.109375 325.691406 191.730469 320.207031 Z M 189.6875 321.207031 C 194.90625 326.527344 198.554688 331.777344 200.707031 336.746094 C 189.800781 339.035156 178.738281 340.523438 167.636719 341.140625 C 166.453125 338.398438 164.441406 335.503906 161.566406 332.574219 C 170.953125 329.546875 180.363281 325.726562 189.6875 321.207031 Z M 169.527344 305.597656 C 176.660156 309.902344 183.132812 314.769531 188.527344 320.046875 C 179.367188 324.730469 170.132812 328.726562 160.925781 331.9375 C 157.953125 329.027344 154.386719 326.34375 150.453125 323.96875 C 156.710938 318.515625 163.09375 312.351562 169.527344 305.597656 Z M 144.769531 293.835938 C 152.855469 296.777344 160.722656 300.433594 167.953125 304.660156 C 161.746094 311.550781 155.597656 317.855469 149.589844 323.457031 C 145.601562 321.128906 141.269531 319.113281 136.8125 317.492188 C 139.222656 310.210938 141.890625 302.285156 144.769531 293.835938 Z M 118.488281 287.035156 C 126.570312 288.265625 134.878906 290.371094 142.992188 293.207031 C 140.371094 301.742188 137.96875 309.761719 135.835938 317.144531 C 131.359375 315.582031 126.785156 314.421875 122.328125 313.742188 C 120.65625 305.40625 119.378906 296.457031 118.488281 287.035156 Z M 128.226562 338.273438 C 121.613281 331.28125 115.5 323.535156 109.910156 315.171875 C 113.59375 314.75 117.625 314.859375 121.789062 315.429688 C 123.792969 323.714844 126.203125 331.382812 129.027344 338.289062 C 128.746094 338.25 128.476562 338.242188 128.226562 338.273438 Z M 99.851562 318.453125 C 108.480469 325.828125 117.730469 332.550781 127.550781 338.492188 C 127.40625 338.589844 127.308594 338.710938 127.265625 338.851562 C 116.097656 334.609375 105.53125 329.546875 95.628906 323.78125 C 96.308594 321.699219 97.726562 319.886719 99.851562 318.453125 Z M 74.289062 292.632812 C 81.523438 301.25 89.4375 309.359375 97.972656 316.828125 C 95.707031 318.355469 94.195312 320.289062 93.472656 322.507812 C 83.664062 316.640625 74.527344 310.078125 66.125 302.941406 C 67.433594 298.914062 70.175781 295.40625 74.289062 292.632812 Z M 72.714844 290.738281 C 68.472656 293.597656 65.644531 297.210938 64.292969 301.367188 C 55.996094 294.144531 48.429688 286.347656 41.667969 278.101562 C 43.554688 272.316406 47.496094 267.277344 53.40625 263.289062 C 59.128906 272.851562 65.582031 282.042969 72.714844 290.738281 Z M 91.179688 284.394531 C 83.972656 285.390625 78.117188 287.371094 73.667969 290.121094 C 66.664062 281.34375 60.335938 272.070312 54.734375 262.433594 C 60.933594 258.597656 69.101562 255.839844 79.140625 254.449219 C 82.574219 264.796875 86.597656 274.824219 91.179688 284.394531 Z M 114.335938 252.613281 C 102.539062 251 91.117188 250.6875 80.667969 251.886719 C 77.515625 241.472656 74.941406 230.742188 72.972656 219.847656 C 85.941406 218.355469 100.125 218.742188 114.765625 220.746094 C 114.238281 231.589844 114.09375 242.257812 114.335938 252.613281 Z M 92.777344 284.191406 C 88.414062 274.59375 84.601562 264.539062 81.367188 254.167969 C 91.617188 252.988281 102.824219 253.292969 114.398438 254.878906 C 114.695312 265.1875 115.386719 275.175781 116.476562 284.699219 C 108.171875 283.566406 100.132812 283.347656 92.777344 284.191406 Z M 98.480469 316.5 C 90.085938 308.9375 82.316406 300.742188 75.214844 292.039062 C 79.527344 289.371094 85.207031 287.449219 92.191406 286.484375 C 96.859375 295.984375 102.082031 305.015625 107.839844 313.4375 C 103.988281 313.972656 100.859375 315.03125 98.480469 316.5 Z M 127.582031 338.472656 C 117.914062 332.429688 108.8125 325.613281 100.332031 318.144531 C 102.558594 316.765625 105.496094 315.773438 109.109375 315.273438 C 114.941406 323.605469 121.304688 331.320312 128.171875 338.277344 C 127.929688 338.3125 127.730469 338.378906 127.582031 338.472656 Z M 121.355469 313.601562 C 116.917969 312.996094 112.621094 312.878906 108.691406 313.328125 C 103.175781 304.878906 98.183594 295.816406 93.742188 286.289062 C 100.871094 285.464844 108.667969 285.679688 116.71875 286.78125 C 117.863281 296.238281 119.40625 305.226562 121.355469 313.601562 Z M 143.570312 291.328125 C 135.203125 288.40625 126.632812 286.234375 118.296875 284.964844 C 117.460938 275.476562 117.011719 265.523438 116.9375 255.246094 C 128.554688 257.011719 140.496094 260.039062 152.164062 264.113281 C 149.105469 273.601562 146.230469 282.71875 143.570312 291.328125 Z M 188.039062 280.574219 C 181.792969 288.601562 175.527344 296.164062 169.3125 303.140625 C 161.855469 298.78125 153.742188 295.011719 145.40625 291.980469 C 148.316406 283.460938 151.433594 274.429688 154.71875 265.023438 C 166.339844 269.246094 177.644531 274.503906 188.039062 280.574219 Z M 207.957031 253.265625 C 201.855469 262.164062 195.644531 270.714844 189.40625 278.8125 C 178.8125 272.617188 167.289062 267.261719 155.4375 262.953125 C 158.746094 253.492188 162.210938 243.65625 165.789062 233.582031 C 180.5 238.929688 194.804688 245.578125 207.957031 253.265625 Z M 217.613281 302.695312 C 208.738281 308.753906 199.675781 314.222656 190.53125 319.007812 C 184.96875 313.566406 178.296875 308.546875 170.933594 304.105469 C 177.375 297.261719 183.855469 289.828125 190.300781 281.917969 C 200.558594 288.113281 209.859375 295.109375 217.613281 302.695312 Z M 191.710938 280.179688 C 198.148438 272.207031 204.546875 263.761719 210.816406 254.964844 C 223.796875 262.804688 235.570312 271.65625 245.378906 281.253906 C 237.039062 288.476562 228.394531 295.210938 219.550781 301.355469 C 211.652344 293.625 202.167969 286.492188 191.710938 280.179688 Z M 227.128906 223.566406 C 221.347656 233.078125 215.375 242.363281 209.289062 251.3125 C 195.964844 243.523438 181.476562 236.789062 166.578125 231.371094 C 170.171875 221.261719 173.878906 210.917969 177.652344 200.472656 C 194.910156 206.746094 211.695312 214.546875 227.128906 223.566406 Z M 190.804688 164.339844 C 194.664062 153.824219 198.539062 143.355469 202.378906 133.058594 C 222.800781 140.484375 242.667969 149.71875 260.933594 160.390625 C 256.332031 170.335938 251.371094 180.296875 246.132812 190.167969 C 228.875 180.082031 210.105469 171.355469 190.804688 164.339844 Z M 244.980469 192.328125 C 239.699219 202.183594 234.144531 211.941406 228.394531 221.480469 C 212.824219 212.382812 195.890625 204.511719 178.480469 198.179688 C 182.261719 187.71875 186.101562 177.164062 189.960938 166.644531 C 209.152344 173.621094 227.820312 182.296875 244.980469 192.328125 Z M 161.9375 354.761719 C 151.824219 351.175781 141.714844 346.578125 131.730469 340.9375 C 131.871094 340.839844 131.964844 340.71875 132.007812 340.574219 C 143.292969 344.496094 154.667969 347.410156 166.015625 349.367188 C 165.386719 351.46875 164.015625 353.300781 161.9375 354.761719 Z M 166.140625 348.90625 C 154.757812 347.085938 143.339844 344.3125 132.015625 340.542969 C 132.050781 340.398438 132.035156 340.238281 131.96875 340.066406 C 143.070312 341.578125 154.269531 342.140625 165.4375 341.820312 C 166.4375 344.367188 166.660156 346.765625 166.140625 348.90625 Z M 209.980469 99.03125 C 206.269531 108.808594 202.5 118.910156 198.71875 129.203125 C 178.164062 122.023438 157.125 116.691406 136.648438 113.578125 C 139.671875 103.09375 143.035156 92.890625 146.71875 83.105469 C 167.589844 86.277344 189.03125 91.714844 209.980469 99.03125 Z M 130.210938 341.148438 C 130.492188 341.191406 130.765625 341.199219 131.015625 341.171875 C 137.605469 347.917969 144.394531 353.597656 151.292969 358.230469 C 147.585938 358.621094 143.539062 358.476562 139.367188 357.875 C 136.070312 353.347656 132.996094 347.78125 130.210938 341.148438 Z M 130.148438 341.140625 C 132.644531 347.726562 135.429688 353.25 138.453125 357.734375 C 134.265625 357.070312 129.972656 355.953125 125.78125 354.460938 C 126.582031 350.964844 127.746094 346.460938 129.296875 340.917969 C 129.578125 341.019531 129.867188 341.09375 130.148438 341.140625 Z M 176.773438 369.199219 C 169.300781 366.828125 161.828125 363.445312 154.449219 359.019531 C 158.25 358.453125 161.332031 357.363281 163.65625 355.867188 C 173.632812 359.402344 183.613281 361.925781 193.480469 363.472656 C 189.261719 366.1875 183.671875 368.167969 176.773438 369.199219 Z M 270.820312 338.527344 C 260.957031 342.328125 250.65625 345.332031 240.046875 347.496094 C 241.519531 341.433594 240.882812 334.640625 238.054688 327.414062 C 248.496094 323.519531 258.636719 318.890625 268.347656 313.605469 C 271.859375 322.570312 272.648438 331.003906 270.820312 338.527344 Z M 65.269531 182.34375 C 50.226562 184.425781 37.996094 188.558594 28.707031 194.300781 C 26.574219 183.6875 25.28125 173 24.871094 162.367188 C 35.109375 156.039062 48.589844 151.480469 65.171875 149.1875 C 64.539062 160.160156 64.578125 171.257812 65.269531 182.34375 Z M 24.953125 278.5 C 29.796875 285.890625 35.496094 292.800781 41.988281 299.140625 C 44.503906 305.21875 48.566406 311.59375 54.21875 318.074219 C 43.390625 307.027344 34.066406 294.832031 26.351562 281.636719 C 25.851562 280.582031 25.386719 279.539062 24.953125 278.5 Z M 56.9375 320.792969 C 50.59375 313.847656 46.109375 307.011719 43.421875 300.519531 C 50.03125 306.773438 57.429688 312.449219 65.550781 317.449219 C 67.664062 322.558594 71.324219 327.957031 76.59375 333.4375 C 70.535156 330.871094 65.027344 327.648438 60.105469 323.828125 C 59.039062 322.828125 57.984375 321.816406 56.9375 320.792969 Z M 278.34375 350.523438 C 271.828125 353.75 265.027344 356.4375 257.996094 358.5625 C 265.40625 353.363281 270.285156 346.824219 272.523438 339.339844 C 282.296875 335.519531 291.621094 330.902344 300.375 325.535156 C 298.011719 333.429688 293.117188 340.414062 285.777344 346.148438 C 283.335938 347.660156 280.859375 349.125 278.34375 350.523438 Z M 362.414062 252.589844 C 358.84375 261.191406 354.5 269.320312 349.46875 276.941406 C 352.011719 266.460938 350.917969 254.71875 346.027344 242.230469 C 351.597656 233.3125 356.335938 223.953125 360.113281 214.226562 C 364.941406 226.554688 366.140625 238.171875 363.851562 248.59375 C 363.386719 249.929688 362.910156 251.261719 362.414062 252.589844 Z M 364.824219 129.28125 C 366.503906 135.527344 367.679688 141.960938 368.324219 148.546875 C 363.222656 136.746094 354.550781 124.289062 342.175781 111.667969 C 341.972656 103.648438 340.925781 96.101562 339.078125 89.105469 C 348.917969 99.136719 356.171875 109.054688 360.933594 118.558594 C 362.34375 122.101562 363.636719 125.675781 364.824219 129.28125 Z M 284.984375 28.359375 C 287.179688 30.550781 288.890625 33.519531 290.101562 37.21875 C 276.949219 29.53125 262.644531 22.878906 247.9375 17.535156 C 249.199219 14.867188 250.148438 13.09375 250.761719 12.25 C 261.230469 16.054688 271.445312 20.679688 280.992188 25.980469 C 282.332031 26.757812 283.664062 27.550781 284.984375 28.359375 Z M 224.199219 4.511719 C 232.191406 6.265625 240.238281 8.554688 248.15625 11.320312 C 247.320312 12.085938 246.160156 13.785156 244.703125 16.382812 C 229.941406 11.226562 214.832031 7.398438 200.125 5.160156 C 203.699219 3.492188 207.226562 2.542969 210.664062 2.328125 C 215.210938 2.890625 219.726562 3.617188 224.199219 4.511719 Z M 114.871094 359.421875 C 107.917969 356.480469 101.191406 353.144531 94.699219 349.421875 C 96.09375 349.921875 97.550781 350.367188 98.796875 350.613281 C 106.210938 355.011719 114.292969 358.828125 122.617188 361.910156 C 122.574219 362.128906 122.539062 362.308594 122.519531 362.457031 C 119.953125 361.5 117.402344 360.492188 114.871094 359.421875 Z M 124.492188 363.179688 C 124.464844 363.011719 124.445312 362.8125 124.445312 362.574219 C 132.800781 365.546875 141.371094 367.773438 149.722656 369.101562 C 150.988281 369.875 152.28125 370.507812 153.589844 371.019531 C 143.703125 369.203125 133.988281 366.585938 124.492188 363.179688 Z M 203.917969 373.375 C 203.390625 373.382812 202.859375 373.382812 202.332031 373.375 C 212.4375 371.867188 220.628906 368.96875 226.8125 364.988281 C 236.285156 364.335938 245.515625 362.746094 254.394531 360.246094 C 250.984375 362.371094 248.238281 363.773438 245.367188 364.9375 C 231.929688 369.324219 218.070312 372.148438 203.917969 373.375 Z M 248.285156 363.957031 C 250.902344 362.753906 253.289062 361.402344 256.332031 359.679688 C 261.796875 358.050781 267.121094 356.074219 272.28125 353.757812 C 268.308594 355.785156 264.257812 357.671875 260.125 359.421875 C 256.21875 361.074219 252.269531 362.585938 248.285156 363.957031 Z M 260.125 15.574219 C 263.75 17.109375 267.3125 18.75 270.816406 20.5 C 264.359375 17.371094 257.679688 14.546875 250.890625 12.078125 C 250.917969 12.042969 250.945312 12.015625 250.96875 11.984375 C 254.046875 13.097656 257.097656 14.292969 260.125 15.574219 Z M 14.734375 260.480469 C 24.175781 282.808594 37.699219 302.859375 54.917969 320.078125 C 72.136719 337.296875 92.1875 350.816406 114.515625 360.261719 C 137.632812 370.039062 162.183594 374.996094 187.5 374.996094 C 212.808594 374.996094 237.363281 370.039062 260.480469 360.261719 C 282.808594 350.816406 302.859375 337.296875 320.078125 320.078125 C 337.296875 302.859375 350.816406 282.808594 360.261719 260.480469 C 370.039062 237.363281 374.996094 212.808594 374.996094 187.5 C 374.996094 162.183594 370.039062 137.632812 360.261719 114.515625 C 350.816406 92.1875 337.296875 72.136719 320.078125 54.917969 C 302.859375 37.699219 282.808594 24.175781 260.480469 14.734375 C 237.363281 4.957031 212.808594 0 187.5 0 C 162.183594 0 137.632812 4.957031 114.515625 14.734375 C 92.1875 24.175781 72.136719 37.699219 54.917969 54.917969 C 37.699219 72.136719 24.175781 92.1875 14.734375 114.515625 C 4.957031 137.632812 0 162.183594 0 187.5 C 0 212.808594 4.957031 237.363281 14.734375 260.480469 " fill-opacity="1" fill-rule="nonzero"/></svg>