<svg xmlns="http://www.w3.org/2000/svg" xmlns:xlink="http://www.w3.org/1999/xlink" width="500" zoomAndPan="magnify" viewBox="0 0 375 374.999991" height="500" preserveAspectRatio="xMidYMid meet" version="1.0"><defs><clipPath id="3dfd1565b6"><path d="M 3.074219 0 L 375 0 L 375 375 L 3.074219 375 Z M 3.074219 0 " clip-rule="nonzero"/></clipPath></defs><g clip-path="url(#3dfd1565b6)"><path fill="#ffffff" d="M 35.707031 97.550781 C 32.070312 107.332031 29.445312 117.441406 27.78125 127.753906 C 17.359375 134.777344 10.414062 143.65625 7.09375 153.855469 C 7.207031 153.058594 7.328125 152.257812 7.453125 151.460938 C 9.820312 139.378906 13.386719 127.566406 18.136719 116.101562 C 22.054688 109.046875 27.933594 102.792969 35.707031 97.550781 Z M 50.253906 68.640625 C 44.90625 76.777344 40.289062 85.714844 36.519531 95.414062 C 28.980469 100.496094 23.230469 106.53125 19.316406 113.320312 C 24.808594 100.652344 31.625 88.734375 39.703125 77.664062 C 42.171875 74.839844 44.289062 73.214844 50.253906 68.640625 Z M 58.636719 55.5625 C 62.171875 52.023438 65.832031 48.648438 69.605469 45.425781 C 69.691406 45.363281 69.773438 45.296875 69.859375 45.234375 C 63.070312 51.625 56.894531 58.847656 51.4375 66.871094 C 47.726562 69.371094 44.460938 72.109375 41.640625 75.058594 C 46.824219 68.214844 52.492188 61.707031 58.636719 55.5625 Z M 132.222656 14.332031 C 125.78125 18.378906 119.625 23.359375 113.847656 29.25 C 97.265625 31.542969 83.785156 36.101562 73.546875 42.429688 C 74.546875 41.515625 75.566406 40.625 76.59375 39.746094 C 85.960938 32.5 95.972656 26.1875 106.5625 20.847656 C 113.914062 17.894531 122.472656 15.683594 132.222656 14.332031 Z M 153.84375 4.578125 C 146.886719 6.585938 140.121094 9.554688 133.636719 13.460938 C 124.492188 14.726562 116.394531 16.761719 109.375 19.457031 C 112.191406 18.09375 115.046875 16.800781 117.945312 15.574219 C 129.230469 10.800781 140.863281 7.1875 152.753906 4.738281 C 153.117188 4.683594 153.480469 4.628906 153.84375 4.578125 Z M 210.597656 1.972656 C 207.113281 2.207031 203.566406 3.121094 199.984375 4.695312 C 185.34375 2.695312 171.160156 2.304688 158.191406 3.796875 C 158.539062 3.703125 158.890625 3.613281 159.238281 3.523438 C 169.515625 1.789062 179.976562 0.914062 190.570312 0.914062 C 197.304688 0.914062 203.984375 1.269531 210.597656 1.972656 Z M 251.410156 11.167969 C 247.042969 9.644531 242.632812 8.265625 238.21875 7.042969 C 242.695312 8.226562 247.128906 9.574219 251.519531 11.09375 C 251.484375 11.117188 251.449219 11.136719 251.410156 11.167969 Z M 330.597656 65.207031 C 320.789062 55.605469 309.019531 46.753906 296.039062 38.917969 C 294.703125 35.226562 292.882812 32.222656 290.59375 29.941406 C 302.074219 37.242188 312.75 45.804688 322.507812 55.5625 C 323.582031 56.640625 324.648438 57.726562 325.695312 58.828125 C 327.46875 60.996094 329.214844 63.238281 330.597656 65.207031 Z M 337.511719 72.472656 C 336 70.757812 334.402344 69.042969 332.714844 67.320312 C 331.976562 66.171875 331.207031 65.054688 330.410156 63.960938 C 332.867188 66.734375 335.234375 69.570312 337.511719 72.472656 Z M 362.808594 115.628906 C 358.089844 106.558594 351.089844 97.121094 341.734375 87.582031 C 339.769531 80.664062 337.007812 74.304688 333.496094 68.566406 C 335.761719 70.875 337.863281 73.175781 339.808594 75.464844 C 348.9375 87.597656 356.535156 100.777344 362.492188 114.871094 C 362.601562 115.121094 362.703125 115.375 362.808594 115.628906 Z M 372.457031 151.121094 C 371.949219 146.023438 371.125 141.011719 369.996094 136.101562 C 372.121094 143.523438 373.773438 151.058594 374.953125 158.695312 C 374.292969 156.207031 373.460938 153.679688 372.457031 151.121094 Z M 376.582031 202.257812 C 376.316406 195.515625 374.761719 188.402344 371.878906 181.035156 C 373.167969 171.527344 373.402344 162.1875 372.640625 153.105469 C 373.773438 155.996094 374.6875 158.84375 375.386719 161.640625 C 376.566406 170.152344 377.15625 178.777344 377.15625 187.5 C 377.15625 192.449219 376.964844 197.371094 376.582031 202.257812 Z M 364 212.089844 C 367.628906 202.339844 370.132812 192.648438 371.578125 183.121094 C 374.597656 190.832031 376.164062 198.257812 376.324219 205.28125 C 375.023438 219.097656 372.203125 232.628906 367.882812 245.757812 C 369.96875 235.519531 368.71875 224.144531 364 212.089844 Z M 351.925781 279.214844 C 355.542969 273.746094 358.804688 268.007812 361.683594 262.015625 C 358.25 269.890625 354.300781 277.476562 349.855469 284.746094 C 350.664062 282.949219 351.359375 281.105469 351.925781 279.214844 Z M 331.109375 304.1875 C 338.390625 297.160156 344.957031 289.433594 350.683594 281.058594 C 350.058594 283.152344 349.277344 285.1875 348.351562 287.167969 C 341.457031 298.066406 333.425781 308.238281 324.320312 317.59375 C 327.40625 313.464844 329.675781 308.976562 331.109375 304.1875 Z M 305.355469 324.34375 C 314.027344 318.867188 322.117188 312.640625 329.503906 305.714844 C 328.007812 310.707031 325.601562 315.367188 322.304688 319.632812 C 312.816406 329.09375 302.464844 337.429688 291.347656 344.570312 C 298.351562 338.894531 303.050781 332.054688 305.355469 324.34375 Z M 154.625 369.378906 C 162.941406 370.578125 171.015625 370.863281 178.414062 370.089844 C 185.410156 372.347656 192.421875 373.601562 199.359375 373.878906 C 196.441406 374.011719 193.511719 374.082031 190.570312 374.082031 C 179.90625 374.082031 169.375 373.195312 159.03125 371.4375 C 157.539062 370.898438 156.070312 370.214844 154.625 369.378906 Z M 80.847656 334.636719 C 86.335938 340.109375 92.949219 345.160156 100.257812 349.640625 C 99.015625 349.457031 97.828125 349.171875 96.699219 348.796875 C 85.667969 342.371094 75.328125 334.824219 65.777344 326.210938 C 70.308594 329.566406 75.339844 332.390625 80.847656 334.636719 Z M 26.980469 276.875 C 27.269531 277.570312 27.578125 278.269531 27.898438 278.96875 C 26.902344 277.203125 25.9375 275.417969 25 273.617188 C 25.644531 274.710938 26.300781 275.800781 26.980469 276.875 Z M 18.648438 260.125 C 16.082031 254.058594 13.855469 247.894531 11.960938 241.644531 C 10.167969 233.125 11.101562 228.140625 12.296875 221.796875 C 15.363281 231.375 19.367188 240.746094 24.242188 249.78125 C 22.214844 257.339844 22.828125 265.835938 26.199219 274.882812 C 24.835938 272.71875 23.546875 270.515625 22.328125 268.277344 C 21.039062 265.59375 19.8125 262.878906 18.648438 260.125 Z M 5.742188 190.359375 C 6.722656 200.265625 8.710938 210.082031 11.640625 219.695312 C 10.078125 225.5 9.859375 231.78125 11.007812 238.40625 C 7.378906 225.605469 5.148438 212.449219 4.335938 199.046875 C 4.519531 196.058594 4.988281 193.160156 5.742188 190.359375 Z M 5.542969 188.1875 C 4.851562 190.753906 4.398438 193.402344 4.183594 196.125 C 4.054688 193.261719 3.984375 190.382812 3.984375 187.5 C 3.984375 178.769531 4.578125 170.132812 5.757812 161.613281 C 4.859375 170.484375 4.800781 179.367188 5.542969 188.1875 Z M 25.667969 161.460938 C 15.847656 168.082031 9.300781 176.449219 6.171875 186.0625 C 5.355469 176.089844 5.542969 166.042969 6.800781 156.046875 C 10.113281 145.875 17.039062 137.019531 27.429688 130.015625 C 25.90625 140.351562 25.332031 150.878906 25.667969 161.460938 Z M 29.796875 195.585938 C 20.9375 201.558594 15.03125 209.105469 12.207031 217.777344 C 9.300781 208.089844 7.335938 198.207031 6.371094 188.246094 C 9.480469 178.6875 15.992188 170.367188 25.753906 163.78125 C 26.21875 174.378906 27.582031 185.023438 29.796875 195.585938 Z M 72.648438 114.480469 C 70.535156 125.019531 69.125 135.832031 68.394531 146.785156 C 51.71875 149.09375 38.164062 153.675781 27.867188 160.039062 C 27.589844 149.417969 28.207031 138.863281 29.761719 128.507812 C 40.65625 121.773438 55.003906 116.921875 72.648438 114.480469 Z M 81.917969 81.675781 C 78.261719 91.464844 75.339844 101.675781 73.125 112.175781 C 55.429688 114.625 41.042969 119.488281 30.117188 126.242188 C 31.8125 115.914062 34.453125 105.792969 38.089844 96.011719 C 49.222656 89.128906 63.886719 84.171875 81.917969 81.675781 Z M 95.597656 53.0625 C 90.800781 61.011719 86.480469 69.847656 82.730469 79.539062 C 64.695312 82.035156 50.035156 86.992188 38.898438 93.878906 C 42.671875 84.175781 47.273438 75.25 52.59375 67.128906 C 63.519531 60.375 77.902344 55.511719 95.597656 53.0625 Z M 96.65625 51.335938 C 79.011719 53.777344 64.664062 58.628906 53.769531 65.363281 C 59.195312 57.359375 65.328125 50.167969 72.0625 43.8125 C 82.355469 37.445312 95.914062 32.863281 112.585938 30.554688 C 106.863281 36.578125 101.523438 43.515625 96.65625 51.335938 Z M 171.121094 31.269531 C 166.859375 37.308594 162.667969 44.257812 158.609375 52.089844 C 138.273438 49.308594 118.582031 48.765625 100.570312 50.839844 C 105.386719 43.027344 110.652344 36.101562 116.28125 30.085938 C 133.300781 28.128906 151.910156 28.640625 171.121094 31.269531 Z M 185.03125 14.976562 C 180.675781 19.042969 176.332031 24.046875 172.058594 29.957031 C 152.953125 27.34375 134.449219 26.835938 117.523438 28.785156 C 123.207031 22.902344 129.246094 17.9375 135.558594 13.910156 C 150.910156 12.144531 167.699219 12.605469 185.03125 14.976562 Z M 185.988281 14.097656 C 168.804688 11.75 152.164062 11.292969 136.945312 13.046875 C 143.292969 9.152344 149.90625 6.203125 156.699219 4.21875 C 169.839844 2.707031 184.207031 3.097656 199.039062 5.128906 C 194.714844 7.167969 190.34375 10.164062 185.988281 14.097656 Z M 247.453125 16.964844 C 245.949219 19.695312 244.148438 23.320312 242.066406 27.808594 C 224.746094 21.761719 207.015625 17.269531 189.761719 14.644531 C 193.964844 10.6875 198.160156 7.664062 202.296875 5.597656 C 217.191406 7.863281 232.496094 11.742188 247.453125 16.964844 Z M 245.859375 29.164062 C 247.785156 24.617188 249.414062 20.929688 250.726562 18.132812 C 265.625 23.546875 280.117188 30.285156 293.441406 38.070312 C 294.621094 42.03125 295.257812 46.777344 295.339844 52.257812 C 279.90625 43.238281 263.117188 35.433594 245.859375 29.164062 Z M 293.65625 72.390625 C 276.496094 62.359375 257.828125 53.683594 238.636719 46.707031 C 241.1875 40.363281 243.460938 34.839844 245.429688 30.171875 C 262.84375 36.5 279.777344 44.375 295.347656 53.472656 C 295.347656 59.0625 294.789062 65.382812 293.65625 72.390625 Z M 297.15625 76.167969 C 314.1875 86.453125 329.632812 98.066406 342.503906 110.664062 C 342.511719 118.683594 341.6875 127.191406 339.980469 136.113281 C 326.359375 122.78125 310.011719 110.488281 291.988281 99.609375 C 294.316406 91.160156 296.03125 83.332031 297.15625 76.167969 Z M 298.695312 54.253906 C 298.480469 48.691406 297.6875 43.851562 296.339844 39.792969 C 309.492188 47.734375 321.414062 56.699219 331.351562 66.425781 C 334.742188 72.035156 337.386719 78.285156 339.25 85.101562 C 327.742188 73.835938 313.929688 63.449219 298.695312 54.253906 Z M 342.488281 108.910156 C 329.6875 96.386719 314.328125 84.835938 297.390625 74.609375 C 298.425781 67.546875 298.867188 61.152344 298.734375 55.484375 C 314.101562 64.761719 328.035156 75.242188 339.644531 86.605469 C 341.394531 93.5 342.359375 100.960938 342.488281 108.910156 Z M 342.917969 139.046875 C 344.585938 130.085938 345.355469 121.527344 345.28125 113.4375 C 357.726562 126.125 366.441406 138.652344 371.574219 150.519531 C 372.308594 159.535156 372.054688 168.824219 370.746094 178.292969 C 365.316406 165.738281 356.09375 152.480469 342.917969 139.046875 Z M 362.84375 209.289062 C 357.296875 196.457031 347.871094 182.90625 334.40625 169.179688 C 338.046875 159.449219 340.742188 150.035156 342.542969 141.015625 C 355.75 154.484375 365 167.78125 370.445312 180.371094 C 368.988281 189.871094 366.472656 199.539062 362.84375 209.289062 Z M 328.449219 269.335938 C 335.664062 261.441406 342.175781 253.03125 347.867188 244.179688 C 352.746094 256.628906 353.835938 268.339844 351.296875 278.789062 C 345.5625 287.195312 338.984375 294.960938 331.691406 302.042969 C 334.089844 292.167969 333.054688 281.101562 328.449219 269.335938 Z M 302.957031 292.90625 C 311.53125 286.1875 319.539062 278.878906 326.855469 271.058594 C 331.4375 282.757812 332.464844 293.765625 330.082031 303.582031 C 322.679688 310.566406 314.570312 316.859375 305.878906 322.414062 C 308.042969 313.503906 307.113281 303.519531 302.957031 292.90625 Z M 276.046875 337.683594 C 277.898438 330.0625 277.097656 321.515625 273.542969 312.433594 C 283.195312 307.046875 292.410156 301.003906 301.066406 294.371094 C 305.1875 304.890625 306.113281 314.789062 303.964844 323.617188 C 295.191406 329.0625 285.84375 333.769531 276.046875 337.683594 Z M 242.761719 348.8125 C 253.34375 346.761719 263.613281 343.863281 273.449219 340.164062 C 271.238281 347.554688 266.425781 354.003906 259.109375 359.140625 C 250.132812 361.707031 240.796875 363.371094 231.210938 364.097656 C 237.101562 359.960938 240.984375 354.765625 242.761719 348.8125 Z M 199.648438 363.171875 C 203.792969 360.257812 206.523438 356.597656 207.777344 352.410156 C 218.882812 352.242188 229.8125 351.167969 240.441406 349.246094 C 238.691406 355.085938 234.886719 360.183594 229.105469 364.242188 C 219.488281 364.835938 209.628906 364.488281 199.648438 363.171875 Z M 203.789062 373.34375 C 196.421875 373.125 188.953125 371.921875 181.484375 369.703125 C 188.597656 368.636719 194.363281 366.597656 198.714844 363.796875 C 208.566406 365.199219 218.304688 365.628906 227.808594 365.117188 C 221.742188 369.019531 213.707031 371.863281 203.789062 373.34375 Z M 143.171875 358.851562 C 147.617188 359.488281 151.929688 359.644531 155.882812 359.230469 C 162.800781 363.710938 169.824219 367.152344 176.871094 369.574219 C 169.695312 370.328125 161.867188 370.046875 153.800781 368.886719 C 150.066406 366.5625 146.503906 363.226562 143.171875 358.851562 Z M 128.6875 355.210938 C 133.152344 356.800781 137.730469 357.992188 142.195312 358.703125 C 145.253906 363.035156 148.550781 366.332031 152.03125 368.617188 C 143.933594 367.328125 135.625 365.167969 127.519531 362.285156 C 127.558594 360.910156 127.941406 358.5625 128.6875 355.210938 Z M 114.984375 348.824219 C 118.945312 351.171875 123.261719 353.210938 127.710938 354.859375 C 126.691406 358.109375 126.039062 360.359375 125.75 361.644531 C 117.679688 358.65625 109.84375 354.957031 102.65625 350.691406 C 106.257812 350.976562 110.375 350.375 114.984375 348.824219 Z M 103.75 340.285156 C 106.679688 343.210938 110.214844 345.910156 114.121094 348.304688 C 109.269531 349.707031 104.917969 350.171875 101.089844 349.75 C 94 345.402344 87.589844 340.503906 82.269531 335.199219 C 88.800781 337.710938 95.972656 339.429688 103.75 340.285156 Z M 70.417969 318.53125 C 78.648438 323.433594 87.601562 327.65625 97.21875 331.101562 C 98.347656 333.832031 100.304688 336.714844 103.121094 339.644531 C 95.164062 338.605469 87.820312 336.714844 81.125 334.035156 C 76.015625 328.722656 72.464844 323.484375 70.417969 318.53125 Z M 42.882812 277.59375 C 41.269531 283.605469 41.757812 290.363281 44.4375 297.554688 C 37.894531 291.082031 32.144531 284.042969 27.257812 276.535156 C 23.929688 267.605469 23.324219 259.21875 25.328125 251.753906 C 30.332031 260.746094 36.207031 269.394531 42.882812 277.59375 Z M 39.78125 229.148438 C 32.203125 234.261719 27.148438 240.71875 24.730469 248.140625 C 19.882812 239.007812 15.902344 229.554688 12.859375 219.894531 C 15.660156 211.300781 21.511719 203.820312 30.292969 197.898438 C 32.628906 208.449219 35.808594 218.910156 39.78125 229.148438 Z M 72.769531 217.816406 C 59.894531 219.597656 49.429688 223.136719 41.480469 228.050781 C 37.609375 217.746094 34.519531 207.226562 32.261719 196.625 C 41.46875 190.933594 53.59375 186.835938 68.503906 184.773438 C 69.289062 195.855469 70.71875 206.917969 72.769531 217.816406 Z M 126.457031 149.894531 C 124.316406 160.847656 122.546875 171.921875 121.152344 182.984375 C 103.820312 180.617188 87.03125 180.152344 71.679688 181.921875 C 71.121094 170.820312 71.191406 159.703125 71.921875 148.722656 C 88.84375 146.773438 107.351562 147.28125 126.457031 149.894531 Z M 134.597656 115.234375 C 131.679688 125.761719 129.121094 136.5625 126.933594 147.496094 C 107.71875 144.867188 89.109375 144.359375 72.089844 146.316406 C 72.914062 135.351562 74.398438 124.527344 76.5625 113.984375 C 94.570312 111.910156 114.265625 112.453125 134.597656 115.234375 Z M 145.230469 82.445312 C 141.546875 92.234375 138.214844 102.441406 135.246094 112.929688 C 114.855469 110.140625 95.105469 109.597656 77.046875 111.679688 C 79.3125 101.175781 82.257812 90.957031 85.917969 81.167969 C 104.324219 79.050781 124.453125 79.605469 145.230469 82.445312 Z M 146.042969 80.308594 C 125.261719 77.46875 105.136719 76.914062 86.726562 79.035156 C 90.476562 69.339844 94.769531 60.511719 99.523438 52.566406 C 117.582031 50.488281 137.332031 51.027344 157.71875 53.816406 C 153.675781 61.777344 149.765625 70.617188 146.042969 80.308594 Z M 224.269531 70.089844 C 221.035156 78.246094 217.5625 87.191406 213.867188 96.894531 C 192.917969 89.578125 171.472656 84.144531 150.605469 80.96875 C 154.328125 71.273438 158.207031 62.433594 162.195312 54.464844 C 182.671875 57.578125 203.710938 62.910156 224.269531 70.089844 Z M 233.832031 46.601562 C 231.132812 53.023438 228.171875 60.273438 224.972656 68.316406 C 204.476562 61.15625 183.492188 55.839844 163.074219 52.734375 C 167.078125 44.894531 171.183594 37.933594 175.339844 31.875 C 194.636719 34.8125 214.460938 39.835938 233.832031 46.601562 Z M 234.421875 45.203125 C 215.15625 38.476562 195.441406 33.480469 176.253906 30.5625 C 180.417969 24.636719 184.632812 19.617188 188.839844 15.523438 C 206.246094 18.171875 224.132812 22.707031 241.605469 28.808594 C 239.484375 33.421875 237.082031 38.902344 234.421875 45.203125 Z M 288.015625 97.246094 C 269.75 86.574219 249.882812 77.339844 229.460938 69.914062 C 232.601562 61.851562 235.476562 54.574219 238.074219 48.109375 C 257.371094 55.125 276.140625 63.851562 293.398438 73.9375 C 292.183594 81.042969 290.394531 88.832031 288.015625 97.246094 Z M 331.402344 166.179688 C 317.480469 152.558594 300.777344 139.996094 282.355469 128.875 C 286.019531 119.160156 289.050781 110.007812 291.46875 101.46875 C 309.542969 112.382812 325.933594 124.707031 339.59375 138.074219 C 337.761719 147.058594 335.042969 156.449219 331.402344 166.179688 Z M 320.066406 200.128906 C 325.28125 190.699219 329.828125 181.066406 333.59375 171.316406 C 347.058594 185.042969 356.484375 198.59375 362.035156 211.425781 C 358.253906 221.15625 353.523438 230.53125 347.96875 239.484375 C 342.523438 226.890625 333.273438 213.597656 320.066406 200.128906 Z M 301.085938 229.664062 C 307.621094 220.777344 313.597656 211.589844 318.910156 202.191406 C 332.085938 215.625 341.308594 228.878906 346.738281 241.4375 C 341.0625 250.328125 334.570312 258.785156 327.382812 266.75 C 322.25 254.882812 313.535156 242.355469 301.085938 229.664062 Z M 278.269531 257.117188 C 285.871094 248.980469 293.035156 240.449219 299.648438 231.605469 C 312.023438 244.230469 320.695312 256.683594 325.796875 268.484375 C 318.503906 276.375 310.53125 283.757812 301.996094 290.570312 C 297.363281 279.867188 289.5 268.566406 278.269531 257.117188 Z M 252.417969 281.804688 C 260.839844 274.632812 268.933594 266.964844 276.597656 258.890625 C 287.730469 270.242188 295.527344 281.445312 300.113281 292.054688 C 291.496094 298.78125 282.324219 304.933594 272.71875 310.433594 C 268.757812 301.273438 262.027344 291.601562 252.417969 281.804688 Z M 206.628906 337.351562 C 217.574219 335.101562 228.351562 332.046875 238.835938 328.257812 C 241.613281 335.34375 242.234375 342.007812 240.789062 347.953125 C 230.128906 349.992188 219.167969 351.1875 208.027344 351.484375 C 209.066406 347.21875 208.617188 342.433594 206.628906 337.351562 Z M 171.707031 349.289062 C 172.261719 347.007812 172.023438 344.453125 170.960938 341.734375 C 182.125 341.289062 193.257812 339.964844 204.226562 337.832031 C 206.15625 342.761719 206.589844 347.398438 205.585938 351.535156 C 194.421875 351.699219 183.085938 350.96875 171.707031 349.289062 Z M 167.226562 355.53125 C 169.445312 353.976562 170.902344 352.023438 171.574219 349.785156 C 182.914062 351.601562 194.210938 352.46875 205.34375 352.433594 C 204.125 356.496094 201.476562 360.042969 197.457031 362.867188 C 187.457031 361.40625 177.34375 358.972656 167.226562 355.53125 Z M 134.773438 340.960938 C 144.613281 346.699219 154.574219 351.394531 164.546875 355.078125 C 162.363281 356.480469 159.472656 357.503906 155.90625 358.035156 C 148.542969 353.460938 141.273438 347.84375 134.191406 341.160156 C 134.433594 341.121094 134.628906 341.054688 134.773438 340.960938 Z M 162.585938 333.226562 C 165.28125 335.976562 167.167969 338.691406 168.28125 341.257812 C 157.179688 341.75 146.054688 341.359375 135.027344 340.027344 C 134.949219 339.855469 134.824219 339.671875 134.640625 339.488281 C 143.851562 338.257812 153.203125 336.140625 162.585938 333.226562 Z M 152.160156 325.15625 C 155.851562 327.382812 159.195312 329.898438 161.984375 332.625 C 152.785156 335.71875 143.621094 338.023438 134.601562 339.449219 C 134.414062 339.265625 134.191406 339.09375 133.9375 338.945312 C 139.828125 335.140625 145.925781 330.503906 152.160156 325.15625 Z M 139.363281 319.074219 C 143.542969 320.59375 147.609375 322.488281 151.347656 324.671875 C 145.359375 330.167969 139.511719 334.953125 133.886719 338.910156 C 133.632812 338.765625 133.359375 338.636719 133.078125 338.535156 C 134.882812 332.789062 136.992188 326.261719 139.363281 319.074219 Z M 132.160156 338.296875 C 129.628906 331.433594 127.503906 323.808594 125.773438 315.558594 C 129.957031 316.195312 134.246094 317.285156 138.445312 318.75 C 136.351562 326.03125 134.527344 332.664062 133.015625 338.511719 C 132.734375 338.414062 132.445312 338.339844 132.160156 338.296875 Z M 131.503906 340.515625 C 131.753906 340.664062 132.027344 340.792969 132.308594 340.898438 C 130.46875 346.335938 129.019531 350.734375 127.941406 354.128906 C 123.765625 352.585938 119.714844 350.671875 116 348.46875 C 120.683594 346.78125 125.855469 344.144531 131.503906 340.515625 Z M 130.792969 339.976562 C 130.980469 340.160156 131.203125 340.332031 131.449219 340.480469 C 125.542969 343.957031 120.117188 346.441406 115.191406 347.980469 C 111.527344 345.734375 108.210938 343.203125 105.460938 340.460938 C 113.324219 341.191406 121.78125 341.054688 130.792969 339.976562 Z M 130.382812 339.394531 C 130.453125 339.570312 130.574219 339.75 130.753906 339.933594 C 121.554688 340.820312 112.910156 340.769531 104.871094 339.859375 C 102.230469 337.109375 100.394531 334.402344 99.335938 331.84375 C 109.046875 335.175781 119.414062 337.722656 130.382812 339.394531 Z M 98.566406 324.242188 C 108.511719 329.867188 119.117188 334.785156 130.328125 338.882812 C 130.289062 339.027344 130.300781 339.183594 130.363281 339.359375 C 119.332031 337.507812 108.894531 334.785156 99.117188 331.285156 C 98.167969 328.746094 97.996094 326.363281 98.566406 324.242188 Z M 68.929688 303.828125 C 77.375 310.839844 86.554688 317.269531 96.398438 323 C 95.792969 325.257812 95.976562 327.800781 96.984375 330.507812 C 87.304688 326.890625 78.285156 322.507812 69.992188 317.453125 C 68.164062 312.542969 67.828125 307.933594 68.929688 303.828125 Z M 44.363281 279.382812 C 51.160156 287.515625 58.757812 295.1875 67.09375 302.285156 C 65.957031 306.515625 66.300781 311.269531 68.1875 316.335938 C 60.003906 311.179688 52.546875 305.359375 45.886719 298.964844 C 43.257812 291.90625 42.777344 285.28125 44.363281 279.382812 Z M 55.238281 261.1875 C 49.214844 265.253906 45.195312 270.386719 43.273438 276.289062 C 36.625 267.980469 30.78125 259.21875 25.808594 250.136719 C 28.191406 242.808594 33.179688 236.4375 40.664062 231.390625 C 44.75 241.597656 49.628906 251.570312 55.238281 261.1875 Z M 81.472656 252.175781 C 71.234375 253.59375 62.914062 256.40625 56.59375 260.3125 C 51.097656 250.625 46.328125 240.578125 42.34375 230.304688 C 50.1875 225.457031 60.519531 221.960938 73.226562 220.203125 C 75.367188 231.078125 78.125 241.78125 81.472656 252.175781 Z M 117.960938 218.367188 C 103.128906 216.335938 88.761719 215.941406 75.621094 217.457031 C 73.738281 206.535156 72.460938 195.453125 71.808594 184.351562 C 87.027344 182.601562 103.671875 183.058594 120.851562 185.410156 C 119.511719 196.464844 118.546875 207.5 117.960938 218.367188 Z M 165.632812 232.429688 C 162.246094 242.574219 158.992188 252.484375 155.910156 262.027344 C 144.019531 257.875 131.84375 254.789062 120 252.988281 C 119.980469 242.664062 120.335938 232.023438 121.054688 221.210938 C 135.757812 223.445312 150.867188 227.277344 165.632812 232.429688 Z M 176.933594 199.121094 C 173.316406 209.621094 169.78125 220.027344 166.375 230.207031 C 151.421875 224.984375 136.113281 221.105469 121.21875 218.835938 C 121.992188 207.996094 123.132812 196.988281 124.625 185.953125 C 141.878906 188.578125 159.609375 193.070312 176.933594 199.121094 Z M 188.816406 165.140625 C 185.066406 175.703125 181.355469 186.304688 177.726562 196.820312 C 160.25 190.714844 142.367188 186.183594 124.957031 183.535156 C 126.503906 172.496094 128.40625 161.4375 130.652344 150.5 C 149.839844 153.417969 169.554688 158.417969 188.816406 165.140625 Z M 200.964844 131.460938 C 197.183594 141.777344 193.394531 152.277344 189.640625 162.828125 C 170.269531 156.066406 150.445312 151.042969 131.148438 148.105469 C 133.445312 137.1875 136.085938 126.398438 139.066406 115.875 C 159.484375 118.984375 180.464844 124.300781 200.964844 131.460938 Z M 277.480469 128.597656 C 273.738281 138.363281 269.554688 148.273438 265.007812 158.214844 C 246.691406 147.511719 226.773438 138.25 206.292969 130.804688 C 210.128906 120.53125 213.925781 110.441406 217.640625 100.664062 C 238.515625 108.25 258.816406 117.6875 277.480469 128.597656 Z M 278.292969 126.460938 C 259.628906 115.554688 239.324219 106.113281 218.453125 98.527344 C 222.144531 88.824219 225.585938 79.871094 228.769531 71.691406 C 249.25 79.136719 269.167969 88.398438 287.484375 99.101562 C 285.015625 107.609375 281.960938 116.746094 278.292969 126.460938 Z M 268.992188 160.582031 C 273.589844 150.671875 277.800781 140.777344 281.542969 131.011719 C 299.964844 142.132812 316.667969 154.695312 330.589844 168.316406 C 326.824219 178.066406 322.296875 187.71875 317.117188 197.1875 C 303.457031 183.820312 287.066406 171.492188 268.992188 160.582031 Z M 252.964844 192.398438 C 258.296875 182.585938 263.328125 172.664062 267.980469 162.753906 C 286.003906 173.636719 302.351562 185.929688 315.972656 199.257812 C 310.695312 208.695312 304.773438 217.9375 298.3125 226.890625 C 285.4375 214.296875 269.992188 202.679688 252.964844 192.398438 Z M 234.855469 223.492188 C 240.742188 214.03125 246.414062 204.347656 251.789062 194.546875 C 268.726562 204.773438 284.085938 216.324219 296.886719 228.847656 C 290.34375 237.761719 283.269531 246.378906 275.765625 254.613281 C 264.15625 243.25 250.21875 232.769531 234.855469 223.492188 Z M 250.273438 279.664062 C 240.335938 269.941406 228.414062 260.972656 215.265625 253.035156 C 221.519531 244.1875 227.644531 234.992188 233.5625 225.5625 C 248.792969 234.757812 262.605469 245.148438 274.117188 256.410156 C 266.550781 264.585938 258.570312 272.367188 250.273438 279.664062 Z M 224.332031 303.058594 C 233.320312 297.058594 242.101562 290.464844 250.570312 283.367188 C 260.054688 293.039062 266.699219 302.589844 270.609375 311.628906 C 260.945312 317.039062 250.859375 321.792969 240.472656 325.824219 C 237.324219 318.542969 231.972656 310.851562 224.332031 303.058594 Z M 194.804688 320.207031 C 204.117188 315.589844 213.335938 310.277344 222.359375 304.363281 C 229.855469 312.007812 235.105469 319.550781 238.195312 326.699219 C 227.765625 330.625 217.050781 333.828125 206.167969 336.230469 C 203.949219 331.105469 200.183594 325.691406 194.804688 320.207031 Z M 192.761719 321.207031 C 197.976562 326.527344 201.628906 331.777344 203.78125 336.746094 C 192.875 339.035156 181.808594 340.523438 170.710938 341.140625 C 169.527344 338.398438 167.515625 335.503906 164.640625 332.574219 C 174.027344 329.546875 183.4375 325.726562 192.761719 321.207031 Z M 172.597656 305.597656 C 179.734375 309.902344 186.207031 314.769531 191.597656 320.046875 C 182.441406 324.730469 173.207031 328.726562 164 331.9375 C 161.027344 329.027344 157.460938 326.34375 153.527344 323.96875 C 159.785156 318.515625 166.167969 312.351562 172.597656 305.597656 Z M 147.84375 293.835938 C 155.929688 296.777344 163.796875 300.433594 171.027344 304.660156 C 164.820312 311.550781 158.671875 317.855469 152.664062 323.457031 C 148.675781 321.128906 144.34375 319.113281 139.886719 317.492188 C 142.296875 310.210938 144.964844 302.285156 147.84375 293.835938 Z M 121.5625 287.035156 C 129.644531 288.265625 137.953125 290.371094 146.066406 293.207031 C 143.441406 301.742188 141.042969 309.761719 138.90625 317.144531 C 134.433594 315.582031 129.855469 314.421875 125.402344 313.742188 C 123.730469 305.40625 122.453125 296.457031 121.5625 287.035156 Z M 131.300781 338.273438 C 124.6875 331.28125 118.574219 323.535156 112.984375 315.171875 C 116.667969 314.75 120.699219 314.859375 124.859375 315.429688 C 126.867188 323.714844 129.277344 331.382812 132.101562 338.289062 C 131.820312 338.25 131.550781 338.242188 131.300781 338.273438 Z M 102.925781 318.453125 C 111.554688 325.828125 120.804688 332.550781 130.625 338.492188 C 130.480469 338.589844 130.382812 338.710938 130.339844 338.851562 C 119.171875 334.609375 108.605469 329.546875 98.703125 323.78125 C 99.382812 321.699219 100.800781 319.886719 102.925781 318.453125 Z M 77.363281 292.632812 C 84.597656 301.25 92.507812 309.359375 101.046875 316.828125 C 98.78125 318.355469 97.269531 320.289062 96.546875 322.507812 C 86.738281 316.640625 77.601562 310.078125 69.199219 302.941406 C 70.507812 298.914062 73.25 295.40625 77.363281 292.632812 Z M 75.789062 290.738281 C 71.546875 293.597656 68.71875 297.210938 67.367188 301.367188 C 59.066406 294.144531 51.503906 286.347656 44.742188 278.101562 C 46.625 272.316406 50.566406 267.277344 56.480469 263.289062 C 62.199219 272.851562 68.65625 282.042969 75.789062 290.738281 Z M 94.253906 284.394531 C 87.046875 285.390625 81.191406 287.371094 76.742188 290.121094 C 69.738281 281.34375 63.410156 272.070312 57.808594 262.433594 C 64.007812 258.597656 72.171875 255.839844 82.214844 254.449219 C 85.648438 264.796875 89.667969 274.824219 94.253906 284.394531 Z M 117.410156 252.613281 C 105.613281 251 94.191406 250.6875 83.742188 251.886719 C 80.589844 241.472656 78.015625 230.742188 76.046875 219.847656 C 89.015625 218.355469 103.199219 218.742188 117.839844 220.746094 C 117.3125 231.589844 117.167969 242.257812 117.410156 252.613281 Z M 95.851562 284.191406 C 91.488281 274.59375 87.675781 264.539062 84.441406 254.167969 C 94.691406 252.988281 105.898438 253.292969 117.46875 254.878906 C 117.769531 265.1875 118.460938 275.175781 119.550781 284.699219 C 111.246094 283.566406 103.207031 283.347656 95.851562 284.191406 Z M 101.554688 316.5 C 93.160156 308.9375 85.390625 300.742188 78.285156 292.039062 C 82.601562 289.371094 88.28125 287.449219 95.265625 286.484375 C 99.933594 295.984375 105.15625 305.015625 110.914062 313.4375 C 107.0625 313.972656 103.933594 315.03125 101.554688 316.5 Z M 130.65625 338.472656 C 120.988281 332.429688 111.886719 325.613281 103.40625 318.144531 C 105.632812 316.765625 108.570312 315.773438 112.183594 315.273438 C 118.015625 323.605469 124.378906 331.320312 131.246094 338.277344 C 131.003906 338.3125 130.804688 338.378906 130.65625 338.472656 Z M 124.429688 313.601562 C 119.992188 312.996094 115.695312 312.878906 111.765625 313.328125 C 106.25 304.878906 101.257812 295.816406 96.816406 286.289062 C 103.945312 285.464844 111.742188 285.679688 119.792969 286.78125 C 120.9375 296.238281 122.480469 305.226562 124.429688 313.601562 Z M 146.644531 291.328125 C 138.273438 288.40625 129.707031 286.234375 121.371094 284.964844 C 120.535156 275.476562 120.085938 265.523438 120.007812 255.246094 C 131.628906 257.011719 143.570312 260.039062 155.238281 264.113281 C 152.179688 273.601562 149.304688 282.71875 146.644531 291.328125 Z M 191.113281 280.574219 C 184.867188 288.601562 178.601562 296.164062 172.386719 303.140625 C 164.929688 298.78125 156.816406 295.011719 148.480469 291.980469 C 151.390625 283.460938 154.507812 274.429688 157.789062 265.023438 C 169.414062 269.246094 180.71875 274.503906 191.113281 280.574219 Z M 211.03125 253.265625 C 204.925781 262.164062 198.71875 270.714844 192.480469 278.8125 C 181.882812 272.617188 170.359375 267.261719 158.511719 262.953125 C 161.816406 253.492188 165.285156 243.65625 168.863281 233.582031 C 183.570312 238.929688 197.878906 245.578125 211.03125 253.265625 Z M 220.683594 302.695312 C 211.8125 308.753906 202.75 314.222656 193.605469 319.007812 C 188.042969 313.566406 181.367188 308.546875 174.007812 304.105469 C 180.449219 297.261719 186.929688 289.828125 193.375 281.917969 C 203.632812 288.113281 212.933594 295.109375 220.683594 302.695312 Z M 194.785156 280.179688 C 201.222656 272.207031 207.621094 263.761719 213.890625 254.964844 C 226.871094 262.804688 238.644531 271.65625 248.453125 281.253906 C 240.113281 288.476562 231.46875 295.210938 222.625 301.355469 C 214.722656 293.625 205.242188 286.492188 194.785156 280.179688 Z M 230.203125 223.566406 C 224.421875 233.078125 218.449219 242.363281 212.363281 251.3125 C 199.039062 243.523438 184.546875 236.789062 169.648438 231.371094 C 173.246094 221.261719 176.953125 210.917969 180.722656 200.472656 C 197.984375 206.746094 214.769531 214.546875 230.203125 223.566406 Z M 193.878906 164.339844 C 197.738281 153.824219 201.613281 143.355469 205.453125 133.058594 C 225.875 140.484375 245.742188 149.71875 264.003906 160.390625 C 259.402344 170.335938 254.445312 180.296875 249.207031 190.167969 C 231.949219 180.082031 213.175781 171.355469 193.878906 164.339844 Z M 248.054688 192.328125 C 242.773438 202.183594 237.21875 211.941406 231.46875 221.480469 C 215.898438 212.382812 198.964844 204.511719 181.550781 198.179688 C 185.332031 187.71875 189.175781 177.164062 193.035156 166.644531 C 212.226562 173.621094 230.890625 182.296875 248.054688 192.328125 Z M 165.011719 354.761719 C 154.898438 351.175781 144.789062 346.578125 134.804688 340.9375 C 134.945312 340.839844 135.039062 340.71875 135.082031 340.574219 C 146.367188 344.496094 157.742188 347.410156 169.089844 349.367188 C 168.460938 351.46875 167.089844 353.300781 165.011719 354.761719 Z M 169.214844 348.90625 C 157.832031 347.085938 146.414062 344.3125 135.089844 340.542969 C 135.125 340.398438 135.109375 340.238281 135.042969 340.066406 C 146.144531 341.578125 157.339844 342.140625 168.511719 341.820312 C 169.507812 344.367188 169.734375 346.765625 169.214844 348.90625 Z M 213.054688 99.03125 C 209.34375 108.808594 205.574219 118.910156 201.792969 129.203125 C 181.238281 122.023438 160.195312 116.691406 139.722656 113.578125 C 142.746094 103.09375 146.105469 92.890625 149.792969 83.105469 C 170.660156 86.277344 192.105469 91.714844 213.054688 99.03125 Z M 133.285156 341.148438 C 133.566406 341.191406 133.839844 341.199219 134.089844 341.171875 C 140.679688 347.917969 147.46875 353.597656 154.367188 358.230469 C 150.660156 358.621094 146.613281 358.476562 142.441406 357.875 C 139.140625 353.347656 136.070312 347.78125 133.285156 341.148438 Z M 133.222656 341.140625 C 135.71875 347.726562 138.503906 353.25 141.527344 357.734375 C 137.339844 357.070312 133.046875 355.953125 128.855469 354.460938 C 129.65625 350.964844 130.820312 346.460938 132.371094 340.917969 C 132.652344 341.019531 132.941406 341.09375 133.222656 341.140625 Z M 179.847656 369.199219 C 172.375 366.828125 164.902344 363.445312 157.523438 359.019531 C 161.324219 358.453125 164.40625 357.363281 166.730469 355.867188 C 176.707031 359.402344 186.6875 361.925781 196.554688 363.472656 C 192.332031 366.1875 186.746094 368.167969 179.847656 369.199219 Z M 273.890625 338.527344 C 264.03125 342.328125 253.730469 345.332031 243.117188 347.496094 C 244.59375 341.433594 243.957031 334.640625 241.128906 327.414062 C 251.570312 323.519531 261.707031 318.890625 271.421875 313.605469 C 274.933594 322.570312 275.722656 331.003906 273.890625 338.527344 Z M 68.34375 182.34375 C 53.300781 184.425781 41.070312 188.558594 31.78125 194.300781 C 29.648438 183.6875 28.351562 173 27.945312 162.367188 C 38.179688 156.039062 51.664062 151.480469 68.246094 149.1875 C 67.613281 160.160156 67.652344 171.257812 68.34375 182.34375 Z M 28.027344 278.5 C 32.871094 285.890625 38.570312 292.800781 45.0625 299.140625 C 47.578125 305.21875 51.640625 311.59375 57.292969 318.074219 C 46.464844 307.027344 37.140625 294.832031 29.425781 281.636719 C 28.925781 280.582031 28.460938 279.539062 28.027344 278.5 Z M 60.011719 320.792969 C 53.667969 313.847656 49.183594 307.011719 46.496094 300.519531 C 53.105469 306.773438 60.503906 312.449219 68.625 317.449219 C 70.738281 322.558594 74.398438 327.957031 79.667969 333.4375 C 73.609375 330.871094 68.101562 327.648438 63.179688 323.828125 C 62.113281 322.828125 61.054688 321.816406 60.011719 320.792969 Z M 281.417969 350.523438 C 274.902344 353.75 268.101562 356.4375 261.070312 358.5625 C 268.480469 353.363281 273.359375 346.824219 275.597656 339.339844 C 285.367188 335.519531 294.695312 330.902344 303.449219 325.535156 C 301.085938 333.429688 296.191406 340.414062 288.851562 346.148438 C 286.410156 347.660156 283.933594 349.125 281.417969 350.523438 Z M 365.488281 252.589844 C 361.917969 261.191406 357.574219 269.320312 352.542969 276.941406 C 355.085938 266.460938 353.992188 254.71875 349.101562 242.230469 C 354.671875 233.3125 359.410156 223.953125 363.1875 214.226562 C 368.015625 226.554688 369.214844 238.171875 366.925781 248.59375 C 366.460938 249.929688 365.984375 251.261719 365.488281 252.589844 Z M 367.898438 129.28125 C 369.578125 135.527344 370.753906 141.960938 371.398438 148.546875 C 366.296875 136.746094 357.625 124.289062 345.25 111.667969 C 345.046875 103.648438 344 96.101562 342.152344 89.105469 C 351.992188 99.136719 359.246094 109.054688 364.003906 118.558594 C 365.414062 122.101562 366.710938 125.675781 367.898438 129.28125 Z M 288.058594 28.359375 C 290.253906 30.550781 291.964844 33.519531 293.175781 37.21875 C 280.023438 29.53125 265.714844 22.878906 251.007812 17.535156 C 252.273438 14.867188 253.222656 13.09375 253.835938 12.25 C 264.304688 16.054688 274.519531 20.679688 284.0625 25.980469 C 285.40625 26.757812 286.738281 27.550781 288.058594 28.359375 Z M 227.273438 4.511719 C 235.265625 6.265625 243.308594 8.554688 251.230469 11.320312 C 250.394531 12.085938 249.234375 13.785156 247.777344 16.382812 C 233.015625 11.226562 217.90625 7.398438 203.199219 5.160156 C 206.773438 3.492188 210.300781 2.542969 213.738281 2.328125 C 218.285156 2.890625 222.796875 3.617188 227.273438 4.511719 Z M 117.945312 359.421875 C 110.992188 356.480469 104.265625 353.144531 97.773438 349.421875 C 99.167969 349.921875 100.625 350.367188 101.871094 350.613281 C 109.285156 355.011719 117.367188 358.828125 125.691406 361.910156 C 125.644531 362.128906 125.613281 362.308594 125.59375 362.457031 C 123.027344 361.5 120.476562 360.492188 117.945312 359.421875 Z M 127.566406 363.179688 C 127.539062 363.011719 127.519531 362.8125 127.519531 362.574219 C 135.875 365.546875 144.445312 367.773438 152.796875 369.101562 C 154.0625 369.875 155.355469 370.507812 156.664062 371.019531 C 146.773438 369.203125 137.0625 366.585938 127.566406 363.179688 Z M 206.992188 373.375 C 206.460938 373.382812 205.933594 373.382812 205.40625 373.375 C 215.511719 371.867188 223.703125 368.96875 229.886719 364.988281 C 239.359375 364.335938 248.585938 362.746094 257.464844 360.246094 C 254.058594 362.371094 251.3125 363.773438 248.441406 364.9375 C 235 369.324219 221.144531 372.148438 206.992188 373.375 Z M 251.359375 363.957031 C 253.976562 362.753906 256.363281 361.402344 259.40625 359.679688 C 264.871094 358.050781 270.195312 356.074219 275.355469 353.757812 C 271.382812 355.785156 267.332031 357.671875 263.199219 359.421875 C 259.292969 361.074219 255.34375 362.585938 251.359375 363.957031 Z M 263.199219 15.574219 C 266.824219 17.109375 270.386719 18.75 273.890625 20.5 C 267.433594 17.371094 260.753906 14.546875 253.964844 12.078125 C 253.992188 12.042969 254.015625 12.015625 254.042969 11.984375 C 257.121094 13.097656 260.171875 14.292969 263.199219 15.574219 Z M 17.808594 260.480469 C 27.25 282.808594 40.769531 302.859375 57.992188 320.078125 C 75.210938 337.296875 95.261719 350.816406 117.589844 360.261719 C 140.703125 370.039062 165.257812 374.996094 190.570312 374.996094 C 215.882812 374.996094 240.4375 370.039062 263.554688 360.261719 C 285.882812 350.816406 305.933594 337.296875 323.152344 320.078125 C 340.371094 302.859375 353.890625 282.808594 363.335938 260.480469 C 373.113281 237.363281 378.070312 212.808594 378.070312 187.5 C 378.070312 162.183594 373.113281 137.632812 363.335938 114.515625 C 353.890625 92.1875 340.371094 72.136719 323.152344 54.917969 C 305.933594 37.699219 285.882812 24.175781 263.554688 14.734375 C 240.4375 4.957031 215.882812 0 190.570312 0 C 165.257812 0 140.703125 4.957031 117.589844 14.734375 C 95.261719 24.175781 75.210938 37.699219 57.992188 54.917969 C 40.769531 72.136719 27.25 92.1875 17.808594 114.515625 C 8.03125 137.632812 3.074219 162.183594 3.074219 187.5 C 3.074219 212.808594 8.03125 237.363281 17.808594 260.480469 " fill-opacity="1" fill-rule="nonzero"/></g></svg>