<svg width="500" height="500" viewBox="0 0 500 500" fill="none" xmlns="http://www.w3.org/2000/svg">
<circle cx="250" cy="250" r="249.75" stroke="#D9D9D9" stroke-width="0.5"/>
<path d="M397.824 46.4921C397.599 45.5063 397.165 44.4724 396.533 43.4178C395.851 42.2803 394.945 41.1305 393.84 40.0005C394.945 38.8704 395.851 37.7206 396.533 36.5832C397.164 35.5285 397.599 34.4942 397.824 33.5089C397.93 33.043 397.989 32.5878 397.999 32.1557C398.008 31.7348 397.971 31.3304 397.889 30.9544C397.808 30.5854 397.683 30.24 397.517 29.9274C397.352 29.6179 397.146 29.3383 396.904 29.0967C396.662 28.8548 396.382 28.6486 396.073 28.4841C395.761 28.3179 395.415 28.1927 395.046 28.1118C394.67 28.0293 394.266 27.9927 393.845 28.0022C393.412 28.012 392.957 28.0706 392.492 28.1769C391.506 28.4017 390.472 28.8358 389.418 29.4678C388.28 30.1492 387.13 31.0554 386 32.1607C384.87 31.0554 383.721 30.1496 382.583 29.4678C381.528 28.8353 380.493 28.4008 379.508 28.1761C379.042 28.0697 378.587 28.0111 378.155 28.0014C377.734 27.9923 377.33 28.0289 376.954 28.1114C376.585 28.1922 376.239 28.3176 375.927 28.4837C375.617 28.6482 375.338 28.8543 375.096 29.0963C374.854 29.3383 374.648 29.6179 374.483 29.927C374.317 30.2396 374.192 30.585 374.111 30.954C374.029 31.3299 373.992 31.734 374.001 32.1554C374.011 32.5874 374.07 33.043 374.176 33.5084C374.401 34.4937 374.835 35.5281 375.467 36.5828C376.149 37.7202 377.055 38.87 378.16 40.0001C377.055 41.1301 376.149 42.2799 375.467 43.4173C374.835 44.472 374.401 45.5063 374.176 46.4916C374.07 46.9575 374.011 47.4127 374.001 47.8448C373.992 48.2657 374.029 48.6697 374.111 49.0461C374.192 49.4151 374.317 49.7605 374.483 50.0731C374.648 50.3822 374.854 50.6622 375.096 50.9038C375.338 51.1459 375.618 51.3519 375.927 51.5164C376.239 51.6826 376.585 51.808 376.954 51.8887C377.33 51.9712 377.734 52.0079 378.155 51.9984C378.587 51.9885 379.043 51.9299 379.508 51.8236C380.493 51.599 381.528 51.1647 382.582 50.5328C383.72 49.8513 384.87 48.9451 386 47.8398C387.13 48.9451 388.279 49.8509 389.417 50.5328C390.471 51.1643 391.506 51.599 392.491 51.8236C392.957 51.9299 393.412 51.9885 393.844 51.9984C393.887 51.9991 393.93 52 393.972 52C394.347 52 394.707 51.9626 395.046 51.8887C395.414 51.808 395.76 51.6826 396.072 51.5164C396.382 51.3519 396.662 51.1459 396.903 50.9038C397.145 50.6619 397.351 50.3822 397.516 50.0731C397.682 49.7605 397.807 49.4151 397.888 49.0461C397.97 48.6701 398.007 48.2661 397.998 47.8448C397.989 47.4131 397.93 46.9579 397.824 46.4921Z" fill="#5D6AB1"/>
</svg>
