<svg width="29" height="74" viewBox="0 0 29 74" fill="none" xmlns="http://www.w3.org/2000/svg">
<path d="M3.42421 70.103C2.88564 69.566 2.40483 68.9813 1.98178 68.3491C1.55873 67.7177 1.20124 67.0503 0.909323 66.3486C0.617403 65.6461 0.397292 64.9218 0.248991 64.1764C0.0999084 63.431 0.0257578 62.6777 0.0249771 61.9175L0 14.3298C0.000780685 14.0949 0.00780535 13.86 0.0202939 13.6258C0.032002 13.3909 0.0499542 13.1567 0.0741508 12.9225C0.0975668 12.6892 0.127227 12.4558 0.162351 12.224C0.198256 11.9914 0.238844 11.7603 0.285676 11.5301C0.331727 11.2998 0.384023 11.0703 0.441783 10.8432C0.499542 10.6153 0.562766 10.3889 0.631453 10.1641C0.70092 9.93933 0.775071 9.71688 0.854686 9.49599C0.9343 9.2751 1.01938 9.05577 1.10992 8.83956C1.20046 8.62257 1.29647 8.40792 1.39716 8.1964C1.49785 7.98409 1.604 7.77413 1.71562 7.56729C1.82645 7.36045 1.94275 7.15673 2.06452 6.95535C2.1855 6.75397 2.31194 6.55649 2.44229 6.36136C2.57342 6.16623 2.70924 5.97422 2.84973 5.78611C2.99023 5.598 3.13463 5.41301 3.28449 5.23193C3.43357 5.05084 3.58734 4.87288 3.74579 4.6996C3.90346 4.52554 4.06581 4.35617 4.23206 4.19069C4.39831 4.02444 4.56925 3.86287 4.74331 3.70598C4.91737 3.54831 5.09611 3.39533 5.27798 3.24625C5.45984 3.09794 5.64483 2.95354 5.83372 2.81383C6.02261 2.67489 6.21462 2.53986 6.41053 2.40951C6.60567 2.27916 6.8047 2.15428 7.00608 2.03407C7.20824 1.91309 7.41274 1.79757 7.61958 1.68752C7.82721 1.57746 8.03717 1.47209 8.24947 1.3714C8.46178 1.27149 8.67643 1.17705 8.8942 1.08729C9.11119 0.997524 9.33052 0.913226 9.55141 0.834392C9.77308 0.755558 9.99631 0.682187 10.2211 0.614281C10.4459 0.546374 10.6723 0.483932 10.9002 0.426952C11.1281 0.369973 11.3576 0.319239 11.5878 0.273187C11.8181 0.227916 12.0499 0.188109 12.2825 0.153765C12.5143 0.119422 12.7477 0.090542 12.9819 0.0679065C13.2152 0.0452709 13.4502 0.0280992 13.6843 0.0163911C13.9193 0.00546375 14.1542 0 14.3892 0C14.6241 0 14.859 0.0054637 15.094 0.0171716C15.3281 0.0288797 15.5631 0.0460514 15.7965 0.0694675C16.0306 0.0928837 16.264 0.121763 16.4958 0.156107C16.7284 0.190451 16.9602 0.230258 17.1905 0.276309C17.4215 0.322361 17.6502 0.373876 17.8782 0.430855C18.1069 0.487834 18.3332 0.550277 18.558 0.618964C18.7828 0.686871 19.006 0.760241 19.2277 0.839856C19.4486 0.91869 19.6679 1.00299 19.8857 1.09275C20.1027 1.18251 20.3173 1.27774 20.5304 1.37842C20.7427 1.47833 20.9527 1.58371 21.1603 1.69454C21.3679 1.80538 21.5724 1.9209 21.7746 2.04188C21.976 2.16208 22.175 2.28775 22.3701 2.4181C22.566 2.54845 22.7581 2.68348 22.9477 2.8232C23.1366 2.96291 23.3224 3.10731 23.5043 3.25639C23.6861 3.40469 23.8641 3.55846 24.0389 3.71613C24.213 3.87301 24.3839 4.03537 24.5502 4.20084C24.7172 4.36709 24.8796 4.53647 25.038 4.71053C25.1965 4.88459 25.3502 5.06255 25.4993 5.24363C25.6492 5.42472 25.7943 5.60971 25.9348 5.79859C26.0753 5.9867 26.2111 6.17872 26.3423 6.37385C26.4734 6.56898 26.5999 6.76724 26.7216 6.96862C26.8426 7.16999 26.9589 7.37371 27.0705 7.58134C27.1821 7.78818 27.2883 7.99736 27.3898 8.20967C27.4912 8.42197 27.5872 8.63662 27.6778 8.85361C27.7683 9.0706 27.8534 9.28915 27.9338 9.51004C28.0134 9.73093 28.0883 9.95416 28.157 10.179C28.2265 10.4038 28.2897 10.6301 28.3483 10.8572C28.406 11.0852 28.4583 11.3146 28.5051 11.5449C28.552 11.7752 28.5933 12.0062 28.6285 12.2388C28.6636 12.4714 28.694 12.704 28.7174 12.9381C28.7416 13.1715 28.7604 13.4057 28.7729 13.6406C28.7854 13.8756 28.7924 14.1105 28.7932 14.3455L28.8142 54.2995C28.8119 54.3885 28.801 54.4767 28.7822 54.5633C28.7627 54.6507 28.7354 54.735 28.6995 54.8162C28.6644 54.8982 28.6207 54.9754 28.5699 55.0488C28.52 55.1214 28.4622 55.1893 28.399 55.2517C28.335 55.3134 28.2655 55.3688 28.1914 55.418C28.1172 55.4664 28.0384 55.5077 27.9556 55.5413C27.8737 55.5749 27.7886 55.5999 27.7012 55.617C27.6138 55.6342 27.5256 55.6428 27.4366 55.6428C27.3476 55.6428 27.2586 55.6342 27.1712 55.617C27.0838 55.5999 26.9995 55.5741 26.9168 55.5405C26.834 55.507 26.756 55.4656 26.681 55.4172C26.6061 55.368 26.5374 55.3126 26.4734 55.2502C26.4094 55.1885 26.3524 55.1206 26.3017 55.0472C26.251 54.9739 26.208 54.8966 26.1721 54.8146C26.1362 54.7335 26.1089 54.6492 26.0894 54.5617C26.0699 54.4751 26.0589 54.3869 26.0566 54.2979L26.0355 14.3439C26.0355 13.9622 26.0168 13.5821 25.9793 13.2028C25.9419 12.8234 25.8857 12.4472 25.8107 12.0733C25.7366 11.6994 25.6437 11.3295 25.5329 10.965C25.422 10.6004 25.294 10.2414 25.1481 9.88938C25.0021 9.53736 24.839 9.19314 24.6587 8.85673C24.4791 8.52032 24.2832 8.19328 24.0709 7.87638C23.8594 7.55948 23.6323 7.25351 23.3903 6.95847C23.1483 6.66421 22.8931 6.38165 22.623 6.11237C22.3537 5.8423 22.0712 5.58629 21.7761 5.34432C21.4819 5.10236 21.1759 4.876 20.859 4.6637C20.5413 4.45139 20.2151 4.25548 19.8787 4.07595C19.5423 3.89643 19.198 3.7333 18.846 3.58734C18.494 3.4406 18.135 3.31259 17.7704 3.20175C17.4059 3.09092 17.036 2.99804 16.6621 2.9231C16.2882 2.84895 15.912 2.79275 15.5326 2.75529C15.1533 2.71782 14.7732 2.69909 14.3915 2.69831C14.0106 2.69831 13.6305 2.71704 13.2511 2.75373C12.8718 2.79119 12.4948 2.84661 12.1209 2.92076C11.7478 2.99491 11.3779 3.08702 11.0133 3.19785C10.6488 3.30791 10.2906 3.43592 9.93855 3.58188C9.58653 3.72784 9.24232 3.89019 8.9059 4.06971C8.57027 4.24923 8.24323 4.44437 7.92633 4.65589C7.61022 4.86742 7.30425 5.09455 7.00999 5.33574C6.71494 5.5777 6.43317 5.83294 6.16389 6.10222C5.8946 6.37229 5.63859 6.65406 5.3974 6.94832C5.15543 7.24258 4.92908 7.54855 4.71755 7.86545C4.50525 8.18235 4.31011 8.50861 4.13059 8.84502C3.95107 9.18065 3.78794 9.52487 3.64276 9.87689C3.4968 10.2289 3.36879 10.5872 3.25795 10.9517C3.1479 11.317 3.05579 11.6862 2.98164 12.06C2.90749 12.4339 2.85129 12.8101 2.81461 13.1895C2.77714 13.5688 2.75841 13.9489 2.75841 14.3306L2.78885 61.923C2.79354 62.2086 2.81305 62.4935 2.84583 62.7777C2.87861 63.0618 2.92466 63.3428 2.98477 63.6222C3.04565 63.9024 3.11902 64.1779 3.20566 64.4503C3.29308 64.7227 3.39299 64.9905 3.50538 65.2527C3.61856 65.5158 3.74423 65.7718 3.88238 66.0223C4.01976 66.2729 4.16962 66.5164 4.33119 66.7521C4.49276 66.9879 4.66526 67.2158 4.84868 67.4351C5.03289 67.6544 5.22646 67.8636 5.43018 68.0642C5.63468 68.2648 5.84777 68.4545 6.07022 68.634C6.29267 68.8143 6.52293 68.9829 6.76178 69.1398C7.00062 69.2975 7.24649 69.4426 7.49938 69.5761C7.75227 69.7096 8.01141 69.8298 8.27601 69.9383C8.54061 70.0468 8.80912 70.142 9.08309 70.224C9.35705 70.3059 9.63414 70.3746 9.91514 70.43C10.1953 70.4854 10.4779 70.5268 10.762 70.5541C11.0469 70.5822 11.3318 70.5955 11.6175 70.5955C11.9032 70.5955 12.1888 70.5822 12.473 70.5541C12.7578 70.5268 13.0396 70.4854 13.3206 70.43C13.6008 70.3746 13.8779 70.3059 14.1511 70.224C14.4251 70.142 14.6944 70.0468 14.9582 69.9391C15.2228 69.8306 15.4811 69.7096 15.734 69.5761C15.9869 69.4426 16.232 69.2975 16.4709 69.1406C16.7089 68.9829 16.9392 68.8143 17.1616 68.6348C17.3833 68.4553 17.5964 68.2648 17.8001 68.065C18.0038 67.8644 18.1966 67.6544 18.38 67.4351C18.5635 67.2166 18.7352 66.9886 18.8968 66.7529C19.0575 66.5164 19.2066 66.2737 19.344 66.0231C19.4814 65.7726 19.6063 65.5158 19.7187 65.2535C19.8311 64.9905 19.931 64.7235 20.0168 64.4511C20.1035 64.1787 20.1768 63.9024 20.2362 63.623C20.2955 63.3435 20.3415 63.0618 20.3743 62.7784C20.4063 62.4943 20.4243 62.2094 20.4289 61.9237L20.4071 20.7209C20.4071 20.5226 20.3977 20.3244 20.3774 20.1261C20.3579 19.9286 20.329 19.7319 20.29 19.5376C20.251 19.3424 20.2026 19.1496 20.1448 18.96C20.0871 18.7695 20.0207 18.583 19.9442 18.3988C19.8685 18.2153 19.7834 18.0358 19.6898 17.861C19.5953 17.6854 19.4939 17.5152 19.383 17.3497C19.273 17.1843 19.1543 17.025 19.0279 16.8713C18.9022 16.7175 18.7687 16.5708 18.6282 16.4303C18.4878 16.2898 18.3402 16.1563 18.1865 16.0298C18.0327 15.9042 17.8735 15.7855 17.708 15.6755C17.5433 15.5646 17.3731 15.4624 17.1975 15.3687C17.0219 15.2751 16.8424 15.19 16.659 15.1143C16.4755 15.0378 16.289 14.9707 16.0985 14.9129C15.9081 14.8551 15.7161 14.8067 15.5209 14.7677C15.3258 14.7295 15.1299 14.6998 14.9316 14.6803C14.7342 14.6608 14.5359 14.6506 14.3369 14.6506C14.1386 14.6506 13.9404 14.66 13.7421 14.6795C13.5446 14.699 13.3487 14.7279 13.1536 14.7669C12.9584 14.8052 12.7664 14.8536 12.576 14.9113C12.3863 14.9691 12.199 15.0354 12.0156 15.1112C11.8321 15.1877 11.6526 15.2719 11.4778 15.3656C11.3021 15.4593 11.132 15.5615 10.9673 15.6716C10.8018 15.7816 10.6426 15.9003 10.4888 16.0259C10.3351 16.1516 10.1883 16.2851 10.0478 16.4256C9.90733 16.5661 9.77464 16.7128 9.64819 16.8666C9.52253 17.0203 9.40467 17.1796 9.29383 17.3443C9.18378 17.5097 9.08153 17.6799 8.98786 17.8547C8.89498 18.0304 8.8099 18.2099 8.73419 18.3933C8.65769 18.5767 8.59135 18.7633 8.53359 18.9537C8.47583 19.1434 8.42822 19.3362 8.38919 19.5313C8.35094 19.7257 8.32128 19.9224 8.30255 20.1199C8.28304 20.3181 8.27289 20.5164 8.27367 20.7146L8.2885 54.2886C8.2885 54.3791 8.27992 54.4689 8.26196 54.5578C8.24401 54.6468 8.21825 54.7327 8.18391 54.8162C8.14879 54.8997 8.10664 54.9793 8.0559 55.055C8.00595 55.13 7.94897 55.1994 7.88418 55.2634C7.82018 55.3274 7.75071 55.3844 7.67578 55.4352C7.60007 55.4851 7.52046 55.5273 7.43694 55.5624C7.35342 55.5967 7.26756 55.6225 7.17858 55.6404C7.0896 55.6584 6.99984 55.667 6.9093 55.667C6.81875 55.667 6.72899 55.6576 6.64001 55.6404C6.55181 55.6225 6.46517 55.596 6.38165 55.5616C6.29814 55.5273 6.21852 55.4843 6.14281 55.4344C6.06788 55.3836 5.99763 55.3267 5.93363 55.2627C5.86962 55.1987 5.81264 55.1284 5.76191 55.0535C5.71196 54.9785 5.66903 54.8989 5.63468 54.8146C5.59956 54.7311 5.57302 54.6453 5.55585 54.5563C5.5379 54.4673 5.52853 54.3775 5.52853 54.287L5.51214 20.7193C5.51526 20.4321 5.53165 20.1456 5.56209 19.8599C5.59331 19.575 5.6378 19.2917 5.69556 19.0099C5.7541 18.7289 5.82591 18.4518 5.91177 18.1771C5.99685 17.9031 6.0952 17.6338 6.2076 17.3692C6.31921 17.1054 6.44332 16.8471 6.58069 16.5942C6.71728 16.3421 6.86637 16.097 7.02716 15.8597C7.18795 15.6216 7.36045 15.3929 7.54387 15.172C7.72652 14.9511 7.92009 14.7396 8.12459 14.5375C8.32831 14.3353 8.5414 14.1441 8.76463 13.963C8.98708 13.7819 9.21812 13.6118 9.45774 13.4533C9.69659 13.2949 9.94324 13.1481 10.1969 13.0139C10.4506 12.8796 10.7097 12.7578 10.9759 12.6486C11.2413 12.5393 11.5113 12.4433 11.7861 12.3606C12.0616 12.2778 12.3395 12.2091 12.6213 12.1537C12.903 12.0983 13.1871 12.0561 13.4728 12.0288C13.7585 12.0007 14.0449 11.9867 14.3322 11.9867C14.6194 11.9875 14.9059 12.0015 15.1916 12.0296C15.4772 12.0577 15.7613 12.0999 16.0431 12.1553C16.3249 12.2115 16.6035 12.2809 16.8783 12.3637C17.153 12.4464 17.4239 12.5424 17.6893 12.6525C17.9546 12.7617 18.2146 12.8835 18.4682 13.0185C18.7219 13.1528 18.9686 13.2995 19.2082 13.4588C19.4478 13.6172 19.6788 13.7874 19.9021 13.9685C20.1245 14.1503 20.3384 14.3416 20.5421 14.5437C20.7466 14.7459 20.9402 14.9582 21.1236 15.1791C21.3078 15.4 21.4795 15.6294 21.6411 15.8675C21.8019 16.1056 21.9518 16.3506 22.0884 16.6028C22.2257 16.8549 22.3506 17.114 22.4622 17.3778C22.5746 17.6424 22.6738 17.9125 22.7588 18.1865C22.8447 18.4604 22.9173 18.7383 22.9758 19.0193C23.0344 19.3003 23.0789 19.5836 23.1101 19.8693C23.1413 20.155 23.1577 20.4414 23.1608 20.7287L23.1827 61.9316C23.1835 62.2157 23.1725 62.4998 23.1522 62.7831C23.1312 63.0665 23.1007 63.349 23.0586 63.63C23.0172 63.911 22.9657 64.1904 22.9032 64.4683C22.8416 64.7454 22.769 65.0201 22.687 65.2918C22.6043 65.5642 22.5122 65.8327 22.4099 66.098C22.3085 66.3634 22.1961 66.6241 22.0751 66.8809C21.9533 67.1385 21.823 67.3906 21.6833 67.6373C21.5428 67.8847 21.3945 68.1267 21.236 68.3632C21.0783 68.5997 20.9121 68.8299 20.7373 69.0539C20.5624 69.2779 20.3798 69.4949 20.1893 69.7057C19.9981 69.9164 19.7998 70.1194 19.5946 70.3153C19.3885 70.5112 19.1754 70.6993 18.9561 70.8796C18.7367 71.0599 18.5104 71.2316 18.2778 71.3955C18.046 71.5587 17.8079 71.714 17.5636 71.86C17.3201 72.0059 17.0711 72.1425 16.8174 72.2705C16.5637 72.3977 16.3054 72.5164 16.0423 72.6249C15.7801 72.7334 15.5139 72.8325 15.2438 72.9215C14.9738 73.0105 14.7014 73.0893 14.4251 73.158C14.1495 73.2275 13.8717 73.286 13.5915 73.3344C13.3112 73.3828 13.0303 73.4202 12.7469 73.4483C12.4644 73.4757 12.1802 73.4928 11.8961 73.4999C11.612 73.5069 11.3279 73.503 11.0438 73.4889C10.7605 73.4749 10.4771 73.4499 10.1946 73.4148C9.9128 73.3804 9.6318 73.3344 9.35315 73.279C9.0745 73.2236 8.79819 73.1572 8.52422 73.0815C8.25026 73.0058 7.97941 72.9191 7.71169 72.8231C7.44396 72.7271 7.18014 72.6218 6.92022 72.5062C6.66031 72.3907 6.40507 72.2658 6.15374 72.1316C5.90319 71.9973 5.65732 71.8545 5.41769 71.7023C5.17729 71.5493 4.94313 71.3885 4.71443 71.2191C4.48652 71.0498 4.26406 70.8718 4.04942 70.686C3.83399 70.5003 3.62559 70.3067 3.42421 70.1053V70.103Z" fill="#5D6AB1"/>
</svg>
