<svg width="321" height="500" viewBox="0 0 321 500" fill="none" xmlns="http://www.w3.org/2000/svg">
<path d="M427.252 96.6686C409.838 94.3682 390.37 95.1904 369.371 99.1075C346.722 103.332 322.514 111.142 297.426 122.314C285.7 97.4783 272.446 75.7733 258.04 57.788C244.679 41.1257 230.457 27.7923 215.765 18.1765C208.82 13.6277 201.759 9.92163 194.78 7.14761C187.982 4.44827 181.169 2.60834 174.549 1.67299C168.05 0.756564 161.665 0.710108 155.569 1.52778C149.532 2.33576 143.733 4.00229 138.334 6.48447C132.93 8.96264 127.882 12.269 123.332 16.3125C118.736 20.3988 114.607 25.2688 111.06 30.7907C107.443 36.4154 104.404 42.7753 102.012 49.6956C99.5564 56.8001 97.7593 64.5668 96.6772 72.7934C94.3793 90.2088 95.1994 109.675 99.1192 130.675C103.342 153.323 111.152 177.53 122.325 202.618C97.4886 214.344 75.7835 227.598 57.8004 242.004C41.1176 255.371 27.7856 269.595 18.1676 284.285C13.6188 291.231 9.91358 298.289 7.14192 305.268C4.44697 312.076 2.60044 318.879 1.67123 325.504C0.75717 332.003 0.710764 338.388 1.52623 344.483C2.33428 350.52 4.00323 356.32 6.4832 361.718C8.96377 367.123 12.2702 372.171 16.3115 376.72C20.3988 381.314 25.2681 385.445 30.79 388.992C36.4157 392.607 42.7749 395.648 49.6976 398.041C56.7939 400.491 64.5691 402.294 72.7935 403.375C90.2022 405.671 109.678 404.846 130.676 400.934C153.325 396.709 177.533 388.9 202.623 377.728C214.347 402.563 227.6 424.27 242.006 442.253C255.365 458.925 269.59 472.249 284.281 481.867C291.226 486.416 298.288 490.12 305.266 492.894C312.065 495.593 318.871 497.43 325.497 498.371C331.996 499.285 338.381 499.331 344.477 498.516C350.507 497.705 356.313 496.039 361.712 493.559C367.119 491.08 372.165 487.772 376.714 483.731C381.31 479.645 385.441 474.776 388.986 469.253C392.604 463.626 395.645 457.267 398.037 450.347C400.488 443.248 402.287 435.475 403.369 427.25C405.666 409.843 404.847 390.366 400.929 369.369C396.704 346.721 388.894 322.513 377.722 297.423C402.557 285.699 424.263 272.444 442.249 258.039C458.91 244.68 472.244 230.459 481.86 215.765C486.409 208.819 490.114 201.761 492.888 194.783C493.159 194.089 493.432 193.394 493.689 192.704C495.954 186.599 497.523 180.503 498.363 174.549C499.279 168.053 499.326 161.666 498.508 155.572C497.698 149.54 496.034 143.734 493.551 138.337C491.073 132.931 487.764 127.884 483.722 123.335C479.636 118.738 474.767 114.608 469.245 111.061C463.619 107.446 457.26 104.405 450.339 102.012C443.253 99.5505 435.481 97.7594 427.252 96.6686Z" fill="#5D6AB1" fill-opacity="0.3"/>
</svg>
