<svg width="74" height="74" viewBox="0 0 74 74" fill="none" xmlns="http://www.w3.org/2000/svg">
<path d="M57.0172 0.5436C53.9779 1.23619 50.7899 2.57502 47.5381 4.52338C44.0309 6.62476 40.4857 9.41874 37.0016 12.8266C33.5172 9.41874 29.972 6.62607 26.4648 4.52338C23.213 2.57634 20.0237 1.23619 16.9857 0.5436C15.5493 0.215668 14.1457 0.035085 12.8134 0.00447815C11.5157 -0.0248171 10.2686 0.0897406 9.10947 0.342904C7.97174 0.591695 6.9066 0.97822 5.9429 1.49067C4.98838 1.99787 4.12656 2.63318 3.38149 3.37955C2.63554 4.12548 1.99978 4.98729 1.49257 5.94092C0.980113 6.9046 0.594021 7.96972 0.344788 9.10742C0.090309 10.2666 -0.0225016 11.5123 0.00679417 12.8113C0.0369644 14.1449 0.217549 15.548 0.545486 16.9835C1.23853 20.0227 2.57695 23.2107 4.52577 26.4624C6.62676 29.9696 9.42079 33.5147 12.8287 36.9987C9.42079 40.4831 6.62807 44.0282 4.52577 47.5353C2.57564 50.7893 1.2359 53.979 0.542863 57.0169C0.214925 58.4533 0.034341 59.8564 0.00417067 61.1887C-0.0238133 62.4877 0.0889972 63.7334 0.343477 64.893C0.592709 66.0307 0.979238 67.0958 1.49126 68.0595C1.99847 69.014 2.63423 69.8758 3.38018 70.6208C4.12656 71.3668 4.98838 72.0025 5.94159 72.5097C6.90529 73.0217 7.97043 73.4083 9.10815 73.6575C10.2673 73.9115 11.513 74.0248 12.8125 73.9955C14.1444 73.9649 15.5493 73.7847 16.9843 73.4568C20.0224 72.7638 23.2117 71.4241 26.4635 69.4766C29.9707 67.3752 33.5159 64.5812 37.0003 61.1734C40.4843 64.5812 44.0296 67.3743 47.5368 69.4766C50.7886 71.4254 53.9779 72.7638 57.0159 73.4568C58.4523 73.7847 59.8558 73.9649 61.1881 73.9955C62.4859 74.0248 63.7316 73.9102 64.8921 73.6575C66.0298 73.4083 67.0949 73.0217 68.0586 72.5097C69.0118 72.0025 69.875 71.3668 70.6201 70.6208C71.3664 69.8745 72.0018 69.0127 72.509 68.0595C73.0214 67.0958 73.408 66.0307 73.6568 64.893C73.9112 63.7334 74.0245 62.4877 73.9952 61.1887C73.9646 59.8564 73.784 58.452 73.4561 57.0169C72.7635 53.979 71.4246 50.7893 69.4762 47.538C67.3748 44.0308 64.5808 40.4857 61.1728 37.0013C64.5808 33.5173 67.3735 29.9717 69.4762 26.4646C71.4233 23.2133 72.7635 20.0241 73.4561 16.9857C73.784 15.5493 73.9646 14.1462 73.9952 12.8139C73.9974 12.6819 74 12.5494 74 12.4187C74 11.263 73.8846 10.152 73.6568 9.10961C73.408 7.97234 73.0214 6.90678 72.509 5.94354C72.0018 4.98991 71.3664 4.1268 70.6201 3.38218C69.8741 2.6358 69.0118 2.00049 68.0586 1.49329C67.0949 0.980841 66.0298 0.59432 64.8921 0.345092C63.7329 0.0910539 62.4872 -0.0221904 61.1881 0.00710471C59.8571 0.0350882 58.4536 0.21698 57.0172 0.5436Z" fill="#5D6AB1"/>
</svg>
