<svg width="500" height="500" viewBox="0 0 500 500" fill="none" xmlns="http://www.w3.org/2000/svg">
<path d="M385.251 3.67296C364.715 8.35264 343.175 17.3988 321.203 30.5633C297.506 44.7619 273.552 63.6401 250.011 86.6663C226.468 63.6401 202.513 44.7708 178.816 30.5633C156.844 17.4077 135.295 8.35264 114.768 3.67296C105.063 1.45721 95.5791 0.23705 86.5771 0.030247C77.8085 -0.167694 69.3825 0.606345 61.5505 2.31691C53.8631 3.99793 46.6662 6.60958 40.1547 10.0721C33.7053 13.4991 27.8822 17.7917 22.8479 22.8348C17.8077 27.8749 13.512 33.6979 10.0849 40.1413C6.62238 46.6527 4.01366 53.8494 2.32965 61.5366C0.610196 69.3686 -0.152038 77.7855 0.0459066 86.5628C0.249759 95.5736 1.46992 105.054 3.68572 114.753C8.36843 135.289 17.4118 156.829 30.5796 178.8C44.7754 202.497 63.654 226.451 86.6805 249.991C63.654 273.534 44.7843 297.488 30.5796 321.185C17.403 343.171 8.3507 364.723 3.66799 385.25C1.4522 394.955 0.232034 404.435 0.0281802 413.437C-0.160901 422.214 0.601333 430.631 2.32079 438.466C4.00479 446.153 6.61648 453.35 10.0761 459.861C13.5032 466.311 17.7989 472.134 22.839 477.168C27.8822 482.208 33.7053 486.504 40.1459 489.931C46.6574 493.39 53.8543 496.002 61.5416 497.686C69.3737 499.402 77.7908 500.167 86.5712 499.969C95.5703 499.763 105.063 498.545 114.759 496.33C135.286 491.647 156.836 482.595 178.807 469.436C202.505 455.238 226.459 436.36 250.002 413.333C273.543 436.36 297.497 455.232 321.194 469.436C343.166 482.604 364.715 491.647 385.243 496.33C394.948 498.545 404.431 499.763 413.433 499.969C422.202 500.167 430.619 499.393 438.46 497.686C446.147 496.002 453.344 493.39 459.856 489.931C466.296 486.504 472.128 482.208 477.163 477.168C482.206 472.125 486.498 466.302 489.926 459.861C493.388 453.35 496 446.153 497.681 438.466C499.4 430.631 500.165 422.214 499.968 413.437C499.761 404.435 498.541 394.946 496.325 385.25C491.645 364.723 482.599 343.171 469.434 321.202C455.235 297.506 436.356 273.552 413.33 250.009C436.356 226.469 455.226 202.512 469.434 178.815C482.59 156.847 491.645 135.298 496.325 114.768C498.541 105.063 499.761 95.5825 499.968 86.5806C499.982 85.6884 500 84.7932 500 83.9099C500 76.1015 499.22 68.5946 497.681 61.5514C496 53.8672 493.388 46.6674 489.926 40.159C486.498 33.7156 482.206 27.8838 477.163 22.8525C472.122 17.8095 466.296 13.5168 459.856 10.0898C453.344 6.62729 446.147 4.01566 438.46 2.33169C430.628 0.615218 422.211 -0.149946 413.433 0.047994C404.44 0.237072 394.957 1.46607 385.251 3.67296Z" fill="#5D6AB1"/>
</svg>
