<svg width="218" height="258" viewBox="0 0 218 258" fill="none" xmlns="http://www.w3.org/2000/svg">
<path d="M31.68 28.9158C28.9245 37.0986 27.4812 46.5665 27.3859 57.0661C27.2833 68.3902 28.7622 80.8051 31.7802 93.9625C18.6921 97.2715 6.9699 101.613 -3.06697 106.862C-12.367 111.732 -20.1426 117.332 -26.1694 123.51C-29.02 126.43 -31.475 129.486 -33.4726 132.59C-35.4172 135.614 -36.9486 138.726 -38.0255 141.831C-39.0817 144.879 -39.7076 147.955 -39.8893 150.972C-40.0702 153.961 -39.8144 156.915 -39.1274 159.755C-38.4427 162.595 -37.325 165.343 -35.8046 167.92C-34.268 170.523 -32.309 172.975 -29.9808 175.208C-27.6096 177.484 -24.829 179.551 -21.717 181.359C-18.5222 183.215 -14.9457 184.816 -11.0798 186.115C-2.89652 188.869 6.57069 190.314 17.0708 190.408C28.3942 190.511 40.809 189.032 53.9663 186.014C57.2751 199.102 61.6165 210.824 66.8658 220.86C71.7367 230.17 77.3379 237.946 83.515 243.973C86.4352 246.824 89.4897 249.278 92.5943 251.275C95.6235 253.218 98.7301 254.752 101.838 255.826C104.886 256.881 107.962 257.507 110.979 257.69C113.967 257.871 116.923 257.614 119.761 256.928C122.602 256.242 125.35 255.124 127.926 253.605C130.529 252.068 132.981 250.109 135.214 247.781C137.49 245.409 139.557 242.629 141.366 239.516C143.218 236.325 144.823 232.744 146.122 228.88C148.874 220.699 150.317 211.227 150.415 200.729C150.517 189.405 149.039 176.99 146.021 163.831C159.109 160.523 170.832 156.182 180.868 150.933C190.172 146.065 197.943 140.463 203.971 134.285C206.822 131.365 209.276 128.309 211.273 125.205C213.218 122.181 214.747 119.072 215.827 115.964C216.882 112.916 217.508 109.84 217.691 106.823C217.87 103.838 217.615 100.879 216.929 98.0408C216.244 95.1985 215.126 92.4518 213.606 89.8758C212.07 87.2723 210.111 84.8197 207.783 82.5877C205.41 80.3107 202.63 78.243 199.518 76.4349C196.326 74.582 192.746 72.9792 188.882 71.6804C180.702 68.9268 171.23 67.4811 160.732 67.3867C149.408 67.2842 136.993 68.7634 123.834 71.781C120.527 58.6935 116.184 46.9706 110.936 36.9337C106.066 27.6343 100.467 19.8587 94.2881 13.8313C91.368 10.9808 88.3134 8.52644 85.2095 6.52885C84.9006 6.33286 84.5913 6.13522 84.2824 5.94629C81.5517 4.27629 78.7595 2.94349 75.9671 1.97546C72.9203 0.919894 69.8438 0.29343 66.8271 0.112376C63.8407 -0.0671699 60.8831 0.186821 58.0449 0.87447C55.2033 1.55856 52.456 2.67797 49.88 4.19743C47.2765 5.7341 44.8239 7.69245 42.5909 10.0207C40.3155 12.3927 38.2477 15.1727 36.4397 18.2847C34.5824 21.4702 32.9839 25.0497 31.68 28.9158Z" fill="#5D6AB1" fill-opacity="0.3"/>
</svg>
