<svg width="905" height="904" viewBox="0 0 905 904" fill="none" xmlns="http://www.w3.org/2000/svg">
<path d="M447.65 769.818H445.008V754.222C445.008 752.83 445.264 751.647 445.775 750.674C446.287 749.701 447.007 748.962 447.938 748.458C448.868 747.954 449.966 747.702 451.23 747.702C452.423 747.702 453.485 747.918 454.415 748.352C455.346 748.792 456.077 749.417 456.61 750.227C457.142 751.036 457.409 751.999 457.409 753.114H454.809C454.809 752.496 454.657 751.956 454.351 751.494C454.039 751.04 453.613 750.685 453.073 750.429C452.533 750.173 451.919 750.045 451.23 750.045C450.47 750.045 449.824 750.205 449.291 750.525C448.758 750.844 448.353 751.313 448.076 751.931C447.792 752.556 447.65 753.32 447.65 754.222V769.818Z" fill="white"/>
<path d="M436.8 746.877L435.174 768.634L422.043 767.648L422.218 765.31L432.714 766.099L433.263 758.747L423.447 758.01L423.622 755.673L433.438 756.41L433.991 749.016L423.325 748.215L423.5 745.877L436.8 746.877Z" fill="white"/>
<path d="M409.31 753.295L409.113 754.602C407.941 754.425 407.086 754.547 406.548 754.968C406.004 755.389 405.645 756.175 405.472 757.327L404.965 760.698C404.819 761.667 404.602 762.493 404.313 763.175C404.016 763.855 403.623 764.396 403.132 764.795C402.641 765.195 402.027 765.455 401.291 765.573C400.555 765.692 399.671 765.673 398.639 765.517L398.949 763.452C399.764 763.575 400.425 763.546 400.934 763.364C401.435 763.181 401.824 762.838 402.101 762.334C402.37 761.836 402.566 761.176 402.69 760.354L403.323 756.14C403.406 755.592 403.554 755.105 403.769 754.678C403.977 754.249 404.299 753.903 404.734 753.638C405.168 753.373 405.757 753.207 406.5 753.14C407.236 753.072 408.172 753.123 409.31 753.295ZM402.693 738.547C403.725 738.703 404.576 738.947 405.244 739.278C405.913 739.609 406.423 740.038 406.774 740.565C407.126 741.092 407.343 741.725 407.426 742.463C407.502 743.2 407.467 744.053 407.322 745.022L406.815 748.393C406.642 749.545 406.753 750.402 407.15 750.965C407.54 751.527 408.321 751.896 409.494 752.073L409.297 753.38C408.159 753.208 407.249 752.98 406.566 752.698C405.876 752.414 405.363 752.081 405.025 751.7C404.687 751.318 404.482 750.892 404.409 750.422C404.329 749.95 404.33 749.44 404.413 748.892L405.046 744.678C405.17 743.856 405.176 743.168 405.066 742.612C404.949 742.056 404.677 741.616 404.252 741.293C403.82 740.962 403.197 740.735 402.383 740.612L402.693 738.547ZM409.494 752.073L409.113 754.602L406.627 754.226L407.008 751.698L409.494 752.073Z" fill="white"/>
<path d="M378.524 747.36L378.817 746.072C379.974 746.337 380.839 746.28 381.413 745.901C381.98 745.521 382.393 744.763 382.652 743.627L383.408 740.303C383.626 739.347 383.908 738.541 384.254 737.885C384.593 737.226 385.023 736.716 385.542 736.354C386.061 735.992 386.693 735.78 387.435 735.716C388.178 735.653 389.058 735.738 390.076 735.971L389.613 738.007C388.81 737.823 388.15 737.807 387.635 737.959C387.114 738.102 386.702 738.412 386.396 738.888C386.084 739.363 385.836 740.006 385.652 740.816L384.706 744.971C384.583 745.512 384.402 745.987 384.162 746.399C383.916 746.809 383.566 747.13 383.113 747.361C382.66 747.592 382.064 747.715 381.325 747.728C380.579 747.739 379.646 747.617 378.524 747.36ZM384.022 762.563C383.005 762.331 382.175 762.024 381.533 761.644C380.891 761.264 380.414 760.798 380.103 760.246C379.792 759.694 379.626 759.047 379.605 758.307C379.577 757.564 379.672 756.716 379.89 755.76L380.646 752.436C380.905 751.3 380.861 750.438 380.514 749.848C380.161 749.257 379.406 748.83 378.25 748.565L378.543 747.277C379.665 747.534 380.559 747.829 381.226 748.164C381.885 748.497 382.369 748.867 382.678 749.272C382.986 749.678 383.162 750.119 383.207 750.596C383.244 751.07 383.202 751.578 383.079 752.118L382.133 756.273C381.948 757.083 381.894 757.77 381.97 758.334C382.037 758.903 382.274 759.365 382.681 759.721C383.081 760.075 383.683 760.344 384.486 760.527L384.022 762.563ZM378.25 748.565L378.817 746.072L381.268 746.633L380.701 749.126L378.25 748.565Z" fill="white"/>
<path d="M348.892 751.715L355.308 730.861L357.75 731.617L364.071 751.503L364.275 751.566L369.312 735.193L371.836 735.973L365.421 756.827L362.978 756.071L356.629 736.132L356.425 736.069L351.375 752.483L348.892 751.715Z" fill="white"/>
<path d="M322.94 741.269L320.1 739.898L321.264 720.349L321.034 720.238L306.515 733.339L303.676 731.968L313.122 712.301L315.348 713.376L308.171 728.318L308.363 728.411L321.68 716.433L323.829 717.47L322.791 735.377L322.983 735.47L330.161 720.528L332.386 721.602L322.94 741.269Z" fill="white"/>
<path d="M293.295 725.839L304.182 706.932L306.469 708.256L295.581 727.163L293.295 725.839Z" fill="white"/>
<path d="M265.432 707.718L277.7 689.676L279.811 691.119L279.994 711.994L280.169 712.115L289.802 697.949L291.983 699.44L279.715 717.482L277.604 716.039L277.41 695.104L277.235 694.984L267.578 709.185L265.432 707.718Z" fill="white"/>
<path d="M258.721 687.952L260.18 686.118L267.636 692.079L266.177 693.913L258.721 687.952Z" fill="white"/>
<path d="M255.528 671.247L257.556 673.134L236.871 683.69L234.875 681.833L243.828 660.363L245.856 662.249L238.155 680.17L238.28 680.286L255.528 671.247ZM248.991 676.806L240.816 669.201L242.408 667.481L250.583 675.086L248.991 676.806Z" fill="white"/>
<path d="M215.115 638.92C215.442 639.331 215.576 639.802 215.516 640.332C215.456 640.861 215.221 641.29 214.811 641.618C214.4 641.947 213.931 642.081 213.402 642.021C212.874 641.962 212.446 641.726 212.119 641.315C211.792 640.904 211.658 640.433 211.718 639.904C211.778 639.374 212.013 638.945 212.423 638.617C212.695 638.4 213 638.269 213.338 638.227C213.671 638.178 213.998 638.212 214.318 638.329C214.628 638.445 214.894 638.642 215.115 638.92Z" fill="white"/>
<path d="M176.324 605.976L175.005 603.686L188.504 595.872C189.708 595.175 190.859 594.804 191.957 594.76C193.054 594.716 194.053 594.97 194.954 595.524C195.854 596.077 196.62 596.902 197.251 597.998C197.846 599.032 198.189 600.06 198.278 601.084C198.361 602.11 198.185 603.058 197.751 603.925C197.316 604.792 196.616 605.505 195.651 606.064L194.353 603.811C194.888 603.501 195.279 603.099 195.526 602.603C195.764 602.104 195.858 601.557 195.81 600.961C195.762 600.365 195.566 599.769 195.223 599.172C194.843 598.513 194.383 598.033 193.84 597.732C193.298 597.43 192.69 597.314 192.017 597.384C191.334 597.451 190.603 597.71 189.822 598.162L176.324 605.976Z" fill="white"/>
<path d="M190.233 585.653L170.585 595.14L164.884 583.27L166.994 582.251L171.552 591.739L178.19 588.534L173.928 579.66L176.039 578.641L180.301 587.515L186.978 584.291L182.347 574.649L184.458 573.63L190.233 585.653Z" fill="white"/>
<path d="M170.951 565.02L169.722 565.504C169.289 564.4 168.756 563.72 168.123 563.466C167.487 563.205 166.627 563.287 165.543 563.714L162.371 564.962C161.458 565.321 160.635 565.546 159.9 565.637C159.163 565.721 158.498 565.65 157.907 565.425C157.315 565.2 156.784 564.798 156.314 564.22C155.844 563.642 155.418 562.867 155.038 561.894L156.981 561.13C157.281 561.897 157.637 562.455 158.048 562.805C158.457 563.148 158.949 563.313 159.523 563.3C160.089 563.284 160.758 563.124 161.532 562.819L165.497 561.259C166.013 561.056 166.509 560.941 166.986 560.913C167.461 560.879 167.922 560.984 168.368 561.228C168.815 561.472 169.252 561.899 169.682 562.509C170.108 563.112 170.531 563.949 170.951 565.02ZM180.416 551.908C180.797 552.88 181.011 553.739 181.058 554.483C181.105 555.228 180.989 555.884 180.708 556.453C180.427 557.021 179.988 557.526 179.39 557.967C178.79 558.402 178.034 558.799 177.122 559.158L173.949 560.406C172.866 560.832 172.179 561.358 171.89 561.983C171.598 562.602 171.668 563.463 172.101 564.568L170.872 565.052C170.452 563.98 170.194 563.078 170.098 562.345C169.999 561.605 170.031 560.994 170.192 560.511C170.354 560.027 170.62 559.636 170.991 559.337C171.36 559.032 171.802 558.778 172.318 558.575L176.283 557.015C177.056 556.71 177.656 556.372 178.082 555.998C178.505 555.618 178.75 555.163 178.817 554.632C178.888 554.093 178.773 553.44 178.473 552.673L180.416 551.908ZM172.101 564.568L169.722 565.504L168.805 563.163L171.184 562.227L172.101 564.568Z" fill="white"/>
<path d="M160.706 535.361L161.968 534.971C162.316 536.104 162.798 536.825 163.413 537.133C164.026 537.434 164.889 537.413 166.002 537.069L169.258 536.061C170.195 535.772 171.034 535.613 171.776 535.584C172.515 535.548 173.171 535.665 173.745 535.934C174.318 536.203 174.817 536.643 175.243 537.255C175.669 537.866 176.036 538.671 176.343 539.669L174.348 540.286C174.106 539.499 173.79 538.92 173.401 538.549C173.017 538.17 172.542 537.967 171.977 537.941C171.41 537.909 170.729 538.015 169.935 538.261L165.864 539.52C165.335 539.683 164.832 539.765 164.356 539.763C163.878 539.755 163.425 539.612 162.998 539.335C162.571 539.059 162.168 538.604 161.787 537.97C161.404 537.331 161.044 536.461 160.706 535.361ZM150.288 547.727C149.981 546.729 149.831 545.857 149.839 545.111C149.848 544.365 150.013 543.719 150.336 543.174C150.658 542.628 151.135 542.161 151.766 541.772C152.395 541.377 153.178 541.035 154.114 540.745L157.371 539.738C158.484 539.394 159.209 538.924 159.546 538.329C159.881 537.727 159.874 536.86 159.525 535.726L160.787 535.336C161.125 536.436 161.316 537.358 161.36 538.103C161.401 538.841 161.323 539.445 161.126 539.915C160.928 540.384 160.635 540.758 160.244 541.035C159.852 541.305 159.391 541.522 158.862 541.685L154.791 542.944C153.997 543.19 153.375 543.486 152.924 543.834C152.465 544.177 152.183 544.613 152.079 545.144C151.972 545.667 152.04 546.323 152.282 547.11L150.288 547.727ZM159.525 535.726L161.968 534.971L162.707 537.374L160.264 538.129L159.525 535.726Z" fill="white"/>
<path d="M142.108 511.848L163.376 506.981L163.944 509.474L149.884 524.888L149.931 525.096L166.63 521.274L167.217 523.85L145.948 528.717L145.381 526.224L159.473 510.759L159.426 510.551L142.685 514.382L142.108 511.848Z" fill="white"/>
<path d="M138.135 484.095L137.9 480.95L155.408 472.199L155.389 471.944L136.776 465.907L136.541 462.763L158.298 461.128L158.482 463.593L141.952 464.835L141.968 465.047L159.006 470.604L159.184 472.984L143.162 481.025L143.178 481.238L159.708 479.996L159.892 482.46L138.135 484.095Z" fill="white"/>
<path d="M136.182 450.686H158V453.328H136.182V450.686Z" fill="white"/>
<path d="M138.318 417.463L160.075 419.097L159.884 421.647L141.916 432.22L141.9 432.432L158.982 433.716L158.785 436.35L137.029 434.716L137.219 432.166L155.234 421.554L155.249 421.341L138.124 420.055L138.318 417.463Z" fill="white"/>
<path d="M152.021 401.761L154.338 402.111L152.919 411.551L150.601 411.201L152.021 401.761Z" fill="white"/>
<path d="M164.83 390.631L164.216 393.332L144.725 380.653L145.331 377.994L168.377 375.05L167.763 377.75L148.412 380.011L148.374 380.177L164.83 390.631ZM156.749 387.733L159.228 376.846L161.512 377.369L159.034 388.255L156.749 387.733Z" fill="white"/>
<path d="M172.443 339.378C172.251 339.867 171.911 340.218 171.424 340.431C170.936 340.644 170.448 340.654 169.959 340.461C169.47 340.269 169.119 339.929 168.906 339.44C168.693 338.952 168.682 338.463 168.874 337.974C169.065 337.484 169.405 337.133 169.892 336.92C170.38 336.708 170.868 336.698 171.357 336.89C171.681 337.018 171.946 337.217 172.152 337.489C172.361 337.755 172.495 338.055 172.554 338.391C172.609 338.718 172.572 339.047 172.443 339.378Z" fill="white"/>
<path d="M181.413 289.187L182.732 286.898L196.23 294.711C197.435 295.409 198.33 296.223 198.917 297.153C199.504 298.084 199.784 299.079 199.756 300.138C199.728 301.196 199.399 302.274 198.768 303.369C198.172 304.403 197.455 305.215 196.616 305.804C195.77 306.39 194.864 306.711 193.898 306.767C192.931 306.823 191.966 306.571 191.001 306.013L192.298 303.76C192.832 304.07 193.376 304.208 193.928 304.174C194.477 304.131 194.997 303.94 195.488 303.6C195.978 303.26 196.396 302.792 196.739 302.195C197.119 301.536 197.303 300.896 197.292 300.275C197.281 299.653 197.078 299.067 196.681 298.518C196.282 297.958 195.692 297.453 194.911 297.001L181.413 289.187Z" fill="white"/>
<path d="M205.877 291.074L187.865 278.762L195.269 267.873L197.204 269.196L191.285 277.9L197.371 282.06L202.907 273.92L204.841 275.243L199.306 283.383L205.427 287.567L211.442 278.722L213.377 280.045L205.877 291.074Z" fill="white"/>
<path d="M214.025 263.985L212.993 263.16C213.731 262.232 214.052 261.429 213.956 260.752C213.864 260.069 213.363 259.364 212.453 258.637L209.79 256.508C209.025 255.896 208.42 255.293 207.974 254.701C207.533 254.103 207.262 253.491 207.162 252.865C207.061 252.238 207.143 251.576 207.407 250.879C207.672 250.181 208.129 249.423 208.779 248.606L210.41 249.91C209.897 250.555 209.592 251.143 209.496 251.675C209.404 252.202 209.507 252.712 209.804 253.204C210.101 253.687 210.574 254.188 211.223 254.707L214.551 257.368C214.984 257.714 215.331 258.087 215.593 258.488C215.86 258.883 215.999 259.335 216.011 259.845C216.023 260.355 215.873 260.948 215.561 261.626C215.253 262.299 214.741 263.085 214.025 263.985ZM230.08 265.638C229.43 266.455 228.795 267.07 228.176 267.484C227.556 267.898 226.931 268.125 226.299 268.166C225.668 268.207 225.012 268.078 224.333 267.781C223.658 267.477 222.937 267.019 222.172 266.407L219.509 264.278C218.599 263.551 217.802 263.218 217.118 263.28C216.438 263.337 215.728 263.829 214.99 264.757L213.958 263.932C214.674 263.032 215.325 262.356 215.91 261.906C216.5 261.45 217.044 261.171 217.542 261.069C218.041 260.967 218.512 261.003 218.955 261.176C219.403 261.343 219.843 261.599 220.276 261.945L223.604 264.606C224.253 265.125 224.845 265.476 225.381 265.659C225.921 265.836 226.436 265.82 226.928 265.613C227.429 265.405 227.936 264.978 228.449 264.334L230.08 265.638ZM214.99 264.757L212.993 263.16L214.558 261.193L216.555 262.789L214.99 264.757Z" fill="white"/>
<path d="M234.497 240.218L235.464 241.118C234.659 241.988 234.276 242.768 234.317 243.455C234.363 244.138 234.812 244.876 235.665 245.669L238.161 247.991C238.878 248.659 239.435 249.307 239.83 249.937C240.229 250.561 240.456 251.189 240.51 251.821C240.564 252.453 240.433 253.107 240.117 253.783C239.801 254.459 239.288 255.18 238.579 255.947L237.05 254.524C237.61 253.92 237.952 253.356 238.078 252.833C238.214 252.309 238.153 251.796 237.893 251.292C237.638 250.784 237.206 250.246 236.598 249.68L233.478 246.778C233.072 246.4 232.751 246.005 232.515 245.591C232.283 245.172 232.181 244.708 232.207 244.199C232.233 243.689 232.425 243.111 232.782 242.464C233.144 241.811 233.716 241.062 234.497 240.218ZM218.611 237.37C219.32 236.604 219.999 236.038 220.648 235.671C221.296 235.305 221.937 235.125 222.57 235.132C223.202 235.138 223.844 235.318 224.495 235.671C225.15 236.019 225.837 236.526 226.554 237.194L229.05 239.516C229.903 240.309 230.671 240.703 231.353 240.698C232.04 240.687 232.787 240.247 233.592 239.376L234.56 240.276C233.778 241.121 233.076 241.748 232.454 242.159C231.837 242.564 231.276 242.799 230.772 242.863C230.267 242.928 229.798 242.86 229.364 242.659C228.934 242.454 228.517 242.163 228.111 241.785L224.991 238.883C224.383 238.317 223.816 237.925 223.291 237.709C222.766 237.482 222.248 237.456 221.737 237.631C221.232 237.801 220.699 238.188 220.14 238.793L218.611 237.37ZM233.592 239.376L235.464 241.118L233.757 242.963L231.885 241.222L233.592 239.376Z" fill="white"/>
<path d="M245.502 212.283L260.321 228.296L258.449 230.037L238.109 225.563L237.953 225.708L249.588 238.281L247.654 240.08L232.834 224.067L234.706 222.326L255.107 226.803L255.263 226.657L243.599 214.053L245.502 212.283Z" fill="white"/>
<path d="M267.447 194.905L270.05 193.125L286.355 203.917L286.567 203.773L282.504 184.612L285.107 182.833L297.376 200.875L295.335 202.269L286.014 188.562L285.838 188.682L289.531 206.237L287.561 207.584L272.611 197.724L272.435 197.844L281.756 211.552L279.716 212.947L267.447 194.905Z" fill="white"/>
<path d="M295.57 176.845L306.457 195.752L304.171 197.076L293.283 178.168L295.57 176.845Z" fill="white"/>
<path d="M325.136 161.67L334.583 181.337L332.28 182.449L314.157 172.177L313.965 172.269L321.382 187.711L319.003 188.86L309.556 169.193L311.859 168.081L330.039 178.373L330.231 178.281L322.795 162.801L325.136 161.67Z" fill="white"/>
<path d="M345.549 165.676L346.404 167.859L337.521 171.354L336.667 169.172L345.549 165.676Z" fill="white"/>
<path d="M361.557 171.205L358.911 172.024L360.149 148.803L362.754 147.997L376.824 166.484L374.177 167.302L362.548 151.674L362.385 151.724L361.557 171.205ZM360.028 162.757L370.694 159.458L371.383 161.698L360.717 164.997L360.028 162.757Z" fill="white"/>
<path d="M409.703 152.196C409.184 152.274 408.71 152.156 408.282 151.84C407.853 151.524 407.6 151.106 407.522 150.586C407.444 150.066 407.563 149.592 407.879 149.164C408.196 148.735 408.613 148.482 409.133 148.403C409.653 148.325 410.127 148.444 410.555 148.76C410.983 149.076 411.236 149.493 411.314 150.013C411.366 150.357 411.326 150.687 411.193 151.001C411.068 151.314 410.875 151.581 410.613 151.8C410.358 152.011 410.054 152.143 409.703 152.196Z" fill="white"/>
<path d="M457.35 134.182H459.992V149.778C459.992 151.17 459.736 152.353 459.225 153.326C458.713 154.299 457.993 155.038 457.062 155.542C456.132 156.046 455.034 156.298 453.77 156.298C452.577 156.298 451.515 156.082 450.585 155.648C449.654 155.208 448.923 154.583 448.39 153.773C447.858 152.964 447.591 152.001 447.591 150.886H450.191C450.191 151.504 450.343 152.044 450.649 152.506C450.961 152.96 451.387 153.315 451.927 153.571C452.467 153.827 453.081 153.955 453.77 153.955C454.53 153.955 455.176 153.795 455.709 153.475C456.242 153.156 456.647 152.687 456.924 152.069C457.208 151.444 457.35 150.68 457.35 149.778V134.182Z" fill="white"/>
<path d="M468.2 157.123L469.826 135.366L482.957 136.352L482.782 138.69L472.286 137.901L471.737 145.253L481.553 145.99L481.378 148.327L471.562 147.59L471.009 154.984L481.675 155.785L481.5 158.123L468.2 157.123Z" fill="white"/>
<path d="M495.69 150.705L495.887 149.398C497.059 149.575 497.914 149.453 498.452 149.032C498.996 148.611 499.355 147.825 499.528 146.673L500.035 143.302C500.181 142.333 500.398 141.507 500.687 140.825C500.984 140.145 501.377 139.604 501.868 139.205C502.359 138.805 502.973 138.545 503.709 138.427C504.445 138.308 505.329 138.327 506.361 138.483L506.051 140.548C505.236 140.425 504.575 140.454 504.066 140.636C503.565 140.819 503.176 141.162 502.899 141.666C502.63 142.164 502.434 142.824 502.31 143.646L501.677 147.86C501.594 148.408 501.446 148.895 501.231 149.322C501.023 149.751 500.701 150.097 500.266 150.362C499.832 150.627 499.243 150.793 498.5 150.86C497.764 150.928 496.828 150.877 495.69 150.705ZM502.307 165.453C501.275 165.297 500.424 165.053 499.756 164.722C499.087 164.391 498.577 163.962 498.226 163.435C497.874 162.908 497.657 162.275 497.574 161.537C497.498 160.8 497.533 159.947 497.678 158.978L498.185 155.607C498.358 154.455 498.247 153.598 497.85 153.035C497.46 152.473 496.679 152.104 495.506 151.927L495.703 150.62C496.841 150.792 497.751 151.02 498.434 151.302C499.124 151.586 499.637 151.919 499.975 152.3C500.313 152.682 500.518 153.108 500.591 153.578C500.671 154.05 500.67 154.56 500.587 155.108L499.954 159.322C499.83 160.144 499.824 160.832 499.934 161.388C500.051 161.944 500.323 162.384 500.748 162.707C501.18 163.038 501.803 163.265 502.617 163.388L502.307 165.453ZM495.506 151.927L495.887 149.398L498.373 149.774L497.992 152.302L495.506 151.927Z" fill="white"/>
<path d="M526.476 156.64L526.183 157.928C525.026 157.663 524.161 157.72 523.587 158.099C523.02 158.479 522.607 159.237 522.348 160.373L521.592 163.697C521.374 164.653 521.092 165.459 520.746 166.115C520.407 166.774 519.977 167.284 519.458 167.646C518.939 168.008 518.307 168.22 517.565 168.284C516.822 168.347 515.942 168.262 514.924 168.029L515.387 165.993C516.19 166.177 516.85 166.193 517.365 166.041C517.886 165.898 518.298 165.588 518.604 165.112C518.916 164.637 519.164 163.994 519.348 163.184L520.294 159.029C520.417 158.488 520.598 158.013 520.838 157.601C521.084 157.191 521.434 156.87 521.887 156.639C522.34 156.408 522.936 156.285 523.675 156.272C524.421 156.261 525.354 156.383 526.476 156.64ZM520.978 141.437C521.995 141.669 522.825 141.976 523.467 142.356C524.109 142.736 524.586 143.202 524.897 143.754C525.208 144.306 525.374 144.953 525.395 145.693C525.423 146.436 525.328 147.284 525.11 148.24L524.354 151.564C524.095 152.7 524.139 153.562 524.486 154.152C524.839 154.743 525.594 155.17 526.75 155.435L526.457 156.723C525.335 156.466 524.441 156.171 523.774 155.836C523.115 155.503 522.631 155.133 522.322 154.728C522.014 154.322 521.838 153.881 521.793 153.404C521.756 152.93 521.798 152.422 521.921 151.882L522.867 147.727C523.052 146.917 523.106 146.23 523.03 145.666C522.963 145.097 522.726 144.635 522.319 144.279C521.919 143.925 521.317 143.656 520.514 143.473L520.978 141.437ZM526.75 155.435L526.183 157.928L523.732 157.367L524.299 154.874L526.75 155.435Z" fill="white"/>
<path d="M556.108 152.284L549.693 173.138L547.25 172.382L540.929 152.496L540.725 152.433L535.688 168.806L533.164 168.026L539.58 147.172L542.022 147.928L548.372 167.867L548.575 167.93L553.625 151.516L556.108 152.284Z" fill="white"/>
<path d="M582.061 162.73L584.9 164.101L583.736 183.651L583.967 183.762L598.485 170.661L601.325 172.032L591.878 191.699L589.653 190.624L596.83 175.682L596.638 175.589L583.321 187.567L581.172 186.529L582.209 168.622L582.017 168.53L574.84 183.472L572.614 182.397L582.061 162.73Z" fill="white"/>
<path d="M611.706 178.162L600.818 197.069L598.532 195.746L609.419 176.838L611.706 178.162Z" fill="white"/>
<path d="M639.569 196.282L627.3 214.324L625.189 212.881L625.007 192.006L624.831 191.885L615.198 206.051L613.017 204.56L625.286 186.518L627.397 187.961L627.59 208.896L627.766 209.016L637.423 194.815L639.569 196.282Z" fill="white"/>
<path d="M646.28 216.047L644.821 217.881L637.365 211.92L638.824 210.086L646.28 216.047Z" fill="white"/>
<path d="M649.472 232.754L647.444 230.867L668.129 220.311L670.125 222.169L661.172 243.638L659.144 241.752L666.845 223.831L666.72 223.715L649.472 232.754ZM656.009 227.195L664.184 234.8L662.592 236.52L654.417 228.916L656.009 227.195Z" fill="white"/>
<path d="M689.886 265.079C689.559 264.667 689.425 264.197 689.485 263.667C689.544 263.138 689.779 262.709 690.19 262.38C690.6 262.052 691.07 261.918 691.598 261.977C692.126 262.037 692.554 262.272 692.881 262.684C693.208 263.095 693.342 263.565 693.283 264.095C693.223 264.625 692.988 265.054 692.577 265.382C692.305 265.599 692.001 265.729 691.663 265.772C691.329 265.821 691.002 265.786 690.682 265.669C690.372 265.554 690.107 265.357 689.886 265.079Z" fill="white"/>
<path d="M728.677 298.025L729.995 300.315L716.497 308.129C715.292 308.826 714.141 309.197 713.044 309.241C711.947 309.285 710.948 309.031 710.047 308.477C709.146 307.923 708.38 307.099 707.749 306.003C707.154 304.969 706.812 303.941 706.722 302.917C706.639 301.891 706.815 300.943 707.25 300.076C707.685 299.209 708.385 298.496 709.35 297.937L710.647 300.19C710.112 300.5 709.721 300.902 709.474 301.398C709.237 301.897 709.142 302.444 709.19 303.04C709.238 303.636 709.434 304.232 709.778 304.829C710.157 305.488 710.618 305.968 711.16 306.269C711.703 306.571 712.311 306.687 712.983 306.617C713.666 306.55 714.398 306.291 715.178 305.839L728.677 298.025Z" fill="white"/>
<path d="M714.768 318.348L734.416 308.861L740.117 320.731L738.006 321.75L733.449 312.262L726.81 315.467L731.072 324.341L728.961 325.36L724.699 316.486L718.022 319.71L722.653 329.352L720.543 330.371L714.768 318.348Z" fill="white"/>
<path d="M734.05 338.981L735.279 338.497C735.711 339.601 736.244 340.281 736.878 340.535C737.514 340.796 738.374 340.714 739.458 340.287L742.63 339.039C743.542 338.68 744.365 338.455 745.1 338.364C745.838 338.28 746.502 338.351 747.094 338.576C747.685 338.801 748.216 339.203 748.687 339.781C749.157 340.359 749.582 341.134 749.963 342.107L748.02 342.871C747.72 342.104 747.364 341.546 746.952 341.196C746.544 340.853 746.052 340.688 745.477 340.7C744.911 340.717 744.242 340.877 743.469 341.182L739.503 342.742C738.988 342.945 738.491 343.06 738.014 343.088C737.539 343.122 737.079 343.017 736.632 342.773C736.186 342.529 735.748 342.102 735.319 341.492C734.892 340.889 734.469 340.052 734.05 338.981ZM724.584 352.093C724.204 351.121 723.99 350.262 723.942 349.518C723.895 348.773 724.012 348.117 724.293 347.548C724.573 346.98 725.013 346.475 725.61 346.034C726.21 345.599 726.967 345.202 727.879 344.843L731.051 343.595C732.135 343.169 732.821 342.643 733.111 342.018C733.402 341.399 733.332 340.538 732.9 339.433L734.129 338.949C734.548 340.021 734.806 340.923 734.902 341.656C735.001 342.396 734.97 343.007 734.808 343.49C734.647 343.974 734.38 344.365 734.009 344.664C733.64 344.969 733.198 345.223 732.683 345.426L728.717 346.986C727.944 347.29 727.345 347.629 726.919 348.003C726.496 348.383 726.251 348.838 726.184 349.369C726.112 349.908 726.227 350.561 726.527 351.328L724.584 352.093ZM732.9 339.433L735.279 338.497L736.195 340.838L733.816 341.774L732.9 339.433Z" fill="white"/>
<path d="M744.295 368.64L743.033 369.031C742.684 367.897 742.202 367.176 741.587 366.868C740.974 366.567 740.112 366.589 738.999 366.933L735.742 367.94C734.806 368.23 733.967 368.389 733.225 368.417C732.485 368.453 731.829 368.336 731.256 368.067C730.683 367.798 730.183 367.358 729.757 366.747C729.331 366.135 728.965 365.33 728.658 364.332L730.653 363.715C730.895 364.503 731.21 365.082 731.599 365.452C731.984 365.831 732.458 366.034 733.024 366.06C733.591 366.092 734.272 365.986 735.065 365.741L739.137 364.481C739.666 364.318 740.168 364.237 740.644 364.238C741.123 364.246 741.575 364.389 742.002 364.666C742.429 364.943 742.833 365.398 743.213 366.031C743.596 366.671 743.957 367.541 744.295 368.64ZM754.713 356.274C755.02 357.272 755.169 358.144 755.161 358.89C755.153 359.636 754.987 360.282 754.665 360.828C754.342 361.373 753.866 361.841 753.235 362.229C752.606 362.624 751.823 362.967 750.887 363.256L747.63 364.263C746.517 364.608 745.792 365.077 745.455 365.672C745.12 366.274 745.127 367.141 745.475 368.275L744.213 368.665C743.875 367.566 743.684 366.643 743.641 365.899C743.6 365.16 743.678 364.556 743.875 364.087C744.072 363.617 744.366 363.243 744.756 362.967C745.149 362.696 745.61 362.48 746.139 362.316L750.21 361.057C751.004 360.811 751.626 360.515 752.076 360.167C752.536 359.825 752.817 359.388 752.922 358.858C753.028 358.334 752.96 357.679 752.718 356.891L754.713 356.274ZM745.475 368.275L743.033 369.031L742.293 366.627L744.736 365.872L745.475 368.275Z" fill="white"/>
<path d="M762.892 392.151L741.624 397.018L741.057 394.525L755.117 379.111L755.069 378.903L738.37 382.725L737.784 380.149L759.052 375.282L759.62 377.775L745.528 393.24L745.575 393.448L762.315 389.617L762.892 392.151Z" fill="white"/>
<path d="M766.865 419.905L767.1 423.05L749.592 431.801L749.611 432.056L768.224 438.093L768.459 441.237L746.702 442.872L746.518 440.407L763.048 439.165L763.032 438.953L745.994 433.396L745.816 431.016L761.838 422.975L761.822 422.762L745.292 424.004L745.108 421.54L766.865 419.905Z" fill="white"/>
<path d="M768.818 453.314H747V450.672H768.818V453.314Z" fill="white"/>
<path d="M766.682 486.537L744.925 484.903L745.116 482.353L763.085 471.78L763.101 471.568L746.018 470.284L746.215 467.65L767.972 469.284L767.781 471.834L749.767 482.446L749.751 482.659L766.876 483.945L766.682 486.537Z" fill="white"/>
<path d="M752.979 502.24L750.662 501.889L752.081 492.45L754.399 492.8L752.979 502.24Z" fill="white"/>
<path d="M740.17 513.369L740.785 510.668L760.275 523.347L759.67 526.006L736.623 528.95L737.238 526.25L756.589 523.989L756.627 523.823L740.17 513.369ZM748.251 516.267L745.773 527.154L743.488 526.631L745.966 515.745L748.251 516.267Z" fill="white"/>
<path d="M732.557 564.623C732.749 564.134 733.089 563.783 733.576 563.57C734.064 563.357 734.552 563.347 735.041 563.54C735.53 563.732 735.881 564.073 736.094 564.561C736.307 565.049 736.318 565.538 736.126 566.028C735.935 566.517 735.595 566.868 735.108 567.081C734.62 567.293 734.132 567.304 733.643 567.111C733.319 566.984 733.054 566.784 732.848 566.512C732.639 566.247 732.505 565.946 732.446 565.61C732.391 565.283 732.428 564.954 732.557 564.623Z" fill="white"/>
<path d="M723.587 614.814L722.269 617.103L708.771 609.29C707.566 608.592 706.67 607.778 706.083 606.848C705.496 605.917 705.217 604.922 705.245 603.863C705.272 602.805 705.602 601.727 706.233 600.632C706.828 599.598 707.545 598.786 708.385 598.197C709.23 597.611 710.136 597.29 711.103 597.234C712.069 597.178 713.035 597.43 714 597.988L712.703 600.241C712.168 599.931 711.625 599.793 711.073 599.827C710.523 599.87 710.003 600.061 709.513 600.401C709.022 600.741 708.605 601.209 708.261 601.806C707.882 602.464 707.698 603.105 707.708 603.726C707.719 604.348 707.923 604.934 708.319 605.483C708.719 606.043 709.309 606.548 710.089 607L723.587 614.814Z" fill="white"/>
<path d="M699.123 612.926L717.135 625.238L709.731 636.127L707.796 634.804L713.715 626.1L707.629 621.94L702.093 630.08L700.159 628.757L705.694 620.617L699.573 616.433L693.558 625.278L691.623 623.955L699.123 612.926Z" fill="white"/>
<path d="M690.976 640.015L692.008 640.84C691.27 641.768 690.949 642.571 691.045 643.248C691.137 643.931 691.638 644.636 692.548 645.363L695.211 647.492C695.976 648.104 696.581 648.707 697.027 649.299C697.468 649.897 697.739 650.509 697.839 651.135C697.94 651.762 697.858 652.424 697.594 653.121C697.329 653.819 696.872 654.577 696.222 655.394L694.591 654.09C695.104 653.445 695.409 652.857 695.505 652.325C695.597 651.798 695.494 651.288 695.197 650.796C694.9 650.313 694.427 649.812 693.778 649.293L690.45 646.632C690.017 646.286 689.67 645.913 689.408 645.512C689.141 645.117 689.002 644.665 688.99 644.155C688.978 643.645 689.128 643.052 689.44 642.374C689.748 641.701 690.26 640.915 690.976 640.015ZM674.921 638.362C675.571 637.545 676.206 636.93 676.825 636.516C677.445 636.102 678.07 635.875 678.702 635.834C679.333 635.793 679.989 635.922 680.668 636.219C681.343 636.523 682.064 636.981 682.829 637.593L685.492 639.722C686.402 640.449 687.199 640.782 687.883 640.72C688.563 640.663 689.273 640.171 690.011 639.243L691.043 640.068C690.326 640.968 689.676 641.644 689.091 642.094C688.501 642.55 687.957 642.829 687.459 642.931C686.96 643.033 686.489 642.997 686.046 642.824C685.598 642.657 685.158 642.401 684.725 642.055L681.397 639.394C680.748 638.875 680.156 638.524 679.62 638.341C679.08 638.164 678.565 638.18 678.073 638.387C677.572 638.595 677.065 639.022 676.552 639.666L674.921 638.362ZM690.011 639.243L692.008 640.84L690.443 642.807L688.446 641.211L690.011 639.243Z" fill="white"/>
<path d="M670.503 663.783L669.536 662.883C670.342 662.013 670.724 661.234 670.683 660.546C670.638 659.863 670.189 659.125 669.336 658.332L666.84 656.01C666.122 655.342 665.566 654.694 665.171 654.064C664.771 653.44 664.544 652.812 664.491 652.18C664.437 651.548 664.568 650.894 664.884 650.218C665.2 649.542 665.712 648.821 666.422 648.055L667.95 649.477C667.391 650.081 667.048 650.645 666.922 651.168C666.786 651.692 666.848 652.205 667.108 652.709C667.363 653.218 667.794 653.755 668.403 654.321L671.523 657.223C671.928 657.601 672.249 657.996 672.486 658.41C672.717 658.829 672.82 659.293 672.794 659.803C672.768 660.312 672.576 660.89 672.219 661.538C671.857 662.19 671.285 662.939 670.503 663.783ZM686.39 666.631C685.681 667.397 685.002 667.963 684.353 668.33C683.704 668.696 683.063 668.876 682.431 668.87C681.798 668.863 681.156 668.683 680.506 668.33C679.85 667.982 679.164 667.475 678.446 666.807L675.95 664.485C675.097 663.692 674.33 663.298 673.647 663.303C672.96 663.314 672.214 663.754 671.408 664.625L670.441 663.725C671.222 662.881 671.924 662.253 672.546 661.842C673.163 661.437 673.724 661.202 674.229 661.138C674.733 661.074 675.203 661.142 675.637 661.342C676.066 661.547 676.484 661.838 676.889 662.216L680.009 665.118C680.618 665.684 681.184 666.076 681.709 666.293C682.235 666.519 682.753 666.545 683.263 666.37C683.769 666.2 684.301 665.813 684.861 665.208L686.39 666.631ZM671.408 664.625L669.536 662.883L671.244 661.038L673.116 662.78L671.408 664.625Z" fill="white"/>
<path d="M659.499 691.718L644.679 675.705L646.551 673.964L666.892 678.439L667.048 678.293L655.412 665.721L657.347 663.921L672.166 679.934L670.294 681.676L649.894 677.199L649.738 677.344L661.402 689.948L659.499 691.718Z" fill="white"/>
<path d="M637.553 709.096L634.95 710.876L618.645 700.084L618.433 700.228L622.496 719.389L619.893 721.168L607.624 703.126L609.665 701.732L618.986 715.439L619.162 715.319L615.469 697.764L617.439 696.417L632.389 706.277L632.565 706.157L623.244 692.449L625.284 691.054L637.553 709.096Z" fill="white"/>
<path d="M609.431 727.156L598.543 708.249L600.83 706.925L611.718 725.833L609.431 727.156Z" fill="white"/>
<path d="M579.864 742.331L570.418 722.664L572.72 721.552L590.844 731.824L591.036 731.732L583.619 716.29L585.998 715.141L595.444 734.808L593.142 735.92L574.962 725.628L574.77 725.72L582.205 741.2L579.864 742.331Z" fill="white"/>
<path d="M559.451 738.323L558.597 736.14L567.479 732.645L568.334 734.827L559.451 738.323Z" fill="white"/>
<path d="M543.444 732.795L546.09 731.976L544.852 755.197L542.246 756.003L528.177 737.516L530.823 736.698L542.453 752.326L542.615 752.276L543.444 732.795ZM544.973 741.243L534.306 744.542L533.617 742.302L544.283 739.003L544.973 741.243Z" fill="white"/>
<path d="M495.297 751.803C495.817 751.724 496.291 751.843 496.719 752.159C497.147 752.475 497.4 752.893 497.478 753.412C497.556 753.932 497.437 754.406 497.121 754.835C496.805 755.263 496.387 755.517 495.867 755.595C495.348 755.674 494.874 755.555 494.446 755.239C494.017 754.923 493.764 754.505 493.686 753.985C493.634 753.641 493.675 753.312 493.807 752.997C493.932 752.684 494.126 752.418 494.387 752.199C494.643 751.988 494.946 751.856 495.297 751.803Z" fill="white"/>
</svg>
