<svg width="213" height="212" viewBox="0 0 213 212" fill="none" xmlns="http://www.w3.org/2000/svg">
<ellipse cx="106.5" cy="106" rx="106.5" ry="106" fill="white"/>
<path d="M192.824 67.2371C177.055 31.9689 141.82 10.3165 102.997 12.1026C55.3563 14.2603 16.272 53.1743 14.1039 100.606C12.9081 126.313 22.0633 150.68 39.8487 169.207C57.6341 187.77 81.6241 198 107.407 198C120.371 198 132.926 195.397 144.734 190.301L152.133 187.1L145.707 172.406L138.308 175.604C128.556 179.846 118.167 181.966 107.443 181.966C86.1079 181.966 66.2663 173.522 51.5433 158.158C36.8223 142.794 29.2741 122.63 30.2463 101.351C32.077 62.1031 64.3598 29.9225 103.781 28.1363C135.879 26.6859 165.061 44.5813 178.101 73.7836C186.921 93.5009 183.034 116.677 168.461 131.41C163.791 136.134 158.523 139.593 152.768 141.751C149.442 142.979 146.864 141.455 145.892 140.748C144.922 140.003 142.68 137.92 142.978 134.31L144.958 109.461L148.995 58.5308L132.926 57.2672L132.03 68.3894C125.304 60.8752 116.41 55.9638 106.397 55.183C82.9317 53.3591 62.0061 74.7135 59.8021 102.801C58.756 116.083 61.9701 128.992 68.8815 139.11C76.1681 149.788 86.6309 156.185 98.3634 157.079C99.2977 157.153 100.232 157.191 101.166 157.191C111.629 157.191 121.455 152.615 129.115 144.988C130.722 148.3 133.114 151.276 136.178 153.583C142.566 158.381 150.863 159.609 158.373 156.819C166.333 153.879 173.581 149.118 179.934 142.719C199.4 122.928 204.445 93.3519 192.824 67.2371ZM99.5971 141.008C92.8715 140.487 86.6688 136.581 82.1851 129.995C77.326 122.89 75.0841 113.627 75.8327 103.954C77.29 85.3907 89.5456 71.0299 103.52 71.0299C104.043 71.0299 104.566 71.0677 105.127 71.1054C119.736 72.2578 130.387 88.8497 128.891 108.122V108.158C127.36 127.428 114.206 142.16 99.5971 141.008Z" fill="black"/>
</svg>
