<svg width="44" height="44" viewBox="0 0 44 44" fill="none" xmlns="http://www.w3.org/2000/svg">
<path d="M43.5569 0.165293C43.5206 0.134875 43.4798 0.114549 43.4389 0.0891923C43.3265 0.0340969 43.2087 0.0041918 43.0916 0.00492808C43.0203 0.00537676 42.959 0.0107933 42.8978 0.0262722C42.8672 0.031496 42.8316 0.0422401 42.801 0.0575262L0.60982 16.0001C0.314545 16.1089 0.117301 16.3855 0.104162 16.6966C0.0910233 17.0078 0.266244 17.3026 0.547505 17.4385L18.2582 25.9257L26.9677 43.5264C27.1021 43.7959 27.3734 43.9625 27.6744 43.9606C27.6845 43.9606 27.7 43.9605 27.7101 43.9604C28.021 43.9434 28.2952 43.7427 28.4003 43.4461L43.8173 1.05603C43.8726 0.897428 43.8766 0.729081 43.8294 0.571576C43.814 0.525476 43.7986 0.479833 43.7727 0.433799C43.7258 0.327063 43.6489 0.236068 43.5569 0.165293ZM2.8797 16.8169L40.0082 2.78836L18.6767 24.3881L2.8797 16.8169ZM27.56 41.1872L19.7906 25.4875L41.1216 3.8878L27.56 41.1872Z" fill="black"/>
</svg>
