<svg width="41" height="45" viewBox="0 0 41 45" fill="none" xmlns="http://www.w3.org/2000/svg">
<path d="M38.0712 45H2.92884C1.31405 45 0 43.7141 0 42.1328V20.406C0 20.2192 0.0183552 20.0343 0.0550658 19.8508C0.0917764 19.6677 0.145901 19.4899 0.21791 19.3173C0.289919 19.1451 0.378401 18.9814 0.482884 18.8267C0.587368 18.6719 0.705972 18.5285 0.838694 18.3974L18.4343 0.852412C18.5021 0.784955 18.5732 0.7208 18.6475 0.660419C18.7214 0.600038 18.7986 0.54343 18.8781 0.490597C18.9577 0.437292 19.0401 0.388704 19.1243 0.343418C19.2085 0.298604 19.2951 0.258035 19.3836 0.221712C19.4721 0.184917 19.562 0.15284 19.6533 0.12548C19.7451 0.0976477 19.8378 0.0745329 19.9315 0.0561356C20.0251 0.0372665 20.1197 0.0235865 20.2148 0.0141518C20.3099 0.00471734 20.4054 0 20.5009 0C20.5965 0 20.692 0.00471734 20.7871 0.0141518C20.8822 0.0235865 20.9768 0.0372665 21.0704 0.0561356C21.1641 0.0745329 21.2568 0.0976477 21.3486 0.12548C21.4399 0.15284 21.5298 0.184917 21.6183 0.221712C21.7067 0.258035 21.7933 0.298604 21.8776 0.343418C21.9623 0.388704 22.0442 0.437292 22.1237 0.490597C22.2033 0.54343 22.2805 0.600038 22.3544 0.660419C22.4287 0.7208 22.4998 0.784955 22.5676 0.852412L40.1613 18.3974C40.294 18.5285 40.4126 18.6719 40.5171 18.8267C40.6216 18.9814 40.7101 19.1451 40.7821 19.3173C40.8541 19.4899 40.9082 19.6677 40.9449 19.8508C40.9816 20.0343 41 20.2192 41 20.406V42.1328C41 43.7141 39.686 45 38.0712 45ZM20.5 1.95342C20.372 1.9539 20.2487 1.9789 20.1305 2.02843C20.0119 2.07749 19.9075 2.1473 19.8166 2.23788L2.21628 19.7843C2.1325 19.8659 2.06756 19.9607 2.0219 20.0687C1.97625 20.1763 1.95319 20.289 1.95272 20.406V42.1328C1.95272 42.6352 2.39089 43.0442 2.92884 43.0442H38.0712C38.6091 43.0442 39.0473 42.6352 39.0473 42.1328V20.406C39.0468 20.289 39.0237 20.1763 38.9781 20.0687C38.9324 19.9607 38.8675 19.8659 38.7837 19.7843L21.189 2.23788C21.0977 2.14683 20.9923 2.07655 20.8728 2.02701C20.7532 1.97795 20.629 1.95342 20.5 1.95342Z" fill="black"/>
</svg>
