<svg width="44" height="36" viewBox="0 0 44 36" fill="none" xmlns="http://www.w3.org/2000/svg">
<path d="M18.8636 1.84575L19.0063 2.10396H19.3013H39.2867C41.6475 2.10396 43.5673 4.09834 43.4982 6.64151L43.498 6.6415V6.65508V32.7127C43.498 34.2341 42.3216 35.5 40.8825 35.5H3.1155C1.73724 35.5 0.5 34.2982 0.5 32.7127V3.28734C0.5 1.77407 1.74499 0.5 3.1155 0.5H16.6417C17.5853 0.5 18.4129 1.02983 18.8636 1.84575ZM43.0546 32.7926V32.2926H42.9784V10.4233V9.92332H42.4784H18.9216C18.8156 9.92332 18.7622 9.88899 18.7337 9.85893C18.7029 9.82645 18.6618 9.75629 18.6618 9.62134V3.28734C18.6618 2.1707 17.7935 1.10396 16.5659 1.10396H3.1155C1.99416 1.10396 1.01964 2.05913 1.01964 3.28734V32.7926C1.01964 33.909 1.88775 34.9764 3.1155 34.9764H40.9587C42.0802 34.9764 43.0546 34.0212 43.0546 32.7926ZM42.5546 9.31985H43.0546V8.81985V6.65508C43.0546 4.47992 41.4117 2.70744 39.2867 2.70744H19.7572H19.2572V3.20744V8.81985V9.31985H19.7572H42.5546Z" fill="black" stroke="black"/>
</svg>
