<svg width="38" height="45" viewBox="0 0 38 45" fill="none" xmlns="http://www.w3.org/2000/svg">
<path d="M10.423 28.4249C10.1122 28.5368 9.80481 28.6578 9.50122 28.7885C9.19763 28.9186 8.89835 29.0584 8.60338 29.2068C8.30841 29.3556 8.01774 29.5132 7.73235 29.6793C7.44648 29.8455 7.16635 30.0203 6.89149 30.2037C6.61615 30.3867 6.34704 30.5783 6.08367 30.7781C5.8203 30.9779 5.56316 31.1854 5.31224 31.4005C5.06132 31.6161 4.81711 31.8385 4.58008 32.069C4.34257 32.299 4.11224 32.5363 3.8891 32.7802C3.66596 33.0247 3.45095 33.2754 3.24265 33.5328C3.03483 33.7897 2.83515 34.0534 2.64313 34.3228C2.45111 34.5922 2.26771 34.8669 2.09245 35.1478C1.9172 35.4283 1.75056 35.714 1.59254 36.0046C1.43451 36.2956 1.28511 36.591 1.14529 36.8906C1.00499 37.1903 0.873782 37.4943 0.752154 37.8021C0.630526 38.1095 0.517996 38.4207 0.415043 38.7357C0.31209 39.0503 0.218715 39.3677 0.134916 39.688C0.115283 39.7654 0.0970868 39.8432 0.0817636 39.9219C0.0659616 40.0007 0.0525538 40.0794 0.0415402 40.1587C0.0305266 40.2379 0.0214285 40.3176 0.0147246 40.3974C0.00802078 40.4771 0.00371106 40.5568 0.00179566 40.637C-0.000598555 40.7172 -0.000598555 40.7969 0.00179566 40.8771C0.00419001 40.9573 0.00897835 41.037 0.0156823 41.1168C0.022865 41.1965 0.0319632 41.2762 0.0429768 41.3554C0.0544692 41.4347 0.067877 41.5134 0.083679 41.5922C0.099481 41.6705 0.117677 41.7488 0.137789 41.8261C0.157901 41.9034 0.180407 41.9802 0.204828 42.0566C0.229728 42.133 0.256065 42.2084 0.284796 42.2828C0.314006 42.3577 0.344652 42.4317 0.377693 42.5042C0.410734 42.5772 0.44569 42.6492 0.482561 42.7203C0.519432 42.7914 0.558698 42.861 0.5994 42.9297C0.640582 42.9988 0.683199 43.0661 0.728211 43.1323C0.772744 43.1986 0.819193 43.2639 0.868035 43.3273C0.916399 43.3912 0.9662 43.4536 1.01839 43.5141C1.07011 43.5751 1.12374 43.6342 1.17929 43.6923C1.23436 43.7499 1.29134 43.8061 1.34976 43.8609C1.40818 43.9151 1.46803 43.968 1.52981 44.0193C1.5911 44.0707 1.65383 44.1197 1.71799 44.1677C1.78216 44.2153 1.84776 44.2609 1.9148 44.3046C1.98136 44.3488 2.04936 44.3906 2.11831 44.4309C2.18775 44.4708 2.25814 44.5087 2.32901 44.5447C2.40036 44.5812 2.47266 44.6148 2.54593 44.647C2.61919 44.6792 2.69341 44.709 2.76811 44.7368C2.84329 44.7642 2.91895 44.7901 2.99509 44.8137C3.0717 44.8372 3.14832 44.8583 3.22589 44.8775C3.30347 44.8963 3.38152 44.9136 3.46005 44.928C3.53858 44.9429 3.61759 44.9553 3.6966 44.9654C3.77609 44.9755 3.85558 44.9837 3.93507 44.9894C4.01456 44.9952 4.09453 44.9986 4.17449 45H25.0782C25.1529 45 25.2271 44.9923 25.3004 44.9779C25.3741 44.963 25.4455 44.9414 25.5144 44.9126C25.5839 44.8838 25.6495 44.8487 25.7117 44.8069C25.7745 44.7652 25.8319 44.7176 25.8851 44.6648C25.9377 44.6115 25.9852 44.5539 26.0268 44.4914C26.0685 44.429 26.1034 44.3632 26.1322 44.2936C26.1609 44.2244 26.1824 44.1529 26.1973 44.0789C26.2117 44.0054 26.2188 43.931 26.2188 43.8556C26.2188 43.7807 26.2117 43.7062 26.1973 43.6328C26.1824 43.5588 26.1609 43.4872 26.1322 43.4181C26.1034 43.3484 26.0685 43.2827 26.0268 43.2202C25.9852 43.1578 25.9377 43.1002 25.8851 43.0469C25.8319 42.9935 25.7745 42.9465 25.7117 42.9047C25.6495 42.8629 25.5839 42.8274 25.5144 42.7991C25.4455 42.7702 25.3741 42.7486 25.3004 42.7337C25.2271 42.7193 25.1529 42.7116 25.0782 42.7116H4.17449C4.10123 42.7107 4.02845 42.7049 3.95566 42.6953C3.88335 42.6857 3.81153 42.6723 3.74018 42.6545C3.66931 42.6367 3.5994 42.6151 3.53092 42.5892C3.46244 42.5637 3.39541 42.534 3.33028 42.5008C3.26516 42.4672 3.20195 42.4302 3.14114 42.3899C3.07984 42.3495 3.02142 42.3054 2.9654 42.2583C2.90937 42.2112 2.85622 42.1608 2.80594 42.1075C2.75566 42.0542 2.70826 41.9985 2.6642 41.9399C2.62015 41.8813 2.57992 41.8203 2.54257 41.7569C2.5057 41.6935 2.47218 41.6287 2.44249 41.5615C2.41281 41.4942 2.38695 41.426 2.36492 41.3559C2.34289 41.2858 2.32518 41.2147 2.31129 41.1427C2.2974 41.0707 2.28735 40.9981 2.2816 40.9251C2.27633 40.8517 2.27442 40.7787 2.27729 40.7052C2.27969 40.6317 2.28687 40.5587 2.2974 40.4862C2.30842 40.4137 2.32326 40.3421 2.34241 40.2711C2.48655 39.7193 2.66372 39.178 2.87346 38.6474C3.0832 38.1172 3.32454 37.6014 3.597 37.1C3.86899 36.5991 4.17066 36.1165 4.50155 35.6521C4.83243 35.1877 5.19014 34.7449 5.57417 34.3242C5.95869 33.9035 6.36715 33.5073 6.79955 33.1366C7.23195 32.7654 7.68542 32.422 8.15948 32.106C8.63355 31.79 9.12485 31.5042 9.63338 31.2483C10.1419 30.9923 10.6643 30.768 11.2002 30.5755C11.4056 30.5049 11.6043 30.4184 11.7964 30.3171C11.9884 30.2153 12.1718 30.1 12.3461 29.9699C12.5204 29.8402 12.6837 29.6976 12.8359 29.5424C12.9882 29.3873 13.128 29.2212 13.2544 29.0444C13.3813 28.8677 13.4939 28.6819 13.592 28.4878C13.6902 28.2938 13.773 28.0931 13.8406 27.8861C13.9076 27.6791 13.9588 27.4683 13.9938 27.2531C14.0283 27.0385 14.0465 26.8219 14.0479 26.6043V25.7044C14.0551 25.4157 14.0335 25.129 13.9828 24.8447C13.9325 24.5604 13.8544 24.2838 13.7486 24.0153C13.6428 23.7469 13.5111 23.4914 13.354 23.2494C13.197 23.0073 13.0179 22.783 12.8158 22.5775L10.0466 19.8012C9.86658 19.6216 9.72724 19.4141 9.62955 19.1788C9.53235 18.9435 9.4835 18.6986 9.48398 18.4436V12.2662C9.48159 12.1097 9.48255 11.9531 9.48734 11.7965C9.4926 11.6405 9.50122 11.4844 9.51367 11.3283C9.52564 11.1722 9.54192 11.0166 9.56156 10.8615C9.58119 10.7064 9.60465 10.5518 9.63195 10.3976C9.65924 10.2434 9.68989 10.0898 9.72437 9.93752C9.75884 9.78481 9.79667 9.63305 9.83833 9.48226C9.87999 9.33146 9.92548 9.18162 9.97433 9.03323C10.0227 8.88435 10.0754 8.73692 10.1309 8.59093C10.1869 8.44493 10.2458 8.30038 10.3086 8.15679C10.3713 8.01367 10.4374 7.872 10.5068 7.73177C10.5762 7.59154 10.649 7.45323 10.7252 7.31636C10.8013 7.17997 10.8803 7.04503 10.9627 6.91248C11.045 6.77945 11.1307 6.64883 11.2193 6.51964C11.3079 6.39094 11.3999 6.26463 11.4942 6.14025C11.589 6.01587 11.6867 5.89389 11.7873 5.77382C11.8878 5.65424 11.9912 5.53707 12.0971 5.42229C12.2034 5.30751 12.3121 5.19513 12.4232 5.08564C12.5347 4.97614 12.6487 4.86953 12.7651 4.76532C12.8819 4.6611 13.0007 4.55977 13.1218 4.46132C13.2434 4.36287 13.367 4.26779 13.4929 4.1751C13.6189 4.08241 13.7467 3.99309 13.877 3.90664C14.0072 3.8202 14.1389 3.73712 14.273 3.6574C14.407 3.5772 14.543 3.50036 14.6809 3.42688C14.8189 3.3534 14.9582 3.28281 15.099 3.21606C15.2402 3.1493 15.3829 3.08591 15.5271 3.02588C15.6712 2.96585 15.8168 2.90918 15.9633 2.85587C16.1103 2.80305 16.2583 2.75358 16.4072 2.70748C16.5566 2.66138 16.7065 2.61911 16.8578 2.58022C17.0091 2.54132 17.1609 2.50626 17.3141 2.47456C17.4669 2.44287 17.6201 2.41501 17.7743 2.391C17.9285 2.36699 18.0832 2.34634 18.2383 2.32953C18.3939 2.31272 18.5491 2.29975 18.7052 2.29015C18.8627 2.28775 19.0208 2.28967 19.1788 2.29495C19.3368 2.30023 19.4943 2.30936 19.6519 2.32281C19.8094 2.33577 19.966 2.35306 20.1226 2.37371C20.2792 2.39484 20.4353 2.41933 20.5909 2.44815C20.7461 2.47696 20.9007 2.50914 21.0544 2.54516C21.2086 2.58166 21.3614 2.62152 21.5132 2.66522C21.665 2.70892 21.8158 2.75646 21.9652 2.80737C22.1146 2.85876 22.2631 2.9135 22.4096 2.97161C22.5566 3.0302 22.7017 3.09215 22.8458 3.15795C22.9895 3.22326 23.1317 3.29241 23.272 3.36493C23.4123 3.43745 23.5512 3.51381 23.6876 3.59305C23.8246 3.67229 23.9591 3.75537 24.0918 3.84133C24.2244 3.92729 24.3547 4.01662 24.483 4.10883C24.6113 4.20151 24.7373 4.29708 24.8608 4.39553C24.9844 4.49446 25.1055 4.59579 25.2243 4.70048C25.343 4.80518 25.4589 4.91275 25.5724 5.02273C25.6859 5.13318 25.7965 5.24604 25.9042 5.36226C26.012 5.478 26.1168 5.59614 26.2188 5.71716C26.3208 5.83818 26.42 5.9616 26.5157 6.08694C26.612 6.21277 26.7049 6.34099 26.7944 6.47162C26.884 6.60176 26.9706 6.73431 27.0539 6.86878C27.1373 7.00373 27.2172 7.14011 27.2934 7.2789C27.37 7.41721 27.4433 7.55792 27.5127 7.70008C27.5826 7.84223 27.6487 7.98582 27.7114 8.13133C27.7741 8.27685 27.833 8.42332 27.8886 8.57172C27.9437 8.72011 27.9954 8.86995 28.0437 9.02074C28.0916 9.17154 28.1361 9.3233 28.1769 9.47649C28.2176 9.62969 28.2544 9.78337 28.2875 9.93849C28.3205 10.0931 28.3502 10.2487 28.3756 10.4053C28.401 10.5614 28.4225 10.7184 28.4407 10.8759C28.4584 11.033 28.4723 11.191 28.4824 11.349C28.4924 11.507 28.4986 11.6654 28.501 11.8234V18.4436C28.5015 18.6986 28.4527 18.9435 28.3555 19.1788C28.2578 19.4141 28.1184 19.6216 27.9384 19.8012L25.1692 22.5775C24.9733 22.772 24.799 22.9843 24.6453 23.2138C24.4916 23.4429 24.3619 23.6854 24.256 23.9409C24.1502 24.1959 24.0702 24.4591 24.0166 24.7304C23.963 25.0013 23.9366 25.2755 23.9371 25.5516V26.6043C23.9409 26.8219 23.9615 27.0375 23.9979 27.2522C24.0348 27.4664 24.0875 27.6772 24.1559 27.8832C24.2244 28.0897 24.3082 28.29 24.4073 28.4835C24.506 28.6771 24.619 28.8624 24.7459 29.0387C24.8728 29.2154 25.0121 29.3811 25.1639 29.5367C25.3157 29.6918 25.4785 29.8349 25.6524 29.9651C25.8257 30.0957 26.0081 30.2124 26.1997 30.3152C26.3907 30.4179 26.5885 30.5058 26.793 30.5783C27.3365 30.7743 27.8656 31.0029 28.3808 31.2641C28.8961 31.5254 29.3931 31.8169 29.8725 32.1391C30.3518 32.4618 30.81 32.8124 31.2463 33.1913C31.683 33.5698 32.0943 33.9741 32.4812 34.4035C32.8681 34.8333 33.2278 35.2847 33.5591 35.7587C33.8905 36.2322 34.1922 36.7245 34.4632 37.2354C34.7347 37.7464 34.9736 38.2723 35.1805 38.8126C35.3874 39.3528 35.5602 39.9037 35.6996 40.4656C35.7125 40.5342 35.7221 40.6034 35.7274 40.673C35.7331 40.7427 35.7345 40.8123 35.7326 40.8819C35.7302 40.952 35.724 41.0212 35.7144 41.0903C35.7044 41.1595 35.691 41.2282 35.6732 41.2959C35.656 41.3631 35.6349 41.4299 35.61 41.4952C35.5851 41.5605 35.5569 41.6239 35.5248 41.6863C35.4932 41.7483 35.4578 41.8083 35.4195 41.8669C35.3807 41.925 35.339 41.9807 35.2945 42.0345C35.2499 42.0883 35.2025 42.1392 35.1518 42.1872C35.1015 42.2357 35.0488 42.2809 34.9933 42.3236C34.9382 42.3659 34.8808 42.4053 34.8209 42.4413C34.761 42.4773 34.6997 42.5099 34.6365 42.5392C34.5729 42.5681 34.5082 42.594 34.4421 42.6156C34.376 42.6377 34.309 42.6559 34.2405 42.6708C34.1725 42.6852 34.1036 42.6958 34.0346 42.7025C33.9652 42.7097 33.8958 42.7126 33.8258 42.7116H29.6421C29.5674 42.7116 29.4932 42.7193 29.4195 42.7337C29.3462 42.7486 29.2749 42.7702 29.2054 42.7991C29.1365 42.8274 29.0704 42.8629 29.0081 42.9047C28.9459 42.9465 28.8884 42.9935 28.8353 43.0469C28.7821 43.1002 28.7352 43.1578 28.6935 43.2202C28.6519 43.2827 28.6164 43.3484 28.5882 43.4181C28.5595 43.4872 28.5374 43.5588 28.5231 43.6328C28.5082 43.7062 28.501 43.7807 28.501 43.8556C28.501 43.931 28.5082 44.0054 28.5231 44.0789C28.5374 44.1529 28.5595 44.2244 28.5882 44.2936C28.6164 44.3632 28.6519 44.429 28.6935 44.4914C28.7352 44.5539 28.7821 44.6115 28.8353 44.6648C28.8884 44.7176 28.9459 44.7652 29.0081 44.8069C29.0704 44.8487 29.1365 44.8838 29.2054 44.9126C29.2749 44.9414 29.3462 44.963 29.4195 44.9779C29.4932 44.9923 29.5674 45 29.6421 45H33.8258C33.981 44.9981 34.1352 44.9875 34.2889 44.9688C34.4426 44.9496 34.5949 44.9222 34.7457 44.8867C34.8966 44.8511 35.045 44.8069 35.191 44.7551C35.3371 44.7027 35.4798 44.6432 35.6191 44.575C35.7585 44.5073 35.894 44.4324 36.0247 44.3493C36.1559 44.2667 36.2823 44.1769 36.4035 44.0803C36.5251 43.9838 36.6405 43.8806 36.7507 43.7711C36.8603 43.662 36.9642 43.5468 37.0614 43.4258C37.1591 43.3052 37.2496 43.1789 37.3329 43.0483C37.4167 42.9177 37.4929 42.7827 37.5614 42.6435C37.6303 42.5042 37.6911 42.3616 37.7443 42.2156C37.7974 42.0696 37.8424 41.9212 37.8788 41.7704C37.9157 41.6196 37.9444 41.4669 37.9645 41.3127C37.9847 41.159 37.9961 41.0044 37.999 40.8488C38.0024 40.6937 37.9971 40.5386 37.9832 40.3839C37.9693 40.2293 37.9468 40.0756 37.9162 39.9234C37.8353 39.5973 37.7448 39.2741 37.6447 38.9533C37.5441 38.633 37.434 38.316 37.3143 38.0019C37.1941 37.6883 37.0648 37.3786 36.9259 37.0731C36.7871 36.7672 36.6391 36.4661 36.482 36.1693C36.3245 35.8725 36.1583 35.581 35.9835 35.2948C35.8083 35.0081 35.6244 34.7276 35.4324 34.4524C35.2399 34.1773 35.0393 33.9083 34.8305 33.6456C34.6217 33.3829 34.4053 33.127 34.1807 32.8772C33.9561 32.628 33.7243 32.3855 33.4849 32.1506C33.246 31.9153 32.9993 31.6877 32.7465 31.4677C32.4932 31.2478 32.2332 31.0355 31.9669 30.8319C31.7007 30.6278 31.4287 30.4319 31.1505 30.245C30.8723 30.0577 30.5888 29.8791 30.2996 29.7091C30.0104 29.5396 29.7164 29.3787 29.4176 29.2269C29.1183 29.0752 28.8152 28.933 28.5073 28.8C28.1998 28.667 27.8881 28.5435 27.573 28.4297C27.4773 28.398 27.3844 28.3591 27.2943 28.313C27.2048 28.2669 27.1186 28.2146 27.0367 28.1555C26.9553 28.0964 26.8782 28.0311 26.8064 27.9601C26.7346 27.889 26.6685 27.8131 26.6081 27.7319C26.5478 27.6508 26.4942 27.5653 26.4472 27.476C26.3998 27.3866 26.3596 27.294 26.3271 27.1984C26.294 27.1028 26.2682 27.0053 26.2504 26.9059C26.2322 26.8065 26.2217 26.7061 26.2188 26.6048V25.5516C26.2188 25.2966 26.2672 25.0517 26.3649 24.8164C26.4626 24.5811 26.6014 24.3736 26.782 24.194L29.5507 21.4182C29.7465 21.2232 29.9213 21.0114 30.075 20.7819C30.2287 20.5523 30.3585 20.3098 30.4643 20.0548C30.5701 19.7993 30.6496 19.5361 30.7033 19.2648C30.7569 18.9939 30.7837 18.7202 30.7832 18.4436V11.8234C30.7813 11.627 30.7746 11.4306 30.7626 11.2342C30.7511 11.0382 30.7349 10.8423 30.7133 10.6468C30.6923 10.4514 30.6659 10.2564 30.6353 10.0624C30.6041 9.86789 30.5687 9.67483 30.528 9.48226C30.4878 9.29016 30.4428 9.09854 30.393 8.90837C30.3427 8.71819 30.2886 8.52945 30.2292 8.34216C30.1703 8.15439 30.1066 7.96853 30.0381 7.78412C29.9697 7.60019 29.8969 7.41769 29.8198 7.23664C29.7427 7.05607 29.6608 6.87742 29.5746 6.70069C29.4884 6.52396 29.3984 6.34964 29.3036 6.17723C29.2088 6.0053 29.1101 5.8353 29.0072 5.66817C28.9037 5.50105 28.797 5.33632 28.6859 5.174C28.5743 5.01216 28.4594 4.8532 28.3406 4.69664C28.2214 4.54056 28.0988 4.38737 27.9719 4.23705C27.8455 4.08673 27.7152 3.93978 27.5816 3.79619C27.448 3.65212 27.3106 3.51188 27.1698 3.37502C27.029 3.23767 26.8854 3.10464 26.7379 2.97449C26.5909 2.84483 26.4401 2.71852 26.2868 2.59606C26.1331 2.47408 25.977 2.35546 25.8176 2.24068C25.6581 2.12591 25.4962 2.01545 25.3315 1.90884C25.1668 1.80222 24.9992 1.69945 24.8297 1.60148C24.6597 1.50303 24.4878 1.4089 24.313 1.3191C24.1387 1.22929 23.962 1.14381 23.7834 1.06265C23.6048 0.981489 23.4243 0.905131 23.2418 0.833094C23.0594 0.760578 22.875 0.693344 22.6892 0.629952C22.5039 0.56704 22.3167 0.508931 22.128 0.455144C21.9394 0.401356 21.7492 0.352372 21.5582 0.307709C21.3671 0.263527 21.1751 0.223667 20.9821 0.18909C20.7892 0.154032 20.5952 0.124257 20.4008 0.098804C20.2064 0.0738314 20.0115 0.053181 19.8161 0.0378132C19.6203 0.0219652 19.4244 0.0113998 19.2286 0.00563692C19.0327 -0.000606194 18.8364 -0.00156659 18.6406 0.00227534C18.4481 0.0128406 18.256 0.0282083 18.0645 0.0478982C17.873 0.0680685 17.6819 0.0920805 17.4913 0.121375C17.3007 0.15019 17.1111 0.183807 16.922 0.221746C16.7333 0.260165 16.5456 0.302427 16.3584 0.34949C16.1716 0.396554 15.9858 0.44842 15.8015 0.504128C15.6171 0.560317 15.4342 0.620347 15.2527 0.68518C15.0712 0.750012 14.8912 0.818687 14.713 0.892164C14.5349 0.965641 14.3582 1.04296 14.1839 1.1246C14.0091 1.20672 13.8367 1.29269 13.6663 1.38249C13.4958 1.4723 13.3277 1.56642 13.1616 1.66487C12.9954 1.76284 12.8321 1.86465 12.6707 1.97079C12.5098 2.07644 12.3513 2.18642 12.1952 2.29975C12.0396 2.41309 11.8864 2.53027 11.736 2.65129C11.5857 2.77183 11.4382 2.89621 11.2936 3.02444C11.1494 3.15218 11.0082 3.28329 10.8698 3.41776C10.7319 3.55271 10.5968 3.69053 10.4651 3.83173C10.3335 3.97244 10.2056 4.11699 10.0806 4.26394C9.95613 4.41138 9.83498 4.56121 9.71718 4.71441C9.59987 4.86761 9.4859 5.02321 9.37576 5.18169C9.26563 5.34017 9.15932 5.50105 9.05685 5.66481C8.95438 5.82809 8.85573 5.99426 8.76092 6.16234C8.66659 6.33091 8.57608 6.50139 8.48941 6.6738C8.40274 6.84669 8.32038 7.02101 8.24233 7.19774C8.16427 7.37399 8.09005 7.55264 8.02062 7.73273C7.95071 7.91282 7.88558 8.09436 7.82429 8.27781C7.76348 8.46078 7.70697 8.64519 7.65478 8.83153C7.60258 9.01738 7.5547 9.2042 7.51112 9.39245C7.46802 9.5807 7.42924 9.76992 7.39476 9.9601C7.36028 10.1503 7.3306 10.3409 7.30522 10.5325C7.28032 10.7237 7.25925 10.9158 7.24344 11.1084C7.22716 11.3009 7.21567 11.4935 7.20897 11.6866C7.20178 11.8796 7.19939 12.0727 7.20178 12.2662V18.4436C7.20131 18.7202 7.22812 18.9939 7.28175 19.2648C7.33538 19.5361 7.41487 19.7993 7.5207 20.0548C7.62652 20.3098 7.75629 20.5523 7.91 20.7819C8.06371 21.0114 8.23849 21.2232 8.43434 21.4182L11.2031 24.194C11.2993 24.2939 11.3841 24.4024 11.4578 24.5196C11.5315 24.6368 11.5924 24.7602 11.6407 24.8899C11.6896 25.0195 11.724 25.153 11.7451 25.2899C11.7662 25.4268 11.7734 25.5646 11.7662 25.7029V26.6043C11.7638 26.7052 11.7537 26.8051 11.7365 26.904C11.7188 27.0034 11.6939 27.1009 11.6613 27.196C11.6288 27.2916 11.589 27.3838 11.5426 27.4731C11.4956 27.5624 11.4425 27.6474 11.3826 27.7286C11.3232 27.8097 11.2576 27.8856 11.1858 27.9562C11.1145 28.0273 11.0383 28.0921 10.9569 28.1512C10.875 28.2103 10.7898 28.2631 10.7003 28.3087C10.6107 28.3548 10.5183 28.3937 10.423 28.4249Z" fill="black"/>
</svg>
