<svg xmlns="http://www.w3.org/2000/svg" xmlns:xlink="http://www.w3.org/1999/xlink" width="500" zoomAndPan="magnify" viewBox="0 0 375 374.999991" height="500" preserveAspectRatio="xMidYMid meet" version="1.0"><defs><clipPath id="eea75dcccb"><path d="M 3.089844 0 L 372 0 L 372 369 L 3.089844 369 Z M 3.089844 0 " clip-rule="nonzero"/></clipPath></defs><g clip-path="url(#eea75dcccb)"><path fill="#ffffff" d="M 369.289062 284.265625 C 365.839844 269.121094 359.167969 253.230469 349.457031 237.027344 C 338.984375 219.550781 325.0625 201.882812 308.078125 184.519531 C 325.0625 167.15625 338.980469 149.488281 349.457031 132.011719 C 359.160156 115.804688 365.839844 99.910156 369.289062 84.773438 C 370.925781 77.613281 371.824219 70.621094 371.976562 63.980469 C 372.121094 57.511719 371.550781 51.300781 370.292969 45.523438 C 369.050781 39.851562 367.125 34.542969 364.570312 29.742188 C 362.042969 24.984375 358.875 20.6875 355.15625 16.976562 C 351.4375 13.257812 347.144531 10.089844 342.394531 7.5625 C 337.589844 5.011719 332.28125 3.085938 326.613281 1.84375 C 320.835938 0.578125 314.628906 0.0117188 308.152344 0.160156 C 301.507812 0.308594 294.515625 1.210938 287.363281 2.84375 C 272.214844 6.296875 256.328125 12.96875 240.125 22.679688 C 222.648438 33.148438 204.980469 47.074219 187.617188 64.058594 C 170.253906 47.074219 152.585938 33.15625 135.105469 22.679688 C 118.890625 12.960938 102.996094 6.285156 87.855469 2.832031 C 80.699219 1.199219 73.703125 0.296875 67.066406 0.144531 C 60.589844 0.0078125 54.382812 0.570312 48.605469 1.835938 C 42.9375 3.078125 37.628906 5.003906 32.824219 7.558594 C 28.070312 10.085938 23.773438 13.253906 20.0625 16.972656 C 16.34375 20.6875 13.175781 24.984375 10.648438 29.734375 C 8.09375 34.539062 6.167969 39.84375 4.925781 45.515625 C 3.660156 51.292969 3.097656 57.5 3.242188 63.976562 C 3.394531 70.613281 4.292969 77.613281 5.929688 84.765625 C 9.382812 99.90625 16.058594 115.800781 25.761719 132.003906 C 36.234375 149.480469 50.15625 167.148438 67.140625 184.511719 C 50.15625 201.875 36.242188 219.542969 25.761719 237.023438 C 16.050781 253.226562 9.382812 269.121094 5.929688 284.261719 C 4.292969 291.417969 3.394531 298.410156 3.242188 305.050781 C 3.097656 311.519531 3.667969 317.726562 4.925781 323.511719 C 6.167969 329.179688 8.09375 334.488281 10.648438 339.289062 C 13.175781 344.039062 16.34375 348.34375 20.0625 352.054688 C 23.78125 355.773438 28.074219 358.941406 32.824219 361.46875 C 37.628906 364.019531 42.9375 365.945312 48.605469 367.1875 C 54.382812 368.457031 60.589844 369.019531 67.066406 368.875 C 73.703125 368.722656 80.703125 367.820312 87.855469 366.1875 C 102.996094 362.734375 118.890625 356.0625 135.09375 346.351562 C 152.570312 335.882812 170.238281 321.957031 187.601562 304.972656 C 204.964844 321.957031 222.632812 335.875 240.113281 346.351562 C 256.316406 356.058594 272.210938 362.734375 287.351562 366.1875 C 294.507812 367.820312 301.503906 368.722656 308.140625 368.875 C 308.800781 368.886719 309.457031 368.898438 310.109375 368.898438 C 315.871094 368.898438 321.40625 368.320312 326.601562 367.1875 C 332.269531 365.945312 337.578125 364.019531 342.378906 361.46875 C 347.132812 358.941406 351.433594 355.773438 355.144531 352.054688 C 358.863281 348.335938 362.03125 344.039062 364.558594 339.289062 C 367.113281 334.488281 369.039062 329.179688 370.277344 323.511719 C 371.546875 317.734375 372.109375 311.523438 371.964844 305.050781 C 371.824219 298.417969 370.917969 291.425781 369.289062 284.265625 Z M 369.289062 284.265625 " fill-opacity="1" fill-rule="nonzero"/></g></svg>