<svg xmlns="http://www.w3.org/2000/svg" xmlns:xlink="http://www.w3.org/1999/xlink" width="500" zoomAndPan="magnify" viewBox="0 0 375 374.999991" height="500" preserveAspectRatio="xMidYMid meet" version="1.0"><path fill="#000000" d="M 187.492188 374.984375 C 198.460938 261.730469 208.390625 209.320312 187.492188 187.964844 C 166.597656 209.320312 176.527344 261.730469 187.492188 374.984375 Z M 187.492188 374.984375 " fill-opacity="1" fill-rule="nonzero"/><path fill="#000000" d="M 0 187.492188 C 113.253906 198.460938 165.664062 208.390625 187.019531 187.492188 C 165.664062 166.597656 113.253906 176.527344 0 187.492188 Z M 0 187.492188 " fill-opacity="1" fill-rule="nonzero"/><path fill="#000000" d="M 187.492188 187.019531 C 187.335938 187.183594 187.179688 187.339844 187.019531 187.492188 C 187.183594 187.648438 187.339844 187.808594 187.492188 187.964844 C 187.648438 187.804688 187.808594 187.644531 187.964844 187.492188 C 187.808594 187.335938 187.648438 187.179688 187.492188 187.019531 Z M 187.492188 187.019531 " fill-opacity="1" fill-rule="nonzero"/><path fill="#000000" d="M 374.984375 187.492188 C 261.730469 176.527344 209.320312 166.597656 187.964844 187.492188 C 209.320312 208.390625 261.730469 198.460938 374.984375 187.492188 Z M 374.984375 187.492188 " fill-opacity="1" fill-rule="nonzero"/><path fill="#000000" d="M 187.492188 0 C 176.527344 113.253906 166.597656 165.664062 187.492188 187.019531 C 208.390625 165.664062 198.460938 113.253906 187.492188 0 Z M 187.492188 0 " fill-opacity="1" fill-rule="nonzero"/></svg>