<svg xmlns="http://www.w3.org/2000/svg" xmlns:xlink="http://www.w3.org/1999/xlink" width="500" zoomAndPan="magnify" viewBox="0 0 375 374.999991" height="500" preserveAspectRatio="xMidYMid meet" version="1.0"><path fill="#ffffff" d="M 189.125 4.050781 L 187.644531 0 L 186.027344 4.03125 C 143.945312 109.921875 109.933594 143.941406 4.035156 186.019531 L 0 187.625 L 4.054688 189.113281 C 109.933594 231.191406 143.949219 265.210938 186.039062 371.125 L 187.644531 375 L 189.121094 371.105469 C 231.203125 265.207031 265.222656 231.1875 371.09375 189.113281 L 375.019531 187.617188 L 371.113281 186.011719 C 265.226562 143.941406 231.203125 109.925781 189.125 4.050781 Z M 302.175781 217.652344 C 283.042969 228.640625 267.242188 240.484375 253.867188 253.859375 C 240.492188 267.234375 228.648438 283.039062 217.660156 302.167969 C 207.84375 319.261719 198.246094 339.6875 187.578125 366.230469 C 176.914062 339.699219 167.3125 319.269531 157.496094 302.167969 C 146.507812 283.03125 134.664062 267.230469 121.289062 253.859375 C 107.917969 240.480469 92.109375 228.640625 72.980469 217.652344 C 55.878906 207.832031 35.449219 198.230469 8.921875 187.570312 C 35.449219 176.902344 55.882812 167.304688 72.980469 157.484375 C 92.117188 146.5 107.917969 134.652344 121.289062 121.28125 C 134.667969 107.902344 146.507812 92.101562 157.496094 72.96875 C 167.316406 55.871094 176.917969 35.4375 187.578125 8.914062 C 198.246094 35.445312 207.84375 55.871094 217.660156 72.96875 C 228.648438 92.105469 240.496094 107.90625 253.867188 121.28125 C 267.246094 134.65625 283.046875 146.5 302.175781 157.484375 C 319.277344 167.308594 339.71875 176.90625 366.238281 187.570312 C 339.710938 198.234375 319.277344 207.835938 302.175781 217.652344 Z M 302.175781 217.652344 " fill-opacity="1" fill-rule="nonzero"/></svg>