<svg xmlns="http://www.w3.org/2000/svg" xmlns:xlink="http://www.w3.org/1999/xlink" width="500" zoomAndPan="magnify" viewBox="0 0 375 374.999991" height="500" preserveAspectRatio="xMidYMid meet" version="1.0"><defs><clipPath id="c8a18f246e"><path d="M 0.65625 0 L 375 0 L 375 375 L 0.65625 375 Z M 0.65625 0 " clip-rule="nonzero"/></clipPath></defs><g clip-path="url(#c8a18f246e)"><path fill="#ffffff" d="M 188.15625 375.003906 C 179.910156 375.003906 171.945312 372.238281 165.128906 367.007812 C 154.195312 358.617188 147.109375 344.410156 145.179688 327 C 143.597656 312.71875 145.292969 296.660156 150.234375 279.046875 C 141.277344 294.996094 131.121094 307.550781 119.902344 316.53125 C 106.226562 327.476562 91.171875 332.511719 77.511719 330.710938 C 68.992188 329.589844 61.40625 325.917969 55.570312 320.085938 C 49.738281 314.25 46.066406 306.667969 44.945312 298.148438 C 43.144531 284.484375 48.179688 269.425781 59.125 255.753906 C 68.105469 244.535156 80.660156 234.378906 96.609375 225.421875 C 78.996094 230.363281 62.9375 232.066406 48.65625 230.476562 C 31.246094 228.542969 17.042969 221.457031 8.648438 210.527344 C 3.421875 203.710938 0.65625 195.75 0.65625 187.5 C 0.65625 179.253906 3.421875 171.289062 8.652344 164.472656 C 17.042969 153.539062 31.25 146.453125 48.660156 144.523438 C 62.945312 142.941406 79 144.636719 96.613281 149.578125 C 80.667969 140.621094 68.109375 130.464844 59.128906 119.246094 C 48.183594 105.570312 43.148438 90.515625 44.949219 76.851562 C 46.070312 68.335938 49.742188 60.75 55.578125 54.914062 C 61.410156 49.082031 68.996094 45.410156 77.515625 44.289062 C 91.179688 42.488281 106.234375 47.523438 119.90625 58.46875 C 131.125 67.449219 141.28125 80.003906 150.242188 95.953125 C 145.296875 78.339844 143.597656 62.28125 145.183594 48 C 147.117188 30.589844 154.203125 16.386719 165.132812 7.992188 C 171.945312 2.765625 179.910156 0 188.15625 0 C 196.402344 0 204.367188 2.765625 211.183594 7.996094 C 222.117188 16.386719 229.203125 30.59375 231.132812 48.003906 C 232.71875 62.285156 231.019531 78.34375 226.078125 95.957031 C 235.035156 80.007812 245.191406 67.453125 256.410156 58.472656 C 270.085938 47.527344 285.140625 42.492188 298.804688 44.292969 C 307.320312 45.414062 314.90625 49.085938 320.742188 54.917969 C 326.574219 60.753906 330.246094 68.339844 331.371094 76.859375 C 333.167969 90.519531 328.132812 105.578125 317.191406 119.25 C 308.207031 130.46875 295.652344 140.625 279.703125 149.582031 C 297.316406 144.640625 313.375 142.941406 327.660156 144.527344 C 345.066406 146.460938 359.269531 153.546875 367.664062 164.476562 C 372.894531 171.292969 375.660156 179.257812 375.660156 187.503906 C 375.660156 195.75 372.894531 203.714844 367.664062 210.53125 C 359.273438 221.464844 345.066406 228.550781 327.660156 230.480469 C 313.375 232.066406 297.316406 230.367188 279.703125 225.425781 C 295.652344 234.382812 308.207031 244.539062 317.191406 255.757812 C 328.132812 269.433594 333.167969 284.488281 331.371094 298.152344 C 330.246094 306.667969 326.574219 314.253906 320.742188 320.089844 C 314.90625 325.921875 307.320312 329.59375 298.804688 330.71875 C 296.988281 330.957031 295.148438 331.074219 293.292969 331.074219 C 281.164062 331.074219 268.269531 326.027344 256.410156 316.539062 C 245.191406 307.554688 235.035156 295 226.078125 279.050781 C 231.019531 296.664062 232.722656 312.722656 231.132812 327.007812 C 229.199219 344.414062 222.113281 358.617188 211.183594 367.011719 C 204.367188 372.238281 196.40625 375.003906 188.15625 375.003906 Z M 161.609375 255.445312 C 150.40625 282.492188 145.863281 306.460938 148.105469 326.679688 C 149.945312 343.28125 156.632812 356.773438 166.925781 364.671875 C 179.828125 374.566406 196.496094 374.566406 209.398438 364.671875 C 219.6875 356.773438 226.371094 343.277344 228.214844 326.679688 C 230.460938 306.460938 225.917969 282.492188 214.710938 255.445312 L 217.433594 254.316406 C 228.636719 281.367188 242.371094 301.527344 258.257812 314.234375 C 271.300781 324.671875 285.566406 329.484375 298.429688 327.792969 C 314.550781 325.667969 326.339844 313.882812 328.460938 297.761719 C 330.15625 284.894531 325.339844 270.632812 314.902344 257.585938 C 302.191406 241.703125 282.03125 227.96875 254.988281 216.761719 L 256.113281 214.042969 C 283.160156 225.246094 307.128906 229.789062 327.347656 227.546875 C 343.953125 225.707031 357.441406 219.019531 365.339844 208.726562 C 375.234375 195.824219 375.234375 179.15625 365.339844 166.253906 C 357.441406 155.964844 343.949219 149.28125 327.347656 147.4375 C 307.128906 145.191406 283.160156 149.734375 256.113281 160.9375 L 254.988281 158.21875 C 282.035156 147.015625 302.195312 133.28125 314.902344 117.394531 C 325.34375 104.355469 330.15625 90.085938 328.460938 77.222656 C 326.339844 61.101562 314.550781 49.3125 298.429688 47.191406 C 285.566406 45.496094 271.300781 50.3125 258.257812 60.75 C 242.371094 73.460938 228.636719 93.621094 217.433594 120.664062 L 214.710938 119.539062 C 225.917969 92.492188 230.460938 68.527344 228.214844 48.304688 C 226.375 31.699219 219.6875 18.210938 209.398438 10.3125 C 196.496094 0.417969 179.828125 0.417969 166.925781 10.3125 C 156.632812 18.210938 149.949219 31.703125 148.105469 48.304688 C 145.859375 68.527344 150.40625 92.492188 161.609375 119.539062 L 158.890625 120.664062 C 147.683594 93.617188 133.949219 73.457031 118.066406 60.75 C 105.023438 50.3125 90.757812 45.496094 77.890625 47.191406 C 61.769531 49.3125 49.984375 61.101562 47.859375 77.222656 C 46.167969 90.085938 50.984375 104.351562 61.417969 117.394531 C 74.132812 133.28125 94.289062 147.015625 121.335938 158.21875 L 120.207031 160.9375 C 93.160156 149.734375 69.191406 145.191406 48.972656 147.4375 C 32.371094 149.277344 18.878906 155.964844 10.980469 166.253906 C 1.085938 179.15625 1.085938 195.824219 10.980469 208.726562 C 18.878906 219.019531 32.375 225.703125 48.972656 227.546875 C 69.191406 229.785156 93.160156 225.246094 120.207031 214.042969 L 121.335938 216.761719 C 94.285156 227.96875 74.125 241.703125 61.417969 257.585938 C 50.980469 270.628906 46.167969 284.894531 47.859375 297.761719 C 49.984375 313.882812 61.769531 325.667969 77.890625 327.792969 C 90.757812 329.484375 105.019531 324.667969 118.066406 314.234375 C 133.949219 301.519531 147.683594 281.363281 158.890625 254.316406 Z M 161.609375 255.445312 " fill-opacity="1" fill-rule="nonzero"/></g></svg>