<?xml version="1.0" encoding="utf-8"?>
<!-- Generator: Adobe Illustrator 27.1.0, SVG Export Plug-In . SVG Version: 6.00 Build 0)  -->
<svg version="1.1" id="Layer_1" xmlns="http://www.w3.org/2000/svg" xmlns:xlink="http://www.w3.org/1999/xlink" x="0px" y="0px"
	 viewBox="0 0 600 600" style="enable-background:new 0 0 600 600;" xml:space="preserve">
<style type="text/css">
	.st0{fill:none;stroke:#121212;stroke-miterlimit:10;}
	.st1{fill:#121212;}
</style>
<ellipse class="st0" cx="300.09" cy="300.09" rx="199.83" ry="117"/>
<g>
	<path class="st1" d="M384.03,160.49c-0.04,0.22-0.33,0.27-0.87,0.16l-0.42-0.08c-0.36-0.07-1-0.2-1.94-0.39
		c-0.94-0.19-1.66-0.33-2.17-0.44c-0.76-0.15-1.65-0.33-2.67-0.53c-1.04-0.21-1.73-0.35-2.06-0.41l-0.27-0.05
		c-0.53-0.11-0.78-0.27-0.73-0.5c0.05-0.26,0.45-0.31,1.19-0.16c1.3,0.26,2.12,0.28,2.46,0.05c0.15-0.1,0.39-0.94,0.71-2.53
		l3.97-19.84c0,0.03-0.25,0.44-0.73,1.25c-1.64,2.88-4.06,7.22-7.24,13.02l-3,5.73c-0.6,1.13-0.97,1.67-1.12,1.64
		c-0.18-0.04-0.31-0.38-0.39-1.03c-0.27-2.47-1.19-8.68-2.76-18.62l-0.7-4.39c-0.1,0.48-0.23,1.15-0.4,1.99l-2.49,12.43
		c-0.93,4.67-1.37,7.03-1.3,7.1c0.11,0.37,0.69,0.66,1.74,0.86c0.84,0.17,1.24,0.38,1.19,0.63c-0.06,0.28-0.35,0.37-0.89,0.26
		c-0.33-0.07-0.63-0.15-0.9-0.26c-0.35-0.12-0.66-0.21-0.94-0.27l-4.43-0.73c-0.46-0.09-0.67-0.25-0.62-0.48
		c0.05-0.25,0.81-0.25,2.26,0.02c0.61,0.12,0.99,0.09,1.13-0.09c0.14-0.18,0.33-0.84,0.55-1.96l3.68-18.34
		c0.42-2.12,0.63-3.27,0.61-3.46c-0.03-0.38-0.2-0.66-0.5-0.86s-1-0.44-2.08-0.74c-0.4-0.11-0.58-0.26-0.54-0.47
		c0.06-0.28,0.46-0.35,1.21-0.2c0.1,0.02,0.32,0.06,0.66,0.13l2.01,0.4c1.52,0.3,2.59,0.51,3.22,0.61c0.06,0.36,0.4,2.51,1.01,6.46
		c0.27,1.65,1.01,6.44,2.2,14.37c0.81-1.56,1.64-3.1,2.46-4.61l6.62-11.82c0.4-0.68,0.74-1.23,1.03-1.67l5.68,1.1
		c0.83,0.17,1.3,0.3,1.41,0.4c0.11,0.1,0.15,0.23,0.12,0.38c-0.05,0.26-0.29,0.34-0.73,0.25c-0.71-0.14-1.2-0.21-1.47-0.21
		c-0.63-0.02-1.09,0.1-1.38,0.36c-0.16,0.15-0.53,1.64-1.09,4.45l-3.57,17.83c-0.21,1.02-0.22,1.64-0.06,1.86
		c0.29,0.3,1.09,0.58,2.42,0.84l0.23,0.05C383.84,160.12,384.08,160.28,384.03,160.49z"/>
	<path class="st1" d="M391.64,162.67c-0.05,0.21-0.23,0.28-0.54,0.21l-0.38-0.1c-0.13-0.11-1.84-0.59-5.11-1.43
		c-0.63-0.16-1.27-0.3-1.91-0.41c-0.33-0.06-0.84-0.17-1.52-0.35c-0.33-0.08-0.46-0.24-0.4-0.47c0.05-0.2,0.41-0.23,1.07-0.09
		c1.01,0.23,1.64,0.26,1.87,0.09s0.51-0.87,0.82-2.11l5.1-19.94c0.32-1.24,0.43-1.95,0.34-2.13c-0.09-0.29-0.75-0.62-1.99-0.99
		c-0.48-0.15-0.7-0.3-0.66-0.45c0.05-0.2,0.23-0.26,0.53-0.18l5.14,1.31c0.38,0.1,1.11,0.3,2.2,0.6l1.46,0.33
		c0.41,0.1,0.58,0.26,0.53,0.48c-0.05,0.19-0.64,0.17-1.77-0.07c-0.64-0.14-1.06-0.12-1.25,0.04c-0.19,0.17-0.4,0.68-0.62,1.53
		l-5.16,20.18c-0.37,1.44-0.5,2.23-0.41,2.39c0.21,0.35,0.98,0.72,2.33,1.12C391.58,162.31,391.69,162.46,391.64,162.67z"/>
	<path class="st1" d="M417.1,162.17c-0.06,0.2-0.21,0.27-0.43,0.2l-0.86-0.26c-1.13-0.4-1.83-0.4-2.12-0.01
		c-0.19,0.27-0.57,1.33-1.15,3.18l-0.37,1.19c-1.6,0.7-3.06,1.08-4.38,1.17c-1.32,0.08-2.8-0.13-4.44-0.64
		c-3.92-1.21-6.68-3.35-8.26-6.41s-1.75-6.6-0.51-10.63c1.26-4.07,3.41-7.02,6.44-8.83c3.04-1.81,6.4-2.14,10.11-1
		c1.61,0.5,3.24,1.49,4.88,2.98c0.49,0.45,0.92,0.73,1.29,0.85c0.47,0.15,0.87-0.06,1.21-0.61c0.23-0.31,0.43-0.44,0.61-0.38
		c0.2,0.06,0.27,0.19,0.21,0.39c-0.02,0.07-0.13,0.33-0.31,0.76c-0.57,1.38-0.95,2.37-1.14,3l-0.75,2.42
		c-0.24,0.88-0.35,1.27-0.32,1.17c-0.23,0.58-0.49,0.83-0.76,0.74c-0.22-0.07-0.29-0.28-0.21-0.64c0.62-2.46,0.52-4.58-0.32-6.35
		s-2.29-2.98-4.35-3.62c-2.58-0.8-4.99-0.27-7.2,1.58c-2.22,1.85-3.94,4.77-5.18,8.76c-1.19,3.84-1.36,7.12-0.53,9.85
		c0.83,2.73,2.55,4.49,5.16,5.3c1.99,0.61,3.53,0.47,4.63-0.44c0.55-0.45,1.05-1.42,1.51-2.91c0.38-1.24,0.49-2,0.32-2.3
		c-0.17-0.3-0.95-0.65-2.35-1.05c-0.35-0.11-0.57-0.19-0.65-0.26c-0.09-0.07-0.11-0.16-0.08-0.29c0.08-0.27,0.4-0.32,0.95-0.15
		l0.67,0.21c0.36,0.14,1.68,0.55,3.95,1.22l3.13,0.97c0.17,0.05,0.36,0.11,0.56,0.17c0.2,0.06,0.34,0.1,0.41,0.13
		C416.95,161.76,417.17,161.95,417.1,162.17z"/>
	<path class="st1" d="M435.16,177.95c-0.09,0.22-0.36,0.24-0.81,0.05l-4.96-1.97c-0.34-0.13-0.83-0.33-1.47-0.59
		c-0.65-0.26-1.13-0.45-1.44-0.57c-0.48-0.19-0.68-0.38-0.6-0.58c0.08-0.19,0.69-0.1,1.84,0.27c0.62,0.19,1,0.23,1.16,0.11
		c0.16-0.12,0.43-0.66,0.81-1.62l4.2-10.55l-10.91-4.34l-4.08,10.25c-0.43,1.09-0.6,1.76-0.51,2.02c0.09,0.26,0.61,0.62,1.54,1.08
		c0.61,0.3,0.88,0.53,0.81,0.7c-0.09,0.22-0.37,0.23-0.85,0.04l-0.33-0.13c-0.58-0.23-1.19-0.47-1.83-0.73
		c-0.64-0.25-1.02-0.41-1.14-0.45c-0.34-0.13-0.85-0.34-1.52-0.61c-0.68-0.27-1.69-0.67-3.04-1.21c-0.48-0.19-0.69-0.38-0.61-0.58
		c0.08-0.19,0.37-0.22,0.87-0.07c0.32,0.1,0.66,0.21,1.01,0.32c0.55,0.16,0.94,0.18,1.16,0.04c0.12-0.09,0.43-0.75,0.92-1.98
		l7.6-19.1c0.43-1.09,0.63-1.75,0.6-1.98c-0.03-0.24-0.37-0.5-1.01-0.78c-0.73-0.35-1.16-0.56-1.28-0.64
		c-0.12-0.08-0.15-0.21-0.08-0.38c0.08-0.2,0.28-0.24,0.59-0.12c0.1,0.04,0.3,0.13,0.6,0.28c0.58,0.29,2,0.88,4.25,1.77
		c1.23,0.49,2.1,0.81,2.59,0.97c0.18,0.03,0.41,0.1,0.67,0.21c0.43,0.17,0.6,0.38,0.51,0.62c-0.09,0.22-0.52,0.17-1.31-0.14
		s-1.29-0.41-1.52-0.29c-0.23,0.12-0.54,0.66-0.92,1.63l-3.33,8.36l10.91,4.34l3.11-7.82c0.51-1.28,0.71-2.08,0.61-2.39
		c-0.1-0.31-0.74-0.68-1.91-1.12c-0.36-0.14-0.5-0.33-0.41-0.54s0.34-0.25,0.75-0.08l0.18,0.07c0.34,0.13,0.93,0.37,1.78,0.71
		c0.87,0.35,1.52,0.61,1.96,0.78c1.47,0.59,2.47,0.98,2.99,1.19s0.85,0.34,1,0.4c0.51,0.2,0.72,0.41,0.63,0.63
		c-0.09,0.22-0.67,0.13-1.74-0.27c-0.31-0.12-0.55-0.19-0.72-0.2c-0.27-0.02-0.47,0.05-0.61,0.22c-0.14,0.17-0.39,0.72-0.77,1.67
		l-7.67,19.28c-0.46,1.16-0.67,1.86-0.63,2.1c0.13,0.36,0.77,0.77,1.92,1.22C435.1,177.54,435.25,177.71,435.16,177.95z"/>
	<path class="st1" d="M461.44,169.06c-0.15,0.3-0.37,0.39-0.64,0.25c-0.28-0.14-0.33-0.54-0.14-1.2c0.16-0.44,0.32-0.89,0.48-1.33
		c0.25-0.92,0.34-1.76,0.25-2.53c-0.11-1.01-0.67-1.9-1.68-2.66c-0.65-0.5-1.21-0.84-1.66-1.04c-1.11-0.51-1.79-0.82-2.03-0.92
		l-10.45,21.11c-0.42,0.84-0.46,1.48-0.12,1.9c0.17,0.23,0.79,0.63,1.85,1.18c0.27,0.16,0.36,0.33,0.27,0.5
		c-0.1,0.2-0.33,0.2-0.71,0.02c-0.19-0.09-0.34-0.19-0.47-0.28c-1.38-0.74-2.35-1.25-2.94-1.54c-0.77-0.38-1.5-0.72-2.19-1.02
		c-0.69-0.3-1.56-0.71-2.61-1.23c-0.54-0.27-0.76-0.49-0.67-0.68c0.1-0.21,0.66-0.08,1.68,0.39c0.72,0.36,1.26,0.44,1.62,0.24
		c0.21-0.13,0.5-0.58,0.88-1.35l10.38-20.97c-2.32-1.12-3.81-1.71-4.47-1.78c-1.73-0.19-3.31,0.82-4.72,3.02
		c-0.42,0.66-0.75,0.93-1.01,0.81c-0.28-0.14-0.3-0.45-0.06-0.94c0.13-0.26,0.27-0.51,0.42-0.75l0.47-0.77
		c0.6-1.04,1.4-2.4,2.41-4.07l1.57,0.78l7.08,3.64c0.83,0.44,2.13,1.08,3.91,1.94l5.85,2.77c-0.6,1.33-1.41,3.34-2.42,6.03
		c-0.04,0.07-0.07,0.16-0.09,0.28C461.47,168.97,461.45,169.04,461.44,169.06z"/>
	<path class="st1" d="M484.18,174.94c-0.1,0.17-0.34,0.14-0.72-0.09c-1.24-0.71-2.13-0.96-2.66-0.72c-0.42,0.09-2.53,1.42-6.33,4.01
		c-1.69,1.14-3.21,2.12-4.58,2.93c-0.94,0.56-1.54,0.97-1.79,1.23c-0.25,0.26-0.67,0.9-1.28,1.9l-3.81,6.34
		c-0.44,0.74-0.61,1.23-0.5,1.48c0.11,0.25,0.71,0.75,1.81,1.5c0.58,0.4,0.81,0.69,0.71,0.86c-0.1,0.17-0.31,0.16-0.62-0.03
		l-0.4-0.24l-4.62-2.91c-1.31-0.79-2.41-1.42-3.28-1.88c-0.15-0.06-0.31-0.14-0.49-0.25c-0.31-0.19-0.4-0.39-0.28-0.6
		s0.45-0.17,0.98,0.11c1.25,0.69,2.04,1.02,2.37,0.97c0.33-0.04,0.76-0.51,1.29-1.4l4.22-7.03c0.07-0.62,0.21-2.32,0.41-5.08
		l0.64-8.63c0.05-0.85,0.09-1.81,0.1-2.9c-0.11-0.37-0.57-0.8-1.39-1.29s-1.15-0.86-1-1.1c0.11-0.18,0.34-0.16,0.7,0.05
		c0.47,0.28,1.39,0.87,2.77,1.75c0.79,0.5,1.36,0.86,1.72,1.08l3.91,2.28c0.18,0.06,0.37,0.15,0.57,0.27c0.4,0.24,0.53,0.47,0.4,0.7
		c-0.12,0.2-0.56,0.07-1.32-0.38c-1.38-0.83-2.22-1-2.52-0.51c-0.23,0.38-0.45,2.34-0.67,5.87l-0.42,7.57
		c1.15-0.66,2.52-1.51,4.11-2.54l4.36-2.79c1.61-0.99,2.55-1.7,2.82-2.15c0.17-0.29,0.09-0.57-0.26-0.85
		c-0.71-0.58-1.21-0.94-1.49-1.08c-0.5-0.27-0.68-0.53-0.53-0.78c0.11-0.18,0.37-0.14,0.8,0.11l1.94,1.17l1.1,0.66
		C483.27,173.88,484.34,174.66,484.18,174.94z"/>
	<path class="st1" d="M502.79,188.97c-0.16,0.21-0.49,0.11-0.99-0.3l-0.69-0.51l-0.56-0.42c-0.33-0.25-0.57-0.34-0.72-0.27
		c-0.15,0.07-0.44,0.39-0.87,0.98l-13.39,18c-0.82,1.1-1.31,1.74-1.47,1.91c-0.16,0.17-0.29,0.22-0.4,0.14
		c-0.12-0.09-0.18-0.32-0.18-0.67l0.36-8.83c0.22-5.14,0.58-11.5,1.06-19.09l-13.04,17.52c-0.18,0.29-0.15,0.58,0.09,0.87
		c0.24,0.29,0.91,0.87,2.01,1.72c0.27,0.2,0.35,0.39,0.22,0.56c-0.16,0.21-0.5,0.11-1.05-0.29c-0.19-0.14-0.76-0.61-1.71-1.42
		c-0.32-0.27-0.63-0.52-0.95-0.75c0.02,0.02-0.18-0.1-0.59-0.34s-1.02-0.66-1.81-1.25l-0.31-0.23c-0.48-0.36-0.65-0.63-0.51-0.82
		c0.14-0.19,0.42-0.13,0.83,0.18c1.25,0.9,2.02,1.35,2.32,1.36c0.3,0.01,0.73-0.36,1.29-1.11l11.49-15.45
		c1.29-1.73,1.74-3.08,1.36-4.05c-0.18-0.46-0.7-1-1.55-1.64c-0.54-0.4-0.73-0.71-0.57-0.93c0.15-0.2,0.38-0.18,0.69,0.05
		c0.42,0.31,0.93,0.73,1.55,1.25c0.62,0.52,0.94,0.8,0.99,0.83c0.06,0.05,0.36,0.25,0.9,0.62c0.69,0.51,1.38,0.98,2.07,1.4
		l-1.19,24.15l10.36-13.92c0.48-0.65,0.76-1.05,0.84-1.2c0.08-0.15,0.07-0.32-0.02-0.5s-0.57-0.59-1.42-1.23
		c-0.75-0.56-1.06-0.93-0.92-1.12c0.16-0.21,0.48-0.13,0.98,0.25l1.1,0.81c0.27,0.2,0.56,0.42,0.88,0.65
		c0.33,0.25,0.53,0.4,0.59,0.44c0.02,0.02,0.21,0.15,0.56,0.42c0.33,0.25,0.65,0.48,0.94,0.7l0.97,0.72
		C502.8,188.48,502.95,188.76,502.79,188.97z"/>
	<path class="st1" d="M502.72,225.19c-0.15,0.16-0.37,0.11-0.65-0.16c-0.19-0.18-0.35-0.35-0.49-0.51l-3.51-3.5l-3.72-3.27
		c-0.15-0.11-0.3-0.23-0.45-0.37c-0.38-0.36-0.48-0.63-0.29-0.83c0.21-0.22,0.56-0.09,1.08,0.39c1.69,1.54,2.68,2.16,2.98,1.84
		c0.02-0.02,0.07-0.11,0.15-0.28l0.47-0.97l0.23-0.53c0.38-0.75,1.18-2.44,2.4-5.08l-6.09-5.7c-3.98,1.97-6.18,3.19-6.61,3.64
		c-0.25,0.27-0.29,0.53-0.11,0.8c0.04,0.07,0.48,0.55,1.32,1.45c0.53,0.53,0.72,0.89,0.56,1.06c-0.18,0.19-0.51,0.05-1.01-0.41
		c-0.87-0.82-1.85-1.81-2.94-2.97c-0.27-0.29-0.55-0.57-0.86-0.85c-0.3-0.28-0.63-0.53-0.97-0.73c-0.18-0.11-0.32-0.21-0.42-0.3
		c-0.27-0.25-0.32-0.46-0.16-0.63c0.16-0.17,0.55,0.01,1.16,0.55c0.62,0.54,1.13,0.85,1.55,0.94c0.42,0.09,0.92-0.03,1.5-0.34
		c9-4.72,16.26-8.49,21.77-11.3c0.25-0.18,0.58-0.35,0.97-0.51l0.61-0.41c0.25-0.16,0.43-0.19,0.52-0.1
		c0.06,0.05,0.05,0.15-0.02,0.3c-0.45,0.97-1.33,3.04-2.67,6.21c-1.04,2.48-3.67,8.69-7.88,18.64c-0.25,0.57-0.31,1.03-0.18,1.37
		s0.55,0.87,1.28,1.58C502.71,224.7,502.87,225.03,502.72,225.19z M501.39,211.15c0.49-1.14,1.3-3.04,2.44-5.68l2.33-5.23
		c-2.77,1.35-6.28,3.18-10.55,5.49L501.39,211.15z"/>
	<path class="st1" d="M535.46,223.7c-0.16,0.13-0.41,0.02-0.74-0.35c-0.75-0.87-1.37-1.35-1.86-1.45c-0.49-0.1-1.31,0.05-2.46,0.46
		l-3.65,1.29c-8.81,3.12-15.45,5.68-19.89,7.66c-0.29,0.14-0.49,0.14-0.61,0c-0.13-0.16,0.35-1.11,1.44-2.85
		c2-3.17,3.49-5.57,4.46-7.22c1.08-1.8,2.71-4.47,4.87-8.02l2.85-4.81c0.4-0.66,0.59-1.19,0.58-1.59c-0.01-0.4-0.23-0.89-0.68-1.46
		c-0.53-0.68-0.83-1.09-0.92-1.24c-0.09-0.15-0.06-0.28,0.08-0.39c0.18-0.15,0.44-0.02,0.77,0.38l0.22,0.27
		c0.3,0.36,0.8,1,1.51,1.92s1.22,1.57,1.53,1.95c0.08,0.1,0.42,0.47,1,1.12c0.58,0.65,1.39,1.59,2.41,2.84l0.35,0.42
		c0.3,0.36,0.36,0.62,0.17,0.77c-0.2,0.17-0.61-0.1-1.22-0.81l-1.58-1.78c-0.37-0.4-0.68-0.5-0.93-0.3
		c-0.04,0.03-0.11,0.12-0.2,0.27l-0.62,0.9c-0.13,0.17-2.14,3.48-6.05,9.93c-0.68,1.1-1.98,3.2-3.89,6.29
		c12.1-4.43,18.39-6.84,18.87-7.24c0.46-0.38,0.27-1.05-0.58-2l-0.77-0.93c-0.2-0.24-0.21-0.44-0.03-0.58
		c0.22-0.18,0.58,0.03,1.08,0.63c0.1,0.12,0.38,0.46,0.84,1.02c0.4,0.61,0.71,1.05,0.93,1.31l0.79,0.96l1.73,1.91
		C535.55,223.32,535.62,223.57,535.46,223.7z"/>
	<path class="st1" d="M518.01,246.32c-0.18,0.12-0.36,0.05-0.53-0.21l-0.21-0.33c-0.02-0.17-0.96-1.67-2.82-4.5
		c-0.36-0.54-0.74-1.07-1.14-1.59c-0.21-0.27-0.5-0.7-0.89-1.28c-0.19-0.28-0.18-0.49,0.01-0.62c0.17-0.11,0.46,0.1,0.85,0.65
		c0.59,0.85,1.03,1.3,1.32,1.33c0.29,0.03,0.96-0.31,2.03-1.01l17.19-11.31c1.07-0.7,1.63-1.15,1.69-1.35
		c0.13-0.28-0.14-0.97-0.8-2.07c-0.26-0.43-0.32-0.69-0.18-0.78c0.17-0.11,0.34-0.04,0.52,0.22l2.92,4.43
		c0.22,0.33,0.62,0.97,1.22,1.93l0.85,1.23c0.23,0.35,0.25,0.59,0.07,0.71c-0.17,0.11-0.59-0.31-1.26-1.25
		c-0.38-0.54-0.7-0.81-0.96-0.81c-0.25-0.01-0.75,0.23-1.49,0.72L519,241.89c-1.24,0.81-1.88,1.31-1.91,1.49
		c-0.08,0.4,0.24,1.2,0.97,2.4C518.21,246.02,518.2,246.2,518.01,246.32z"/>
	<path class="st1" d="M535.81,264.02c-0.19,0.09-0.33,0.03-0.44-0.18l-0.4-0.81c-0.48-1.1-0.96-1.61-1.45-1.55
		c-0.33,0.04-1.36,0.49-3.1,1.35l-1.12,0.55c-1.61-0.69-2.89-1.48-3.85-2.39s-1.82-2.12-2.58-3.67c-1.81-3.69-2.15-7.16-1.01-10.41
		c1.14-3.25,3.6-5.81,7.38-7.66c3.83-1.88,7.44-2.34,10.84-1.37c3.4,0.97,5.95,3.19,7.66,6.67c0.74,1.52,1.14,3.38,1.18,5.59
		c0.01,0.66,0.1,1.17,0.27,1.52c0.22,0.44,0.64,0.6,1.27,0.46c0.38-0.04,0.62,0.02,0.7,0.18c0.09,0.19,0.04,0.33-0.14,0.42
		c-0.07,0.03-0.33,0.13-0.76,0.3c-1.39,0.53-2.38,0.94-2.96,1.23l-2.28,1.12c-0.81,0.42-1.16,0.61-1.07,0.57
		c-0.58,0.23-0.94,0.21-1.06-0.04c-0.1-0.21,0-0.41,0.32-0.59c2.22-1.23,3.68-2.76,4.4-4.59c0.72-1.83,0.6-3.71-0.35-5.65
		c-1.19-2.43-3.22-3.81-6.09-4.16c-2.87-0.34-6.18,0.4-9.92,2.24c-3.6,1.77-6.11,3.89-7.53,6.37c-1.41,2.48-1.52,4.94-0.32,7.39
		c0.92,1.87,2.08,2.89,3.49,3.06c0.71,0.09,1.76-0.21,3.15-0.89c1.16-0.57,1.79-1.02,1.89-1.34c0.1-0.33-0.18-1.13-0.85-2.43
		c-0.16-0.33-0.25-0.55-0.26-0.66s0.04-0.19,0.16-0.25c0.26-0.13,0.51,0.07,0.76,0.58l0.31,0.63c0.15,0.36,0.75,1.6,1.82,3.71
		l1.44,2.94c0.08,0.16,0.17,0.34,0.26,0.53c0.09,0.19,0.15,0.32,0.19,0.38C536.01,263.63,536.02,263.92,535.81,264.02z"/>
	<path class="st1" d="M533.3,286.95c-0.21,0.06-0.37-0.1-0.47-0.48c-0.07-0.25-0.12-0.48-0.15-0.69l-1.15-4.82l-1.45-4.74
		c-0.07-0.17-0.14-0.35-0.19-0.55c-0.14-0.5-0.07-0.79,0.19-0.86c0.29-0.08,0.53,0.22,0.71,0.9c0.63,2.2,1.15,3.24,1.57,3.13
		c0.02-0.01,0.12-0.06,0.27-0.16l0.91-0.58l0.47-0.34c0.72-0.44,2.29-1.46,4.71-3.06l-2.19-8.04c-4.42-0.41-6.94-0.53-7.54-0.37
		c-0.35,0.1-0.52,0.3-0.52,0.63c0,0.08,0.12,0.72,0.36,1.92c0.17,0.73,0.15,1.13-0.08,1.19c-0.25,0.07-0.46-0.22-0.64-0.88
		c-0.32-1.15-0.63-2.51-0.95-4.07c-0.08-0.38-0.17-0.78-0.28-1.18s-0.26-0.78-0.44-1.13c-0.1-0.19-0.16-0.35-0.2-0.47
		c-0.1-0.35-0.03-0.56,0.2-0.62c0.23-0.06,0.46,0.3,0.7,1.08s0.52,1.32,0.83,1.61c0.31,0.29,0.79,0.46,1.45,0.49
		c10.14,0.7,18.3,1.3,24.46,1.79c0.31-0.02,0.68,0,1.09,0.08l0.73-0.03c0.3,0,0.46,0.06,0.5,0.19c0.02,0.08-0.04,0.16-0.17,0.25
		c-0.89,0.59-2.73,1.89-5.53,3.89c-2.19,1.57-7.68,5.48-16.49,11.73c-0.51,0.36-0.8,0.71-0.87,1.07c-0.07,0.36,0.02,1.03,0.26,2.01
		C533.55,286.53,533.51,286.89,533.3,286.95z M539.53,274.3c1.02-0.72,2.7-1.9,5.05-3.56l4.72-3.23c-3.06-0.3-7.02-0.59-11.86-0.86
		L539.53,274.3z"/>
	<path class="st1" d="M553.57,301.56c-0.34,0.03-0.52-0.12-0.54-0.43c-0.02-0.31,0.3-0.56,0.96-0.74c0.46-0.09,0.92-0.18,1.39-0.26
		c0.92-0.25,1.69-0.61,2.3-1.08c0.81-0.61,1.29-1.54,1.43-2.81c0.09-0.82,0.11-1.47,0.05-1.96c-0.13-1.22-0.21-1.95-0.25-2.21
		l-23.49,1.79c-0.93,0.07-1.5,0.36-1.7,0.87c-0.11,0.27-0.13,1-0.07,2.2c0,0.31-0.1,0.48-0.29,0.49c-0.22,0.02-0.35-0.18-0.38-0.6
		c-0.02-0.21-0.02-0.39,0-0.55c-0.07-1.56-0.12-2.66-0.17-3.31c-0.07-0.86-0.15-1.66-0.24-2.41c-0.1-0.75-0.19-1.71-0.28-2.87
		c-0.05-0.6,0.04-0.9,0.24-0.92c0.23-0.02,0.41,0.53,0.52,1.64c0.06,0.8,0.27,1.31,0.62,1.52c0.22,0.11,0.75,0.14,1.61,0.07
		l23.33-1.78c-0.22-2.56-0.47-4.15-0.75-4.75c-0.72-1.59-2.39-2.43-5-2.51c-0.78-0.02-1.19-0.17-1.21-0.46
		c-0.02-0.31,0.24-0.49,0.78-0.53c0.29-0.02,0.57-0.03,0.86-0.03l0.9,0.01c1.2-0.01,2.78-0.02,4.73-0.01l0.13,1.75l0.49,7.94
		c0.04,0.93,0.16,2.39,0.33,4.35l0.61,6.45c-1.45,0.16-3.59,0.49-6.42,1c-0.08,0.01-0.17,0.03-0.29,0.06
		C553.66,301.54,553.59,301.56,553.57,301.56z"/>
	<path class="st1" d="M543.55,327.1c-3.84-0.54-6.92-2.14-9.25-4.82s-3.26-5.69-2.79-9.04c0.5-3.55,2.26-6.35,5.29-8.39
		c3.03-2.04,6.51-2.79,10.45-2.24c4.02,0.56,7.14,2.19,9.38,4.88c2.24,2.69,3.1,5.85,2.59,9.48c-0.48,3.42-2.22,6.11-5.22,8.05
		C551,326.96,547.52,327.65,543.55,327.1z M543.96,322.75c4.73,0.66,8.54,0.21,11.45-1.35c1.82-0.98,2.88-2.55,3.19-4.71
		c0.29-2.06-0.12-3.75-1.23-5.06c-2.03-2.41-5.67-3.98-10.91-4.72c-4.16-0.58-7.49-0.31-9.99,0.83s-3.94,3.01-4.3,5.64
		c-0.34,2.45,0.48,4.44,2.48,5.98C536.85,321.05,539.96,322.19,543.96,322.75z"/>
	<path class="st1" d="M524.1,344.53c-1.03-0.37-1.23-1.41-0.61-3.12c0.69-1.91,2.03-3.11,4-3.61c0.85-0.22,1.62-0.28,2.31-0.18
		c0.68,0.1,2.37,0.48,5.06,1.15c1.62,0.42,2.91,0.32,3.86-0.3s1.81-1.89,2.56-3.8l-11.55-4.19c-0.49-0.18-0.94,0.1-1.34,0.84
		c-0.1,0.21-0.33,0.76-0.68,1.66c-0.11,0.32-0.27,0.44-0.47,0.37c-0.22-0.08-0.25-0.33-0.1-0.74l0.16-0.44
		c0.08-0.22,0.46-1.28,1.16-3.19c0.13-0.37,0.36-0.99,0.68-1.87c0.31-0.86,0.51-1.42,0.61-1.69l0.52-1.43
		c0.2-0.54,0.4-0.77,0.62-0.69c0.17,0.06,0.14,0.45-0.09,1.17c-0.39,1.16-0.47,1.83-0.24,2.03c0.09,0.14,0.54,0.36,1.38,0.67
		l20.24,7.33c0.98,0.35,1.6,0.46,1.87,0.33s0.61-0.73,1.01-1.77c0.22-0.61,0.44-0.88,0.66-0.8c0.24,0.09,0.3,0.33,0.15,0.72
		c-0.03,0.07-0.08,0.18-0.16,0.32l-1.88,4.84c-0.18,0.49-0.41,1.18-0.7,2.07c-0.29,1-0.5,1.7-0.65,2.09
		c-0.82,2.27-1.99,3.89-3.48,4.86c-1.5,0.96-3.11,1.13-4.85,0.5c-1.71-0.62-2.88-1.82-3.49-3.59c-0.62-1.77-0.6-3.87,0.06-6.28
		c0.05-0.23,0.06-0.37,0.02-0.41c-0.1-0.04-0.19,0.07-0.28,0.31c-1.37,2.41-2.91,3.85-4.62,4.32c-1.71,0.47-4.4,0.22-8.07-0.75
		c-2.08-0.53-3.33-0.21-3.76,0.96c-0.13,0.37-0.13,0.58,0.02,0.63c0.02,0.01,0.05,0,0.09-0.01c0.31-0.03,0.56-0.01,0.73,0.06
		c0.51,0.19,0.67,0.55,0.48,1.09C525.12,344.57,524.71,344.75,524.1,344.53z M545.22,343.6c3.5,1.27,5.79,0.38,6.89-2.65
		c0.29-0.81,0.38-1.4,0.27-1.77s-0.45-0.66-1.01-0.87l-9.31-3.38c-0.88,2.34-1.06,4.18-0.56,5.54
		C542,341.84,543.24,342.88,545.22,343.6z"/>
	<path class="st1" d="M531.62,358.17c-1.44-0.79-1.96-2.59-1.18-4.02c0.79-1.44,2.57-1.93,4-1.14s1.98,2.55,1.2,3.99
		C534.86,358.43,533.06,358.95,531.62,358.17z"/>
	<path class="st1" d="M500.35,376.81c-0.17-0.14-0.1-0.42,0.24-0.85l0.26-0.34c0.22-0.29,0.63-0.81,1.21-1.57s1.04-1.34,1.36-1.75
		c0.48-0.61,1.03-1.33,1.67-2.15c0.65-0.84,1.08-1.39,1.29-1.66l0.17-0.22c0.33-0.43,0.59-0.57,0.78-0.43
		c0.21,0.16,0.08,0.54-0.38,1.13c-0.81,1.05-1.19,1.77-1.14,2.17c0.02,0.18,0.67,0.77,1.95,1.76l15.99,12.4
		c-0.02-0.02-0.29-0.42-0.79-1.21c-1.84-2.75-4.65-6.85-8.43-12.29l-3.8-5.23c-0.74-1.04-1.07-1.62-0.97-1.74
		c0.11-0.14,0.48-0.11,1.1,0.11c2.33,0.86,8.3,2.8,17.9,5.82l4.24,1.33c-0.39-0.3-0.92-0.72-1.6-1.24l-10.02-7.77
		c-3.76-2.92-5.68-4.36-5.77-4.33c-0.38-0.06-0.89,0.33-1.55,1.17c-0.53,0.68-0.89,0.94-1.09,0.78c-0.23-0.18-0.17-0.48,0.16-0.91
		c0.21-0.27,0.42-0.5,0.63-0.69c0.26-0.26,0.48-0.5,0.66-0.72l2.62-3.64c0.29-0.37,0.52-0.48,0.71-0.34
		c0.21,0.16-0.13,0.83-1.02,2.02c-0.38,0.49-0.52,0.84-0.42,1.05c0.1,0.21,0.6,0.67,1.51,1.37l14.79,11.46
		c1.71,1.32,2.65,2.02,2.83,2.09c0.35,0.14,0.68,0.12,0.99-0.07c0.31-0.19,0.84-0.7,1.59-1.53c0.27-0.31,0.5-0.41,0.66-0.28
		c0.23,0.17,0.11,0.56-0.36,1.17c-0.06,0.08-0.2,0.26-0.41,0.53l-1.26,1.62c-0.95,1.23-1.61,2.09-1.98,2.61
		c-0.35-0.11-2.42-0.76-6.24-1.97c-1.6-0.49-6.21-1.97-13.85-4.43c1.04,1.43,2.04,2.84,3.03,4.26l7.63,11.19
		c0.43,0.66,0.77,1.21,1.04,1.67l-3.51,4.59c-0.52,0.67-0.85,1.03-0.99,1.08c-0.14,0.05-0.27,0.03-0.4-0.06
		c-0.21-0.16-0.17-0.41,0.1-0.76c0.45-0.58,0.73-0.98,0.85-1.22c0.3-0.56,0.4-1.02,0.29-1.4c-0.06-0.21-1.23-1.2-3.5-2.96
		l-14.37-11.14c-0.82-0.64-1.37-0.93-1.64-0.88c-0.39,0.12-1,0.72-1.83,1.79l-0.14,0.19C500.77,376.81,500.52,376.94,500.35,376.81z
		"/>
	<path class="st1" d="M494.61,381.8c-0.16-0.15-0.13-0.34,0.09-0.57l0.27-0.28c0.17-0.06,1.43-1.29,3.79-3.71
		c0.45-0.46,0.89-0.95,1.31-1.45c0.22-0.26,0.57-0.64,1.06-1.14c0.24-0.24,0.44-0.28,0.61-0.12c0.15,0.14,0,0.47-0.46,0.97
		c-0.71,0.76-1.05,1.29-1.02,1.57c0.03,0.29,0.5,0.87,1.42,1.77l14.72,14.37c0.91,0.89,1.47,1.35,1.68,1.36
		c0.3,0.07,0.92-0.34,1.85-1.23c0.37-0.34,0.61-0.46,0.72-0.34c0.15,0.14,0.11,0.33-0.11,0.55l-3.71,3.8
		c-0.27,0.28-0.81,0.82-1.62,1.6l-1.02,1.1c-0.29,0.3-0.52,0.37-0.68,0.22c-0.14-0.14,0.18-0.64,0.95-1.5
		c0.44-0.49,0.64-0.86,0.59-1.11c-0.05-0.25-0.39-0.68-1.02-1.3l-14.9-14.55c-1.06-1.04-1.68-1.55-1.87-1.55
		c-0.41,0-1.12,0.49-2.13,1.46C494.94,381.93,494.76,381.95,494.61,381.8z"/>
	<path class="st1" d="M481.66,403.48c-0.14-0.16-0.12-0.31,0.06-0.47l0.68-0.58c0.94-0.74,1.32-1.33,1.14-1.79
		c-0.12-0.3-0.81-1.19-2.08-2.67l-0.81-0.94c0.27-1.73,0.72-3.17,1.36-4.33c0.64-1.16,1.61-2.29,2.91-3.41
		c3.12-2.67,6.4-3.85,9.84-3.56s6.52,2.05,9.26,5.25c2.77,3.24,4.11,6.63,4.01,10.16s-1.61,6.56-4.56,9.08
		c-1.28,1.1-2.99,1.94-5.12,2.53c-0.64,0.17-1.11,0.38-1.41,0.64c-0.38,0.32-0.42,0.77-0.13,1.34c0.14,0.36,0.14,0.6,0,0.72
		c-0.16,0.13-0.3,0.12-0.44-0.03c-0.05-0.06-0.21-0.28-0.48-0.67c-0.86-1.22-1.5-2.07-1.92-2.56l-1.65-1.93
		c-0.61-0.67-0.88-0.97-0.82-0.89c-0.37-0.51-0.44-0.86-0.22-1.04c0.18-0.15,0.4-0.1,0.65,0.16c1.75,1.84,3.59,2.88,5.54,3.12
		c1.95,0.24,3.75-0.34,5.39-1.74c2.06-1.76,2.89-4.07,2.51-6.93c-0.38-2.87-1.92-5.88-4.63-9.06c-2.61-3.05-5.29-4.96-8.04-5.71
		c-2.75-0.76-5.16-0.25-7.24,1.53c-1.58,1.35-2.28,2.73-2.1,4.14c0.09,0.71,0.64,1.65,1.65,2.83c0.84,0.98,1.43,1.48,1.77,1.5
		c0.34,0.02,1.05-0.46,2.14-1.42c0.28-0.24,0.47-0.37,0.57-0.41s0.2-0.01,0.28,0.09c0.18,0.22,0.06,0.51-0.38,0.88l-0.53,0.46
		c-0.31,0.23-1.36,1.13-3.14,2.69l-2.49,2.13c-0.14,0.12-0.29,0.25-0.45,0.38c-0.16,0.14-0.27,0.23-0.33,0.28
		C482.08,403.57,481.81,403.65,481.66,403.48z"/>
	<path class="st1" d="M458.3,409.35c-0.13-0.19,0.01-0.43,0.42-0.7l4.44-2.97c0.3-0.2,0.74-0.5,1.32-0.88s1.01-0.67,1.29-0.86
		c0.43-0.29,0.7-0.34,0.82-0.17c0.12,0.17-0.31,0.63-1.27,1.36c-0.5,0.4-0.75,0.7-0.75,0.9c0.01,0.2,0.3,0.73,0.88,1.59l6.32,9.44
		l9.76-6.53l-6.14-9.17c-0.65-0.97-1.11-1.49-1.38-1.57c-0.27-0.07-0.85,0.15-1.76,0.66c-0.59,0.33-0.94,0.42-1.04,0.27
		c-0.13-0.19,0.02-0.44,0.45-0.73l0.29-0.2c0.52-0.35,1.06-0.71,1.64-1.09c0.57-0.38,0.91-0.61,1.02-0.68
		c0.3-0.2,0.76-0.51,1.36-0.91c0.6-0.4,1.51-1.01,2.72-1.82c0.43-0.29,0.71-0.35,0.82-0.17c0.12,0.17-0.03,0.42-0.43,0.76
		c-0.27,0.21-0.54,0.43-0.83,0.65c-0.45,0.36-0.68,0.67-0.69,0.93c0.01,0.15,0.38,0.78,1.12,1.88l11.43,17.09
		c0.65,0.97,1.08,1.51,1.29,1.62s0.62-0.02,1.22-0.39c0.7-0.4,1.12-0.63,1.25-0.69c0.13-0.06,0.25-0.01,0.36,0.15
		c0.12,0.18,0.04,0.37-0.24,0.56c-0.09,0.06-0.28,0.17-0.57,0.34c-0.57,0.32-1.86,1.15-3.87,2.49c-1.1,0.74-1.86,1.27-2.27,1.59
		c-0.13,0.13-0.31,0.28-0.55,0.44c-0.39,0.26-0.66,0.28-0.8,0.07c-0.13-0.2,0.16-0.53,0.86-1c0.7-0.47,1.07-0.83,1.1-1.09
		c0.03-0.26-0.24-0.82-0.82-1.69l-5-7.48l-9.76,6.53l4.68,6.99c0.77,1.15,1.31,1.77,1.62,1.86c0.31,0.09,0.98-0.22,2-0.94
		c0.32-0.22,0.55-0.23,0.68-0.03s0.01,0.42-0.35,0.66l-0.16,0.11c-0.3,0.2-0.83,0.56-1.59,1.06c-0.78,0.52-1.36,0.91-1.75,1.17
		c-1.32,0.88-2.21,1.48-2.67,1.79s-0.76,0.51-0.89,0.6c-0.45,0.3-0.75,0.36-0.88,0.16c-0.13-0.2,0.27-0.62,1.21-1.28
		c0.28-0.19,0.47-0.35,0.57-0.48c0.17-0.21,0.23-0.42,0.17-0.63s-0.37-0.73-0.94-1.58l-11.54-17.24c-0.69-1.04-1.15-1.61-1.38-1.71
		c-0.37-0.1-1.07,0.2-2.09,0.89C458.67,409.54,458.44,409.57,458.3,409.35z"/>
	<path class="st1" d="M450.41,435.83c-0.16-0.3-0.1-0.52,0.17-0.67c0.27-0.15,0.63,0.04,1.06,0.58c0.27,0.39,0.54,0.77,0.8,1.16
		c0.6,0.74,1.25,1.29,1.92,1.67c0.89,0.5,1.94,0.55,3.15,0.16c0.78-0.25,1.39-0.5,1.81-0.75c1.06-0.61,1.7-0.99,1.92-1.12
		l-11.18-20.73c-0.45-0.83-0.94-1.22-1.49-1.2c-0.29,0.01-0.97,0.29-2.03,0.83c-0.29,0.13-0.48,0.1-0.57-0.07
		c-0.11-0.19,0.03-0.39,0.39-0.59c0.18-0.1,0.35-0.17,0.5-0.22c1.4-0.7,2.38-1.2,2.96-1.5c0.75-0.41,1.46-0.81,2.1-1.2
		c0.65-0.39,1.48-0.87,2.51-1.42c0.53-0.28,0.84-0.33,0.94-0.15c0.11,0.21-0.32,0.59-1.29,1.14c-0.71,0.38-1.09,0.78-1.13,1.19
		c-0.02,0.25,0.18,0.75,0.59,1.5l11.11,20.59c2.25-1.25,3.6-2.12,4.04-2.62c1.16-1.3,1.25-3.17,0.26-5.59
		c-0.3-0.72-0.33-1.15-0.08-1.29c0.27-0.15,0.54,0.02,0.8,0.5c0.14,0.25,0.26,0.51,0.37,0.77l0.36,0.83
		c0.5,1.09,1.14,2.53,1.93,4.32l-1.54,0.83l-7.06,3.67c-0.84,0.42-2.12,1.11-3.84,2.07l-5.64,3.18c-0.74-1.26-1.91-3.08-3.52-5.46
		c-0.04-0.07-0.09-0.15-0.17-0.24S450.42,435.85,450.41,435.83z"/>
	<path class="st1" d="M432.56,451.03c-0.08-0.18,0.08-0.36,0.49-0.54c1.3-0.6,2-1.19,2.12-1.76c0.17-0.39,0.28-2.88,0.35-7.48
		c0.04-2.04,0.11-3.85,0.23-5.44c0.08-1.09,0.09-1.82,0.02-2.17s-0.34-1.07-0.82-2.14l-3-6.76c-0.35-0.79-0.66-1.21-0.92-1.26
		c-0.26-0.05-1.02,0.15-2.26,0.62c-0.66,0.24-1.03,0.27-1.11,0.09c-0.08-0.18,0.05-0.34,0.38-0.49l0.43-0.19l5.04-2.11
		c1.4-0.62,2.54-1.16,3.43-1.61c0.13-0.09,0.29-0.17,0.48-0.26c0.33-0.15,0.55-0.11,0.65,0.12c0.1,0.23-0.12,0.47-0.65,0.74
		c-1.29,0.63-2.01,1.09-2.16,1.38s-0.02,0.92,0.4,1.86l3.33,7.49c0.47,0.42,1.78,1.5,3.92,3.25l6.7,5.48
		c0.66,0.53,1.43,1.11,2.31,1.75c0.37,0.12,0.98-0.01,1.85-0.4c0.87-0.38,1.36-0.45,1.48-0.18c0.08,0.19-0.06,0.37-0.44,0.54
		c-0.5,0.22-1.51,0.64-3.03,1.26c-0.87,0.36-1.49,0.62-1.87,0.79l-4.11,1.89c-0.15,0.11-0.33,0.21-0.55,0.31
		c-0.43,0.19-0.7,0.17-0.8-0.07c-0.1-0.21,0.26-0.5,1.07-0.86c1.47-0.65,2.09-1.24,1.86-1.77c-0.18-0.41-1.65-1.71-4.42-3.92
		l-5.96-4.69c-0.12,1.33-0.21,2.93-0.28,4.83l-0.22,5.18c-0.12,1.88-0.07,3.06,0.14,3.54c0.14,0.31,0.42,0.4,0.84,0.27
		c0.89-0.25,1.46-0.45,1.74-0.6c0.51-0.26,0.83-0.25,0.94,0.01c0.08,0.19-0.1,0.39-0.55,0.59l-2.07,0.92l-1.18,0.52
		C433.96,450.9,432.69,451.32,432.56,451.03z"/>
	<path class="st1" d="M411.02,458.53c-0.09-0.24,0.18-0.46,0.8-0.66l0.81-0.29l0.66-0.24c0.39-0.14,0.6-0.29,0.62-0.45
		c0.03-0.16-0.08-0.58-0.33-1.27l-7.54-21.13c-0.46-1.3-0.72-2.06-0.77-2.29s-0.02-0.37,0.1-0.41c0.15-0.05,0.37,0.02,0.66,0.22
		l7.15,5.2c4.15,3.04,9.25,6.86,15.29,11.47l-7.34-20.57c-0.14-0.31-0.4-0.45-0.77-0.41c-0.38,0.04-1.23,0.28-2.55,0.72
		c-0.32,0.11-0.52,0.07-0.59-0.12c-0.09-0.25,0.19-0.48,0.82-0.71c0.22-0.08,0.93-0.29,2.13-0.64c0.4-0.12,0.78-0.24,1.15-0.37
		c-0.02,0.01,0.18-0.09,0.62-0.3c0.44-0.21,1.12-0.48,2.05-0.81l0.37-0.13c0.56-0.2,0.88-0.19,0.96,0.03
		c0.08,0.22-0.13,0.42-0.62,0.59c-1.44,0.54-2.24,0.93-2.42,1.17c-0.18,0.24-0.11,0.8,0.21,1.69l6.47,18.14
		c0.73,2.04,1.6,3.16,2.61,3.38c0.48,0.11,1.22-0.02,2.23-0.38c0.64-0.23,1-0.21,1.09,0.05c0.08,0.23-0.06,0.41-0.43,0.54
		c-0.49,0.17-1.12,0.37-1.9,0.6c-0.78,0.22-1.19,0.34-1.24,0.36c-0.07,0.03-0.41,0.16-1.02,0.4c-0.81,0.29-1.58,0.6-2.31,0.95
		l-19.42-14.39l5.83,16.34c0.27,0.76,0.45,1.21,0.53,1.36c0.08,0.15,0.22,0.24,0.42,0.26c0.2,0.02,0.81-0.14,1.81-0.5
		c0.88-0.31,1.36-0.36,1.44-0.14c0.09,0.24-0.16,0.47-0.75,0.68l-1.29,0.46c-0.32,0.11-0.66,0.24-1.03,0.37
		c-0.39,0.14-0.62,0.22-0.7,0.25c-0.02,0.01-0.25,0.09-0.66,0.24c-0.39,0.14-0.76,0.27-1.1,0.39l-1.14,0.41
		C411.42,458.8,411.1,458.77,411.02,458.53z"/>
	<path class="st1" d="M380.9,439.43c-0.06-0.21,0.1-0.37,0.47-0.48c0.25-0.07,0.48-0.12,0.69-0.15l4.81-1.19l4.73-1.49
		c0.17-0.07,0.35-0.14,0.55-0.2c0.5-0.14,0.79-0.08,0.86,0.18c0.08,0.29-0.22,0.53-0.89,0.72c-2.2,0.64-3.24,1.17-3.12,1.59
		c0.01,0.02,0.06,0.12,0.16,0.27l0.59,0.91l0.34,0.47c0.44,0.71,1.48,2.28,3.1,4.68l8.03-2.25c0.38-4.43,0.48-6.94,0.31-7.54
		c-0.1-0.35-0.31-0.52-0.63-0.51c-0.08,0-0.72,0.12-1.92,0.38c-0.73,0.18-1.13,0.16-1.19-0.07c-0.07-0.25,0.22-0.47,0.87-0.65
		c1.15-0.32,2.51-0.65,4.06-0.98c0.38-0.08,0.77-0.18,1.17-0.29c0.4-0.11,0.78-0.26,1.13-0.45c0.19-0.1,0.34-0.17,0.47-0.2
		c0.35-0.1,0.56-0.04,0.62,0.19c0.06,0.23-0.3,0.46-1.08,0.71c-0.78,0.25-1.32,0.53-1.61,0.84c-0.29,0.31-0.45,0.8-0.48,1.46
		c-0.62,10.15-1.16,18.31-1.61,24.47c0.02,0.31,0,0.68-0.07,1.09l0.03,0.73c0,0.3-0.06,0.46-0.18,0.5
		c-0.08,0.02-0.16-0.04-0.25-0.17c-0.6-0.89-1.91-2.72-3.93-5.5c-1.58-2.17-5.54-7.64-11.86-16.4c-0.36-0.51-0.72-0.8-1.07-0.87
		s-1.03,0.02-2.01,0.27C381.32,439.67,380.96,439.64,380.9,439.43z M393.6,445.56c0.72,1.01,1.92,2.69,3.6,5.03l3.27,4.7
		c0.28-3.07,0.53-7.02,0.77-11.87L393.6,445.56z"/>
	<path class="st1" d="M366.81,469.43c-0.04-0.2,0.17-0.37,0.65-0.5c1.11-0.26,1.83-0.59,2.14-0.98c0.32-0.39,0.56-1.19,0.72-2.39
		l0.54-3.83c1.29-9.26,2.08-16.32,2.37-21.19c0.01-0.32,0.11-0.5,0.28-0.54c0.2-0.04,0.83,0.82,1.87,2.59
		c1.89,3.24,3.34,5.67,4.35,7.29c1.09,1.79,2.72,4.46,4.88,8.02l2.96,4.74c0.41,0.66,0.79,1.07,1.15,1.25
		c0.36,0.18,0.89,0.2,1.61,0.07c0.84-0.15,1.35-0.24,1.52-0.25c0.17-0.01,0.28,0.07,0.31,0.25c0.05,0.23-0.18,0.4-0.69,0.51
		l-0.34,0.07c-0.46,0.1-1.26,0.25-2.4,0.45c-1.14,0.2-1.95,0.36-2.43,0.46c-0.13,0.03-0.61,0.15-1.46,0.37
		c-0.84,0.22-2.05,0.5-3.63,0.84l-0.53,0.11c-0.46,0.1-0.71,0.03-0.76-0.2c-0.05-0.25,0.37-0.49,1.28-0.71l2.31-0.58
		c0.53-0.14,0.76-0.37,0.69-0.69c-0.01-0.05-0.06-0.15-0.14-0.3l-0.52-0.97c-0.09-0.19-2.1-3.51-6.03-9.95
		c-0.66-1.11-1.93-3.23-3.79-6.35c-1.65,12.78-2.4,19.47-2.27,20.08c0.13,0.59,0.81,0.72,2.04,0.4l1.18-0.25
		c0.31-0.07,0.48,0.01,0.53,0.24c0.06,0.28-0.29,0.5-1.05,0.67c-0.15,0.03-0.58,0.12-1.3,0.28c-0.73,0.08-1.26,0.15-1.59,0.22
		l-1.22,0.26l-2.49,0.65C367.1,469.69,366.85,469.64,366.81,469.43z"/>
	<path class="st1" d="M354.5,444.36c-0.04-0.22,0.1-0.35,0.41-0.41l0.38-0.06c0.17,0.05,1.92-0.2,5.25-0.76
		c0.64-0.11,1.28-0.24,1.91-0.4c0.33-0.08,0.84-0.18,1.53-0.3c0.33-0.06,0.52,0.03,0.56,0.26c0.04,0.21-0.28,0.38-0.94,0.51
		c-1.02,0.2-1.6,0.42-1.75,0.67s-0.11,1,0.1,2.26l3.41,20.29c0.21,1.26,0.4,1.96,0.55,2.09c0.2,0.23,0.94,0.26,2.22,0.1
		c0.5-0.06,0.76-0.01,0.79,0.15c0.03,0.2-0.1,0.33-0.41,0.38l-5.23,0.88c-0.39,0.07-1.14,0.18-2.25,0.34l-1.47,0.29
		c-0.41,0.07-0.64-0.01-0.67-0.22c-0.03-0.19,0.52-0.41,1.65-0.65c0.64-0.13,1.02-0.32,1.13-0.55c0.11-0.23,0.09-0.78-0.06-1.65
		l-3.45-20.54c-0.25-1.46-0.44-2.25-0.59-2.35c-0.33-0.24-1.19-0.26-2.58-0.08C354.69,444.67,354.53,444.58,354.5,444.36z"/>
	<path class="st1" d="M331.43,455.23c-0.03-0.21,0.08-0.33,0.31-0.35l0.89-0.11c1.19-0.09,1.84-0.38,1.94-0.86
		c0.07-0.32-0.02-1.45-0.26-3.37l-0.15-1.23c1.18-1.29,2.35-2.24,3.52-2.86c1.17-0.61,2.61-1.02,4.31-1.23
		c4.08-0.5,7.47,0.32,10.17,2.47s4.3,5.31,4.82,9.49c0.52,4.23-0.24,7.79-2.26,10.69c-2.03,2.89-4.96,4.58-8.81,5.05
		c-1.68,0.21-3.57-0.03-5.67-0.72c-0.63-0.21-1.14-0.29-1.52-0.25c-0.49,0.06-0.77,0.41-0.85,1.05c-0.08,0.38-0.22,0.58-0.4,0.6
		c-0.21,0.02-0.32-0.07-0.35-0.27c-0.01-0.08-0.02-0.35-0.03-0.82c-0.04-1.49-0.11-2.55-0.19-3.2l-0.31-2.52
		c-0.14-0.9-0.2-1.3-0.19-1.2c-0.02-0.63,0.11-0.96,0.39-0.99c0.23-0.03,0.38,0.14,0.45,0.5c0.44,2.5,1.4,4.39,2.9,5.66
		c1.49,1.28,3.31,1.79,5.45,1.52c2.68-0.33,4.66-1.79,5.93-4.39c1.27-2.6,1.64-5.97,1.14-10.11c-0.49-3.99-1.67-7.05-3.54-9.2
		c-1.88-2.15-4.17-3.05-6.88-2.72c-2.06,0.25-3.41,1.02-4.04,2.29c-0.31,0.64-0.38,1.73-0.19,3.27c0.16,1.28,0.37,2.03,0.65,2.23
		s1.13,0.2,2.57,0c0.36-0.04,0.6-0.05,0.7-0.03c0.11,0.03,0.17,0.1,0.19,0.23c0.03,0.28-0.23,0.46-0.8,0.53l-0.7,0.08
		c-0.39,0.02-1.76,0.19-4.1,0.5l-3.25,0.4c-0.18,0.02-0.37,0.05-0.58,0.07c-0.21,0.03-0.35,0.04-0.43,0.05
		C331.73,455.54,331.46,455.46,331.43,455.23z"/>
	<path class="st1" d="M309.79,448.47c-0.01-0.22,0.17-0.34,0.56-0.37c0.26-0.02,0.49-0.02,0.7-0.01l4.95-0.16l4.93-0.47
		c0.18-0.04,0.37-0.06,0.58-0.08c0.52-0.03,0.79,0.09,0.8,0.36c0.02,0.3-0.32,0.47-1.02,0.52c-2.28,0.17-3.41,0.47-3.38,0.9
		c0,0.03,0.03,0.12,0.1,0.3l0.38,1.01l0.23,0.53c0.28,0.79,0.97,2.53,2.05,5.23l8.32-0.53c1.29-4.25,1.92-6.69,1.88-7.31
		c-0.02-0.36-0.19-0.57-0.51-0.63c-0.08-0.02-0.73-0.03-1.96-0.03c-0.75,0.02-1.14-0.08-1.15-0.32c-0.02-0.26,0.31-0.41,0.99-0.45
		c1.19-0.08,2.58-0.11,4.17-0.11c0.39,0,0.79-0.01,1.21-0.04s0.81-0.1,1.2-0.21c0.2-0.06,0.37-0.09,0.5-0.1
		c0.36-0.02,0.55,0.08,0.57,0.32c0.02,0.23-0.38,0.39-1.2,0.47c-0.82,0.08-1.4,0.24-1.75,0.48c-0.35,0.24-0.61,0.69-0.78,1.32
		c-2.73,9.79-4.96,17.66-6.68,23.6c-0.04,0.31-0.14,0.66-0.3,1.06l-0.12,0.72c-0.06,0.29-0.15,0.44-0.28,0.45
		c-0.08,0-0.15-0.07-0.21-0.22c-0.4-0.99-1.3-3.06-2.7-6.2c-1.09-2.46-3.82-8.63-8.17-18.51c-0.25-0.57-0.53-0.93-0.87-1.07
		s-1.01-0.19-2.02-0.15C310.15,448.79,309.81,448.69,309.79,448.47z M320.93,457.12c0.5,1.14,1.32,3.03,2.47,5.67l2.21,5.28
		c0.91-2.94,1.99-6.76,3.23-11.45L320.93,457.12z"/>
	<path class="st1" d="M293.09,468.31c0-0.34,0.15-0.51,0.46-0.51c0.31,0,0.54,0.33,0.67,1.01c0.06,0.47,0.11,0.94,0.17,1.4
		c0.19,0.93,0.5,1.72,0.92,2.37c0.55,0.85,1.46,1.39,2.71,1.61c0.81,0.15,1.46,0.21,1.95,0.17c1.22-0.05,1.96-0.08,2.22-0.1
		l-0.25-23.55c-0.01-0.94-0.26-1.52-0.76-1.75c-0.26-0.13-0.99-0.2-2.19-0.21c-0.31-0.02-0.47-0.13-0.47-0.33
		c0-0.22,0.21-0.33,0.62-0.34c0.21,0,0.39,0.01,0.55,0.03c1.56,0.04,2.67,0.05,3.32,0.04c0.86-0.01,1.66-0.04,2.42-0.08
		s1.71-0.08,2.88-0.09c0.6-0.01,0.9,0.09,0.9,0.3c0,0.23-0.55,0.37-1.67,0.41c-0.81,0.01-1.32,0.18-1.55,0.52
		c-0.13,0.21-0.19,0.74-0.18,1.6l0.24,23.39c2.57-0.05,4.17-0.2,4.79-0.44c1.63-0.62,2.58-2.22,2.84-4.83
		c0.07-0.78,0.25-1.17,0.53-1.18c0.31,0,0.47,0.27,0.48,0.81c0,0.29-0.01,0.57-0.03,0.86l-0.07,0.9c-0.07,1.2-0.17,2.77-0.3,4.72
		l-1.75,0.02l-7.96-0.03c-0.94-0.02-2.39,0-4.37,0.05l-6.47,0.18c-0.07-1.46-0.26-3.61-0.57-6.47c0-0.08-0.01-0.18-0.04-0.29
		C293.11,468.41,293.09,468.34,293.09,468.31z"/>
	<path class="st1" d="M268.97,460.43c0.19-3.87,1.51-7.09,3.96-9.65c2.45-2.56,5.37-3.76,8.74-3.6c3.58,0.17,6.53,1.67,8.84,4.51
		c2.31,2.83,3.37,6.23,3.18,10.21c-0.19,4.05-1.53,7.31-4,9.78c-2.47,2.47-5.54,3.62-9.21,3.44c-3.45-0.17-6.28-1.66-8.49-4.47
		C269.78,467.84,268.77,464.43,268.97,460.43z M273.34,460.45c-0.23,4.77,0.57,8.53,2.39,11.28c1.14,1.72,2.8,2.64,4.98,2.75
		c2.08,0.1,3.72-0.46,4.92-1.68c2.22-2.24,3.45-6.01,3.71-11.3c0.2-4.19-0.37-7.49-1.73-9.87c-1.36-2.39-3.36-3.65-6.01-3.77
		c-2.47-0.12-4.38,0.89-5.73,3.01C274.38,453.21,273.53,456.41,273.34,460.45z"/>
	<path class="st1" d="M248.52,445.87c0.12-1.09,1.08-1.53,2.89-1.33c2.02,0.22,3.5,1.23,4.46,3.03c0.41,0.78,0.65,1.51,0.72,2.2
		c0.07,0.69,0.1,2.42,0.08,5.19c-0.02,1.67,0.38,2.9,1.21,3.68s2.26,1.31,4.3,1.59l1.33-12.21c0.06-0.52-0.32-0.88-1.14-1.1
		c-0.23-0.05-0.82-0.14-1.77-0.27c-0.34-0.04-0.49-0.16-0.47-0.36c0.03-0.23,0.26-0.33,0.7-0.28l0.46,0.05
		c0.23,0.03,1.36,0.15,3.37,0.37c0.39,0.04,1.05,0.11,1.98,0.22c0.91,0.1,1.5,0.16,1.78,0.19l1.51,0.17
		c0.57,0.06,0.84,0.21,0.81,0.44c-0.02,0.18-0.41,0.24-1.16,0.19c-1.22-0.11-1.89-0.02-2.03,0.25c-0.12,0.12-0.22,0.62-0.32,1.5
		l-2.33,21.4c-0.11,1.03-0.07,1.67,0.13,1.9s0.85,0.42,1.96,0.57c0.65,0.07,0.96,0.22,0.93,0.46c-0.03,0.26-0.25,0.37-0.66,0.32
		c-0.08-0.01-0.19-0.03-0.34-0.08l-5.14-0.68c-0.52-0.06-1.24-0.12-2.18-0.18c-1.04-0.04-1.77-0.09-2.18-0.13
		c-2.4-0.26-4.25-1.01-5.54-2.23s-1.84-2.76-1.64-4.59c0.2-1.81,1.08-3.22,2.66-4.24c1.58-1.02,3.62-1.5,6.12-1.43
		c0.24,0,0.37-0.03,0.4-0.07c0.01-0.1-0.11-0.17-0.37-0.2c-2.66-0.76-4.43-1.92-5.29-3.47c-0.86-1.55-1.26-4.22-1.19-8.02
		c0.03-2.15-0.58-3.29-1.82-3.42c-0.39-0.04-0.59,0.01-0.61,0.17c0,0.03,0.01,0.05,0.03,0.08c0.1,0.3,0.14,0.54,0.12,0.72
		c-0.06,0.54-0.37,0.78-0.94,0.72C248.73,446.87,248.45,446.51,248.52,445.87z M254.43,466.16c-0.4,3.7,1,5.72,4.21,6.07
		c0.85,0.09,1.45,0.04,1.78-0.16c0.34-0.2,0.54-0.6,0.6-1.19l1.07-9.85c-2.48-0.3-4.32-0.04-5.52,0.77
		C255.38,462.62,254.66,464.07,254.43,466.16z"/>
	<path class="st1" d="M237.63,457.8c0.26-1.62,1.78-2.72,3.4-2.46s2.68,1.77,2.42,3.39s-1.74,2.72-3.36,2.46
		C238.48,460.94,237.38,459.42,237.63,457.8z"/>
	<path class="st1" d="M208.35,436.82c0.05-0.22,0.34-0.26,0.87-0.14l0.42,0.09c0.35,0.08,1,0.22,1.93,0.43
		c0.94,0.21,1.66,0.37,2.16,0.48c0.76,0.17,1.64,0.37,2.66,0.59c1.04,0.23,1.72,0.39,2.05,0.46l0.27,0.06
		c0.53,0.12,0.77,0.29,0.72,0.52c-0.06,0.25-0.45,0.3-1.19,0.13c-1.29-0.29-2.11-0.33-2.45-0.11c-0.16,0.1-0.41,0.94-0.76,2.51
		l-4.42,19.75c0.01-0.03,0.26-0.44,0.75-1.23c1.71-2.84,4.22-7.12,7.54-12.85l3.12-5.66c0.62-1.11,1.01-1.65,1.16-1.62
		c0.18,0.04,0.3,0.39,0.37,1.04c0.22,2.47,1,8.7,2.34,18.68l0.6,4.4c0.11-0.48,0.25-1.14,0.44-1.98l2.77-12.37
		c1.04-4.64,1.53-7,1.46-7.07c-0.1-0.37-0.68-0.67-1.72-0.9c-0.84-0.19-1.23-0.41-1.17-0.66c0.06-0.28,0.36-0.36,0.89-0.24
		c0.33,0.07,0.63,0.17,0.9,0.28c0.34,0.13,0.66,0.23,0.93,0.29l4.41,0.83c0.46,0.1,0.66,0.27,0.61,0.5
		c-0.06,0.25-0.81,0.23-2.26-0.07c-0.61-0.14-0.99-0.12-1.13,0.07c-0.15,0.18-0.35,0.83-0.6,1.95l-4.09,18.26
		c-0.47,2.11-0.7,3.26-0.69,3.45c0.02,0.38,0.18,0.67,0.49,0.87c0.3,0.2,0.99,0.46,2.06,0.78c0.4,0.12,0.58,0.28,0.53,0.48
		c-0.06,0.28-0.46,0.33-1.21,0.17c-0.1-0.02-0.32-0.07-0.65-0.15l-2-0.45c-1.51-0.34-2.58-0.57-3.2-0.69
		c-0.05-0.36-0.34-2.52-0.87-6.48c-0.24-1.65-0.86-6.46-1.88-14.42c-0.85,1.54-1.71,3.06-2.57,4.55l-6.88,11.67
		c-0.41,0.67-0.77,1.22-1.07,1.65l-5.65-1.23c-0.83-0.19-1.29-0.33-1.4-0.43c-0.11-0.1-0.15-0.23-0.11-0.39
		c0.06-0.25,0.3-0.33,0.73-0.24c0.71,0.16,1.2,0.24,1.46,0.25c0.63,0.03,1.1-0.08,1.39-0.33c0.17-0.15,0.56-1.62,1.19-4.42
		l3.97-17.75c0.23-1.02,0.26-1.64,0.1-1.86c-0.28-0.3-1.08-0.6-2.4-0.9l-0.23-0.05C208.54,437.21,208.31,437.04,208.35,436.82z"/>
	<path class="st1" d="M200.81,434.47c0.06-0.21,0.24-0.28,0.54-0.19l0.38,0.11c0.13,0.12,1.82,0.63,5.07,1.55
		c0.63,0.18,1.26,0.33,1.9,0.45c0.33,0.07,0.84,0.19,1.51,0.38c0.33,0.09,0.46,0.25,0.39,0.47c-0.06,0.2-0.41,0.22-1.07,0.06
		c-1.01-0.26-1.63-0.3-1.87-0.14c-0.23,0.16-0.53,0.86-0.87,2.09l-5.57,19.81c-0.35,1.23-0.48,1.94-0.39,2.12
		c0.08,0.29,0.74,0.64,1.96,1.04c0.48,0.16,0.69,0.31,0.65,0.47c-0.06,0.2-0.24,0.26-0.54,0.17l-5.11-1.43
		c-0.38-0.11-1.11-0.33-2.18-0.65l-1.45-0.37c-0.4-0.11-0.58-0.28-0.52-0.49c0.05-0.19,0.64-0.15,1.77,0.11
		c0.64,0.15,1.06,0.15,1.25-0.01c0.2-0.16,0.41-0.67,0.65-1.52l5.63-20.05c0.4-1.43,0.56-2.22,0.47-2.38
		c-0.2-0.35-0.97-0.74-2.3-1.17C200.86,434.82,200.75,434.68,200.81,434.47z"/>
	<path class="st1" d="M175.35,434.33c0.07-0.2,0.21-0.26,0.43-0.19l0.85,0.29c1.12,0.43,1.82,0.45,2.12,0.06
		c0.2-0.26,0.61-1.31,1.23-3.15l0.4-1.18c1.62-0.66,3.09-1.01,4.41-1.06c1.32-0.05,2.79,0.2,4.42,0.75c3.89,1.31,6.59,3.52,8.1,6.62
		c1.51,3.1,1.59,6.65,0.25,10.64c-1.36,4.04-3.58,6.93-6.66,8.66c-3.08,1.73-6.46,1.98-10.13,0.75c-1.6-0.54-3.2-1.57-4.8-3.1
		c-0.48-0.46-0.9-0.75-1.27-0.88c-0.47-0.16-0.88,0.04-1.22,0.58c-0.24,0.3-0.44,0.43-0.62,0.37c-0.2-0.07-0.26-0.2-0.2-0.39
		c0.02-0.07,0.13-0.33,0.33-0.75c0.6-1.36,1.01-2.35,1.21-2.97l0.81-2.4c0.27-0.87,0.38-1.26,0.35-1.16
		c0.25-0.58,0.51-0.82,0.78-0.73c0.22,0.08,0.29,0.29,0.19,0.64c-0.68,2.44-0.63,4.56,0.16,6.36c0.79,1.8,2.21,3.04,4.26,3.73
		c2.56,0.86,4.98,0.4,7.24-1.4s4.06-4.67,5.39-8.63c1.28-3.81,1.54-7.08,0.78-9.83c-0.76-2.75-2.44-4.56-5.03-5.43
		c-1.97-0.66-3.52-0.56-4.64,0.32c-0.56,0.44-1.09,1.4-1.58,2.87c-0.41,1.23-0.54,1.99-0.38,2.29c0.16,0.3,0.93,0.67,2.32,1.11
		c0.35,0.12,0.56,0.21,0.65,0.28c0.09,0.07,0.11,0.17,0.07,0.29c-0.09,0.27-0.41,0.31-0.95,0.13l-0.67-0.22
		c-0.36-0.15-1.67-0.59-3.92-1.32l-3.11-1.04c-0.17-0.06-0.36-0.12-0.55-0.19s-0.33-0.11-0.41-0.14
		C175.48,434.75,175.27,434.55,175.35,434.33z"/>
	<path class="st1" d="M157.74,418.08c0.09-0.21,0.36-0.23,0.81-0.03l4.91,2.11c0.33,0.14,0.82,0.35,1.46,0.63
		c0.64,0.27,1.11,0.48,1.42,0.61c0.47,0.2,0.67,0.4,0.59,0.59s-0.69,0.08-1.83-0.32c-0.61-0.21-1-0.25-1.16-0.14
		s-0.45,0.65-0.86,1.6l-4.48,10.43l10.79,4.63l4.36-10.14c0.46-1.07,0.65-1.74,0.57-2.01c-0.08-0.26-0.59-0.63-1.51-1.12
		c-0.6-0.32-0.86-0.56-0.79-0.72c0.09-0.22,0.38-0.22,0.86-0.01l0.32,0.14c0.57,0.25,1.18,0.5,1.81,0.78
		c0.63,0.27,1.01,0.43,1.13,0.49c0.33,0.14,0.84,0.36,1.5,0.65s1.67,0.72,3.01,1.29c0.48,0.21,0.68,0.4,0.59,0.59
		s-0.37,0.21-0.87,0.05c-0.32-0.11-0.65-0.22-1-0.34c-0.54-0.18-0.93-0.2-1.16-0.07c-0.12,0.09-0.45,0.74-0.97,1.96l-8.12,18.89
		c-0.46,1.07-0.68,1.73-0.65,1.97c0.03,0.24,0.36,0.51,0.99,0.81c0.72,0.37,1.14,0.59,1.26,0.67c0.12,0.08,0.14,0.21,0.07,0.39
		c-0.09,0.2-0.28,0.24-0.6,0.1c-0.09-0.04-0.29-0.14-0.59-0.3c-0.58-0.3-1.98-0.93-4.2-1.89c-1.22-0.52-2.07-0.87-2.57-1.04
		c-0.18-0.04-0.41-0.11-0.67-0.22c-0.43-0.18-0.59-0.4-0.49-0.64c0.09-0.22,0.53-0.16,1.3,0.18c0.78,0.33,1.28,0.44,1.51,0.33
		c0.23-0.11,0.55-0.65,0.97-1.61l3.55-8.27l-10.79-4.63l-3.32,7.73c-0.55,1.27-0.77,2.06-0.68,2.37s0.72,0.7,1.88,1.17
		c0.36,0.15,0.49,0.34,0.4,0.55c-0.09,0.21-0.34,0.24-0.75,0.06l-0.18-0.08c-0.33-0.14-0.92-0.39-1.76-0.75
		c-0.86-0.37-1.5-0.65-1.93-0.83c-1.46-0.63-2.44-1.05-2.96-1.27c-0.51-0.22-0.84-0.36-0.99-0.42c-0.5-0.22-0.71-0.43-0.61-0.65
		c0.09-0.22,0.67-0.11,1.73,0.32c0.31,0.13,0.55,0.21,0.71,0.22c0.27,0.03,0.48-0.04,0.62-0.2c0.14-0.17,0.41-0.71,0.81-1.65
		l8.19-19.06c0.49-1.15,0.72-1.84,0.69-2.08c-0.12-0.36-0.75-0.79-1.88-1.28C157.79,418.49,157.64,418.31,157.74,418.08z"/>
	<path class="st1" d="M131.24,426.18c0.16-0.3,0.38-0.37,0.65-0.23s0.31,0.55,0.11,1.21c-0.17,0.44-0.35,0.88-0.52,1.31
		c-0.28,0.91-0.39,1.75-0.33,2.52c0.08,1.01,0.61,1.92,1.6,2.71c0.64,0.52,1.18,0.88,1.63,1.09c1.09,0.54,1.76,0.87,2,0.98
		l11.08-20.78c0.44-0.83,0.5-1.46,0.17-1.9c-0.17-0.24-0.77-0.65-1.82-1.23c-0.26-0.17-0.35-0.34-0.26-0.51
		c0.1-0.2,0.34-0.19,0.71,0c0.18,0.1,0.34,0.2,0.46,0.29c1.35,0.78,2.32,1.32,2.89,1.63c0.76,0.4,1.48,0.77,2.16,1.09
		s1.54,0.75,2.57,1.31c0.53,0.28,0.74,0.51,0.64,0.7c-0.11,0.21-0.67,0.06-1.66-0.44c-0.71-0.38-1.25-0.48-1.62-0.29
		c-0.21,0.12-0.52,0.56-0.93,1.32l-11.01,20.65c2.28,1.19,3.76,1.83,4.42,1.91c1.73,0.24,3.33-0.72,4.8-2.88
		c0.44-0.65,0.78-0.91,1.03-0.78c0.28,0.15,0.29,0.46,0.03,0.94c-0.13,0.25-0.28,0.5-0.44,0.74l-0.49,0.75
		c-0.63,1.02-1.47,2.35-2.53,4l-1.55-0.83l-6.97-3.85c-0.81-0.46-2.1-1.15-3.85-2.05l-5.77-2.94c0.64-1.31,1.51-3.29,2.6-5.95
		c0.04-0.07,0.07-0.16,0.1-0.28C131.21,426.28,131.23,426.21,131.24,426.18z"/>
	<path class="st1" d="M108.64,419.5c0.11-0.17,0.35-0.13,0.72,0.11c1.21,0.75,2.09,1.03,2.63,0.81c0.42-0.07,2.57-1.34,6.46-3.8
		c1.72-1.08,3.28-2.01,4.68-2.78c0.96-0.53,1.57-0.92,1.83-1.17c0.26-0.25,0.7-0.87,1.34-1.86l4.02-6.2
		c0.47-0.72,0.65-1.21,0.55-1.46c-0.1-0.25-0.69-0.77-1.76-1.56c-0.56-0.42-0.79-0.72-0.68-0.88c0.11-0.17,0.31-0.15,0.62,0.05
		l0.39,0.25l4.52,3.07c1.29,0.83,2.36,1.5,3.22,1.99c0.15,0.06,0.31,0.15,0.48,0.26c0.31,0.2,0.39,0.4,0.26,0.61
		c-0.13,0.21-0.46,0.16-0.98-0.14c-1.23-0.73-2.01-1.08-2.34-1.05c-0.33,0.03-0.78,0.48-1.34,1.35L128.8,414
		c-0.09,0.62-0.29,2.31-0.58,5.06l-0.93,8.6c-0.08,0.84-0.15,1.81-0.2,2.89c0.1,0.37,0.55,0.82,1.34,1.33
		c0.8,0.52,1.12,0.89,0.96,1.13c-0.11,0.17-0.34,0.15-0.69-0.08c-0.46-0.3-1.36-0.91-2.71-1.85c-0.77-0.53-1.33-0.91-1.68-1.14
		l-3.83-2.41c-0.17-0.07-0.36-0.16-0.56-0.29c-0.39-0.25-0.52-0.49-0.38-0.71c0.13-0.2,0.56-0.06,1.3,0.42
		c1.35,0.88,2.19,1.07,2.5,0.59c0.24-0.37,0.53-2.32,0.86-5.84l0.67-7.55c-1.17,0.62-2.57,1.42-4.2,2.4l-4.45,2.64
		c-1.64,0.93-2.6,1.62-2.89,2.06c-0.18,0.29-0.11,0.57,0.24,0.85c0.69,0.6,1.18,0.98,1.45,1.13c0.49,0.29,0.66,0.55,0.51,0.8
		c-0.11,0.17-0.38,0.13-0.79-0.14l-1.9-1.23l-1.08-0.7C109.51,420.6,108.47,419.77,108.64,419.5z"/>
	<path class="st1" d="M90.51,404.72c0.16-0.2,0.49-0.09,0.98,0.34l0.67,0.54l0.55,0.44c0.32,0.26,0.56,0.36,0.71,0.3
		s0.45-0.38,0.91-0.94l14.07-17.47c0.86-1.07,1.38-1.69,1.54-1.86c0.17-0.17,0.3-0.21,0.4-0.13c0.12,0.1,0.17,0.32,0.15,0.68
		l-0.7,8.81c-0.42,5.13-1.02,11.47-1.79,19.03l13.7-17.01c0.19-0.28,0.17-0.57-0.05-0.87s-0.88-0.9-1.95-1.79
		c-0.27-0.21-0.33-0.4-0.2-0.56c0.16-0.2,0.51-0.09,1.03,0.33c0.18,0.15,0.74,0.64,1.66,1.49c0.31,0.28,0.61,0.54,0.92,0.79
		c-0.02-0.02,0.17,0.11,0.58,0.37c0.41,0.26,1,0.7,1.77,1.32l0.3,0.24c0.47,0.38,0.62,0.65,0.48,0.84
		c-0.15,0.18-0.42,0.11-0.83-0.22c-1.21-0.94-1.96-1.42-2.26-1.45c-0.3-0.02-0.74,0.33-1.33,1.06l-12.08,15
		c-1.36,1.68-1.86,3.01-1.52,4c0.16,0.46,0.66,1.03,1.49,1.7c0.53,0.42,0.7,0.74,0.53,0.96c-0.15,0.19-0.38,0.17-0.69-0.08
		c-0.4-0.33-0.9-0.76-1.5-1.31c-0.59-0.55-0.91-0.83-0.95-0.87c-0.06-0.05-0.35-0.27-0.88-0.65c-0.67-0.54-1.34-1.03-2.02-1.47
		l2.12-24.08l-10.89,13.51c-0.51,0.63-0.8,1.02-0.89,1.16c-0.08,0.15-0.08,0.31,0,0.5c0.08,0.19,0.54,0.61,1.37,1.28
		c0.73,0.59,1.02,0.97,0.87,1.15c-0.16,0.2-0.49,0.11-0.97-0.28l-1.06-0.86c-0.26-0.21-0.55-0.44-0.85-0.68
		c-0.32-0.26-0.52-0.42-0.58-0.46c-0.02-0.02-0.2-0.16-0.55-0.44c-0.32-0.26-0.63-0.51-0.91-0.73l-0.94-0.76
		C90.49,405.21,90.35,404.93,90.51,404.72z"/>
	<path class="st1" d="M92.09,368.43c0.16-0.16,0.37-0.09,0.65,0.19c0.18,0.19,0.34,0.36,0.46,0.53l3.35,3.65l3.57,3.43
		c0.15,0.11,0.29,0.24,0.44,0.39c0.36,0.37,0.45,0.65,0.25,0.84c-0.21,0.21-0.57,0.06-1.06-0.44c-1.62-1.62-2.58-2.28-2.89-1.98
		c-0.02,0.02-0.07,0.11-0.16,0.27l-0.52,0.95l-0.25,0.52c-0.41,0.73-1.29,2.38-2.63,4.96l5.82,5.96c4.07-1.79,6.32-2.9,6.77-3.34
		c0.26-0.25,0.31-0.52,0.15-0.8c-0.04-0.07-0.45-0.58-1.25-1.5c-0.51-0.56-0.68-0.92-0.51-1.08c0.19-0.18,0.52-0.03,0.99,0.45
		c0.83,0.86,1.77,1.89,2.8,3.09c0.25,0.3,0.53,0.6,0.82,0.89c0.29,0.3,0.6,0.56,0.94,0.77c0.18,0.12,0.31,0.22,0.4,0.32
		c0.25,0.26,0.3,0.47,0.13,0.64s-0.55-0.04-1.14-0.61c-0.59-0.57-1.09-0.9-1.51-1.01c-0.41-0.1-0.92-0.01-1.51,0.28
		c-9.21,4.31-16.62,7.75-22.25,10.31c-0.26,0.17-0.59,0.33-1,0.46l-0.63,0.38c-0.26,0.14-0.43,0.17-0.52,0.08
		c-0.05-0.06-0.04-0.16,0.03-0.3c0.49-0.95,1.47-2.98,2.94-6.09c1.15-2.43,4.05-8.52,8.71-18.26c0.28-0.56,0.36-1.01,0.25-1.36
		c-0.11-0.34-0.51-0.89-1.2-1.63C92.08,368.91,91.93,368.59,92.09,368.43z M92.79,382.52c-0.54,1.12-1.44,2.98-2.69,5.57l-2.56,5.12
		c2.82-1.23,6.42-2.89,10.79-5.01L92.79,382.52z"/>
	<path class="st1" d="M59.39,368.23c0.17-0.12,0.41,0,0.72,0.39c0.7,0.9,1.29,1.42,1.78,1.55c0.48,0.13,1.31,0.02,2.48-0.33
		l3.71-1.1c8.97-2.66,15.72-4.86,20.27-6.6c0.3-0.12,0.5-0.11,0.61,0.04c0.12,0.17-0.41,1.09-1.59,2.77
		c-2.17,3.06-3.78,5.38-4.83,6.97c-1.18,1.74-2.94,4.32-5.29,7.76l-3.09,4.65c-0.43,0.64-0.65,1.16-0.67,1.56
		c-0.01,0.4,0.19,0.9,0.6,1.5c0.49,0.71,0.77,1.13,0.85,1.29c0.08,0.15,0.05,0.28-0.1,0.39c-0.19,0.14-0.44,0-0.75-0.42l-0.21-0.28
		c-0.28-0.38-0.75-1.04-1.4-1.99c-0.66-0.95-1.13-1.63-1.43-2.03c-0.08-0.1-0.39-0.5-0.94-1.17c-0.55-0.68-1.3-1.66-2.26-2.96
		l-0.32-0.44c-0.28-0.38-0.32-0.63-0.13-0.78c0.21-0.15,0.6,0.14,1.18,0.88l1.48,1.86c0.35,0.42,0.65,0.54,0.91,0.34
		c0.04-0.03,0.12-0.12,0.22-0.25l0.67-0.87c0.14-0.17,2.32-3.37,6.56-9.6c0.74-1.06,2.14-3.09,4.21-6.08
		c-12.31,3.79-18.72,5.86-19.22,6.24c-0.48,0.36-0.32,1.03,0.48,2.03l0.72,0.97c0.19,0.25,0.19,0.45,0,0.58
		c-0.23,0.17-0.58-0.06-1.04-0.68c-0.09-0.12-0.36-0.48-0.79-1.07c-0.37-0.63-0.66-1.08-0.86-1.36l-0.74-1l-1.62-2
		C59.27,368.61,59.22,368.36,59.39,368.23z"/>
	<path class="st1" d="M78.07,346.53c0.19-0.11,0.37-0.03,0.52,0.24l0.19,0.34c0.01,0.17,0.86,1.73,2.55,4.65
		c0.33,0.56,0.67,1.11,1.04,1.65c0.19,0.28,0.46,0.72,0.81,1.33c0.17,0.29,0.15,0.5-0.05,0.61c-0.18,0.1-0.45-0.13-0.81-0.7
		c-0.54-0.89-0.95-1.36-1.24-1.4c-0.28-0.05-0.98,0.25-2.08,0.89l-17.83,10.28c-1.11,0.64-1.7,1.05-1.76,1.25
		c-0.15,0.27,0.08,0.97,0.68,2.12c0.23,0.45,0.28,0.71,0.14,0.79c-0.18,0.1-0.35,0.02-0.5-0.25l-2.65-4.6c-0.2-0.34-0.56-1-1.1-1.99
		l-0.78-1.27c-0.21-0.36-0.22-0.6-0.03-0.71c0.17-0.1,0.57,0.34,1.19,1.32c0.35,0.56,0.65,0.85,0.91,0.87
		c0.25,0.02,0.76-0.19,1.53-0.63l18.04-10.4c1.28-0.74,1.95-1.2,2-1.38c0.11-0.39-0.17-1.21-0.83-2.45
		C77.85,346.82,77.88,346.64,78.07,346.53z"/>
	<path class="st1" d="M61.47,327.77c0.19-0.08,0.33-0.01,0.42,0.21l0.34,0.83c0.41,1.13,0.86,1.67,1.35,1.64
		c0.33-0.02,1.39-0.4,3.18-1.14l1.15-0.47c1.56,0.79,2.79,1.67,3.69,2.63c0.9,0.96,1.68,2.24,2.33,3.83
		c1.57,3.8,1.67,7.28,0.32,10.46s-3.97,5.56-7.86,7.17c-3.94,1.63-7.58,1.85-10.91,0.66c-3.33-1.19-5.73-3.57-7.21-7.15
		c-0.64-1.56-0.92-3.45-0.81-5.65c0.04-0.66-0.02-1.17-0.17-1.53c-0.19-0.46-0.6-0.64-1.24-0.54c-0.39,0.02-0.61-0.06-0.68-0.22
		c-0.08-0.19-0.02-0.33,0.17-0.41c0.07-0.03,0.33-0.11,0.78-0.25c1.42-0.44,2.43-0.78,3.03-1.03l2.34-0.97
		c0.83-0.37,1.2-0.54,1.1-0.5c0.6-0.19,0.95-0.15,1.06,0.11c0.09,0.22-0.03,0.41-0.36,0.57c-2.29,1.09-3.86,2.52-4.69,4.3
		c-0.83,1.78-0.84,3.67-0.02,5.66c1.03,2.5,2.97,4.01,5.81,4.54c2.84,0.53,6.19,0,10.05-1.59c3.71-1.53,6.36-3.49,7.93-5.86
		c1.57-2.38,1.84-4.83,0.8-7.35c-0.79-1.92-1.89-3.02-3.29-3.29c-0.7-0.13-1.77,0.1-3.2,0.69c-1.2,0.49-1.85,0.9-1.98,1.22
		s0.11,1.14,0.69,2.48c0.14,0.34,0.21,0.56,0.21,0.67c0,0.11-0.05,0.19-0.17,0.24c-0.26,0.11-0.5-0.1-0.72-0.63l-0.27-0.65
		c-0.12-0.37-0.65-1.64-1.58-3.82l-1.25-3.03c-0.07-0.17-0.14-0.35-0.22-0.54c-0.08-0.19-0.13-0.32-0.16-0.4
		C61.25,328.14,61.26,327.86,61.47,327.77z"/>
	<path class="st1" d="M65.65,305.06c0.22-0.04,0.36,0.13,0.44,0.51c0.05,0.25,0.08,0.49,0.1,0.7l0.8,4.89l1.11,4.83
		c0.06,0.17,0.11,0.36,0.15,0.57c0.1,0.51,0.02,0.79-0.25,0.84c-0.29,0.06-0.51-0.26-0.64-0.95c-0.47-2.24-0.91-3.32-1.34-3.23
		c-0.02,0-0.12,0.05-0.28,0.14l-0.95,0.51l-0.5,0.3c-0.75,0.39-2.38,1.29-4.92,2.71l1.61,8.18c4.38,0.73,6.88,1.03,7.49,0.91
		c0.36-0.07,0.54-0.27,0.56-0.59c0.01-0.08-0.06-0.73-0.22-1.94c-0.12-0.75-0.07-1.14,0.16-1.19c0.26-0.05,0.45,0.26,0.58,0.92
		c0.23,1.17,0.45,2.55,0.65,4.12c0.05,0.39,0.11,0.79,0.19,1.19c0.08,0.41,0.2,0.79,0.36,1.16c0.08,0.2,0.14,0.36,0.16,0.48
		c0.07,0.36-0.01,0.56-0.24,0.6c-0.23,0.04-0.44-0.33-0.62-1.13c-0.18-0.8-0.42-1.35-0.71-1.67c-0.29-0.31-0.76-0.51-1.41-0.6
		c-10.07-1.43-18.16-2.61-24.27-3.55c-0.31,0-0.67-0.05-1.09-0.16l-0.73-0.03c-0.3-0.02-0.46-0.09-0.48-0.22
		c-0.01-0.08,0.05-0.16,0.19-0.24c0.93-0.53,2.86-1.69,5.79-3.48c2.29-1.41,8.06-4.91,17.29-10.52c0.54-0.32,0.85-0.65,0.95-1
		c0.1-0.35,0.06-1.03-0.11-2.03C65.38,305.45,65.43,305.1,65.65,305.06z M58.53,317.22c-1.07,0.64-2.83,1.7-5.3,3.19l-4.94,2.88
		c3.03,0.52,6.96,1.09,11.77,1.71L58.53,317.22z"/>
	<path class="st1" d="M46.29,289.45c0.34-0.01,0.51,0.14,0.52,0.46s-0.32,0.54-1,0.69c-0.47,0.06-0.93,0.13-1.4,0.19
		c-0.93,0.21-1.72,0.53-2.36,0.96c-0.84,0.57-1.37,1.48-1.57,2.73c-0.13,0.81-0.18,1.46-0.15,1.95c0.07,1.22,0.11,1.96,0.13,2.22
		l23.55-0.6c0.94-0.02,1.52-0.29,1.74-0.79c0.12-0.26,0.18-0.99,0.18-2.19c0.02-0.31,0.12-0.47,0.32-0.48c0.22,0,0.34,0.2,0.35,0.62
		c0.01,0.21,0,0.39-0.02,0.55c-0.01,1.56-0.01,2.67,0.01,3.32c0.02,0.86,0.06,1.66,0.12,2.42c0.06,0.75,0.1,1.71,0.13,2.88
		c0.02,0.6-0.08,0.9-0.29,0.91c-0.23,0.01-0.38-0.55-0.43-1.67c-0.02-0.8-0.2-1.32-0.55-1.55c-0.21-0.12-0.75-0.18-1.61-0.15
		l-23.39,0.59c0.09,2.57,0.26,4.17,0.51,4.79c0.64,1.62,2.26,2.54,4.87,2.76c0.78,0.06,1.18,0.23,1.18,0.52
		c0.01,0.31-0.26,0.48-0.81,0.49c-0.29,0.01-0.57,0-0.86-0.02l-0.9-0.05c-1.2-0.05-2.77-0.12-4.73-0.23L39.8,309l-0.08-7.96
		c0-0.94-0.04-2.39-0.11-4.37l-0.28-6.47c1.45-0.09,3.61-0.31,6.46-0.67c0.08,0,0.17-0.02,0.29-0.05S46.26,289.45,46.29,289.45z"/>
	<path class="st1" d="M58.4,264.26c3.79,0.82,6.74,2.64,8.87,5.48c2.13,2.84,2.83,5.91,2.12,9.21c-0.76,3.51-2.72,6.17-5.89,7.99
		c-3.17,1.82-6.7,2.31-10.59,1.47c-3.96-0.85-6.96-2.7-9-5.55c-2.03-2.84-2.66-6.06-1.89-9.64c0.73-3.38,2.66-5.93,5.8-7.65
		C50.96,263.85,54.49,263.42,58.4,264.26z M57.67,268.57c-4.67-1.01-8.5-0.83-11.51,0.51c-1.89,0.84-3.06,2.33-3.52,4.47
		c-0.44,2.03-0.15,3.74,0.85,5.13c1.85,2.55,5.36,4.39,10.54,5.5c4.1,0.88,7.45,0.85,10.02-0.09c2.58-0.95,4.15-2.72,4.71-5.31
		c0.52-2.41-0.16-4.46-2.04-6.14C64.64,270.78,61.62,269.42,57.67,268.57z"/>
	<path class="st1" d="M78.96,248.23c1,0.44,1.13,1.49,0.4,3.16c-0.82,1.86-2.23,2.97-4.24,3.33c-0.87,0.16-1.64,0.17-2.31,0.03
		c-0.68-0.14-2.33-0.64-4.97-1.49c-1.59-0.53-2.88-0.51-3.87,0.04c-1,0.56-1.93,1.76-2.81,3.62l11.24,4.95
		c0.48,0.21,0.94-0.04,1.4-0.75c0.12-0.2,0.38-0.74,0.79-1.61c0.14-0.31,0.3-0.42,0.49-0.34c0.21,0.09,0.23,0.34,0.05,0.75
		l-0.19,0.43c-0.09,0.21-0.55,1.25-1.37,3.1c-0.16,0.36-0.42,0.96-0.8,1.82c-0.37,0.83-0.61,1.38-0.72,1.64l-0.61,1.39
		c-0.23,0.52-0.45,0.74-0.67,0.64c-0.17-0.07-0.11-0.46,0.17-1.16c0.47-1.13,0.59-1.8,0.37-2.01c-0.08-0.15-0.52-0.4-1.33-0.76
		l-19.7-8.67c-0.95-0.42-1.57-0.57-1.85-0.45c-0.28,0.12-0.66,0.68-1.13,1.7c-0.26,0.59-0.5,0.84-0.71,0.75
		c-0.24-0.1-0.27-0.35-0.11-0.73c0.03-0.07,0.09-0.17,0.18-0.31l2.2-4.7c0.21-0.48,0.49-1.15,0.83-2.02
		c0.36-0.98,0.62-1.66,0.79-2.04c0.97-2.21,2.24-3.75,3.8-4.61s3.18-0.92,4.87-0.18c1.67,0.73,2.75,2,3.24,3.81s0.34,3.9-0.48,6.27
		c-0.07,0.22-0.09,0.36-0.05,0.4c0.1,0.04,0.2-0.06,0.3-0.29c1.53-2.31,3.16-3.64,4.9-4c1.74-0.36,4.41,0.07,8,1.29
		c2.04,0.67,3.31,0.44,3.81-0.71c0.16-0.36,0.17-0.57,0.02-0.63c-0.02-0.01-0.05-0.01-0.09,0c-0.31,0-0.55-0.03-0.72-0.1
		c-0.5-0.22-0.63-0.59-0.4-1.12C77.95,248.12,78.37,247.97,78.96,248.23z M57.83,247.74c-3.4-1.5-5.75-0.77-7.05,2.18
		c-0.35,0.79-0.47,1.37-0.39,1.75c0.09,0.38,0.41,0.69,0.95,0.93l9.07,3.99c1.03-2.27,1.34-4.11,0.93-5.49
		C60.92,249.71,59.76,248.59,57.83,247.74z"/>
	<path class="st1" d="M72.29,234.1c1.39,0.87,1.8,2.7,0.93,4.09c-0.87,1.39-2.68,1.77-4.07,0.9s-1.83-2.67-0.95-4.05
		C69.08,233.64,70.9,233.23,72.29,234.1z"/>
	<path class="st1" d="M104.47,217.21c0.17,0.14,0.07,0.42-0.28,0.83l-0.28,0.32c-0.24,0.28-0.67,0.78-1.29,1.5s-1.11,1.29-1.45,1.68
		c-0.51,0.59-1.1,1.28-1.78,2.06c-0.69,0.81-1.15,1.34-1.37,1.59l-0.18,0.21c-0.35,0.41-0.62,0.54-0.8,0.39
		c-0.2-0.17-0.05-0.54,0.44-1.11c0.87-1,1.28-1.71,1.25-2.11c-0.01-0.18-0.63-0.8-1.86-1.86l-15.33-13.2
		c0.02,0.02,0.26,0.43,0.73,1.25c1.7,2.84,4.3,7.08,7.79,12.7l3.52,5.42c0.69,1.07,0.98,1.67,0.88,1.79
		c-0.12,0.14-0.48,0.08-1.09-0.17c-2.28-0.98-8.14-3.22-17.58-6.73l-4.17-1.54c0.38,0.32,0.89,0.76,1.54,1.32l9.61,8.27
		c3.61,3.1,5.45,4.64,5.54,4.62c0.37,0.08,0.91-0.28,1.61-1.09c0.56-0.65,0.94-0.89,1.13-0.72c0.22,0.19,0.15,0.49-0.21,0.9
		c-0.22,0.26-0.44,0.48-0.67,0.66c-0.28,0.24-0.51,0.47-0.7,0.69l-2.81,3.5c-0.31,0.35-0.55,0.46-0.72,0.3
		c-0.2-0.17,0.18-0.82,1.12-1.96c0.41-0.47,0.57-0.82,0.48-1.03c-0.09-0.21-0.57-0.7-1.44-1.44l-14.18-12.21
		c-1.64-1.41-2.54-2.15-2.71-2.23c-0.34-0.16-0.68-0.15-1,0.02c-0.32,0.17-0.87,0.66-1.66,1.45c-0.29,0.3-0.51,0.38-0.67,0.24
		c-0.22-0.19-0.08-0.57,0.42-1.15c0.07-0.08,0.21-0.25,0.44-0.51l1.34-1.55c1.01-1.18,1.72-2.01,2.11-2.5
		c0.34,0.12,2.38,0.89,6.13,2.29c1.57,0.57,6.1,2.28,13.6,5.14c-0.96-1.48-1.9-2.95-2.8-4.41l-7.05-11.57
		c-0.39-0.68-0.71-1.25-0.95-1.72l3.75-4.41c0.55-0.64,0.9-0.99,1.04-1.03c0.14-0.05,0.27-0.02,0.39,0.08
		c0.2,0.17,0.15,0.42-0.14,0.76c-0.47,0.55-0.78,0.94-0.91,1.17c-0.33,0.54-0.45,1-0.37,1.38c0.05,0.22,1.17,1.26,3.34,3.13
		l13.78,11.87c0.79,0.68,1.32,1,1.6,0.96c0.4-0.1,1.04-0.67,1.92-1.69l0.15-0.18C104.05,217.19,104.31,217.06,104.47,217.21z"/>
	<path class="st1" d="M110.42,212.44c0.15,0.16,0.11,0.35-0.12,0.56l-0.29,0.27c-0.17,0.05-1.48,1.23-3.95,3.54
		c-0.47,0.44-0.93,0.91-1.37,1.39c-0.23,0.25-0.6,0.62-1.11,1.09c-0.25,0.23-0.45,0.26-0.61,0.09c-0.14-0.15,0.02-0.47,0.5-0.95
		c0.74-0.73,1.1-1.24,1.08-1.52s-0.46-0.9-1.34-1.83l-14.06-15.02c-0.87-0.93-1.41-1.41-1.61-1.44c-0.29-0.08-0.93,0.3-1.91,1.14
		c-0.38,0.33-0.63,0.43-0.74,0.31c-0.14-0.15-0.1-0.33,0.13-0.55l3.87-3.63c0.29-0.27,0.85-0.78,1.69-1.53l1.06-1.05
		c0.31-0.29,0.53-0.35,0.69-0.19c0.13,0.14-0.2,0.63-1.02,1.46c-0.46,0.47-0.67,0.83-0.64,1.08s0.36,0.7,0.96,1.34l14.23,15.2
		c1.01,1.08,1.61,1.63,1.79,1.63c0.4,0.01,1.14-0.44,2.2-1.36C110.09,212.3,110.27,212.28,110.42,212.44z"/>
	<path class="st1" d="M124.28,191.27c0.13,0.17,0.1,0.32-0.08,0.46l-0.71,0.55c-0.97,0.7-1.38,1.28-1.21,1.74
		c0.11,0.31,0.77,1.23,1.97,2.75l0.77,0.98c-0.34,1.72-0.85,3.14-1.53,4.27c-0.68,1.13-1.7,2.23-3.05,3.29
		c-3.23,2.54-6.55,3.59-9.97,3.16c-3.42-0.43-6.43-2.31-9.04-5.62c-2.64-3.35-3.84-6.79-3.6-10.32c0.23-3.53,1.87-6.49,4.92-8.88
		c1.33-1.05,3.07-1.82,5.22-2.32c0.65-0.14,1.12-0.34,1.43-0.58c0.39-0.31,0.45-0.75,0.19-1.34c-0.12-0.37-0.11-0.61,0.03-0.72
		c0.16-0.13,0.31-0.11,0.44,0.05c0.05,0.06,0.2,0.29,0.45,0.69c0.81,1.25,1.42,2.13,1.82,2.64l1.57,1.99
		c0.58,0.7,0.84,1.01,0.78,0.93c0.35,0.52,0.41,0.87,0.18,1.05c-0.18,0.14-0.4,0.08-0.65-0.19c-1.67-1.91-3.47-3.02-5.41-3.34
		c-1.94-0.32-3.76,0.19-5.45,1.52c-2.12,1.67-3.05,3.95-2.79,6.83c0.26,2.88,1.69,5.96,4.27,9.23c2.48,3.16,5.08,5.17,7.8,6.03
		c2.72,0.87,5.15,0.45,7.29-1.24c1.63-1.29,2.39-2.64,2.27-4.06c-0.06-0.71-0.57-1.67-1.53-2.89c-0.8-1.02-1.37-1.54-1.71-1.57
		c-0.34-0.03-1.07,0.42-2.2,1.34c-0.29,0.23-0.48,0.36-0.59,0.39s-0.2,0-0.28-0.1c-0.18-0.22-0.04-0.51,0.41-0.87l0.55-0.43
		c0.32-0.22,1.41-1.07,3.25-2.56l2.57-2.03c0.14-0.11,0.3-0.23,0.46-0.36c0.16-0.13,0.28-0.22,0.34-0.27
		C123.86,191.15,124.13,191.09,124.28,191.27z"/>
	<path class="st1" d="M147.8,186.2c0.12,0.2-0.02,0.43-0.44,0.69l-4.54,2.82c-0.31,0.19-0.76,0.47-1.35,0.84
		c-0.59,0.37-1.03,0.64-1.32,0.82c-0.44,0.27-0.71,0.32-0.82,0.14c-0.11-0.18,0.33-0.62,1.31-1.32c0.52-0.38,0.78-0.67,0.78-0.87
		c0-0.2-0.28-0.74-0.82-1.62l-5.99-9.65l-9.97,6.19l5.82,9.38c0.62,0.99,1.06,1.53,1.32,1.61c0.26,0.08,0.86-0.12,1.78-0.6
		c0.6-0.31,0.95-0.39,1.05-0.24c0.12,0.2-0.04,0.44-0.48,0.71l-0.3,0.19c-0.53,0.33-1.09,0.68-1.67,1.04
		c-0.58,0.36-0.93,0.58-1.04,0.65c-0.31,0.19-0.77,0.48-1.39,0.86s-1.55,0.96-2.78,1.73c-0.44,0.27-0.72,0.32-0.83,0.15
		s0.04-0.42,0.46-0.74c0.27-0.2,0.56-0.41,0.85-0.62c0.46-0.35,0.7-0.65,0.72-0.91c0-0.15-0.35-0.79-1.05-1.91l-10.84-17.47
		c-0.62-0.99-1.03-1.55-1.24-1.66c-0.21-0.11-0.62,0-1.23,0.35c-0.71,0.38-1.14,0.59-1.27,0.65c-0.14,0.05-0.25,0-0.36-0.17
		c-0.12-0.19-0.03-0.37,0.26-0.55c0.09-0.05,0.28-0.16,0.58-0.32c0.58-0.3,1.9-1.09,3.95-2.36c1.13-0.7,1.9-1.2,2.32-1.51
		c0.13-0.13,0.32-0.27,0.57-0.42c0.4-0.25,0.67-0.26,0.8-0.04c0.12,0.2-0.17,0.52-0.89,0.97c-0.72,0.45-1.1,0.8-1.14,1.05
		c-0.04,0.26,0.21,0.83,0.76,1.71l4.75,7.65l9.97-6.19l-4.44-7.15c-0.73-1.17-1.25-1.81-1.55-1.91c-0.31-0.1-0.98,0.19-2.03,0.87
		c-0.33,0.21-0.56,0.21-0.68,0.01s0-0.42,0.38-0.65l0.17-0.1c0.31-0.19,0.85-0.53,1.62-1.01c0.79-0.49,1.39-0.86,1.79-1.11
		c1.35-0.84,2.26-1.4,2.73-1.7c0.48-0.29,0.78-0.48,0.91-0.57c0.46-0.29,0.76-0.33,0.88-0.13c0.12,0.2-0.29,0.61-1.25,1.24
		c-0.29,0.18-0.48,0.33-0.59,0.46c-0.18,0.2-0.24,0.41-0.19,0.62c0.05,0.21,0.35,0.75,0.88,1.61l10.94,17.63
		c0.66,1.06,1.1,1.65,1.31,1.75c0.37,0.11,1.08-0.16,2.12-0.81C147.43,186,147.66,185.98,147.8,186.2z"/>
	<path class="st1" d="M156.5,159.95c0.15,0.3,0.09,0.52-0.19,0.66c-0.28,0.14-0.63-0.06-1.05-0.61c-0.26-0.4-0.51-0.79-0.77-1.19
		c-0.58-0.75-1.21-1.33-1.87-1.73c-0.87-0.52-1.92-0.61-3.14-0.26c-0.79,0.22-1.4,0.46-1.83,0.7c-1.08,0.58-1.73,0.93-1.95,1.07
		l10.55,21.06c0.42,0.84,0.9,1.25,1.45,1.24c0.29,0,0.98-0.26,2.06-0.77c0.29-0.12,0.48-0.09,0.57,0.09c0.1,0.2-0.04,0.39-0.41,0.58
		c-0.19,0.09-0.35,0.16-0.5,0.21c-1.42,0.65-2.42,1.12-3,1.42c-0.77,0.38-1.48,0.76-2.14,1.14c-0.66,0.37-1.51,0.82-2.55,1.34
		c-0.53,0.27-0.85,0.31-0.94,0.12c-0.1-0.21,0.34-0.58,1.32-1.1c0.72-0.36,1.11-0.75,1.17-1.15c0.02-0.24-0.16-0.75-0.54-1.52
		l-10.48-20.92c-2.29,1.18-3.66,2.01-4.11,2.5c-1.2,1.27-1.34,3.13-0.43,5.58c0.28,0.73,0.29,1.16,0.04,1.29
		c-0.28,0.14-0.54-0.03-0.79-0.52c-0.13-0.26-0.25-0.52-0.35-0.78l-0.33-0.84c-0.47-1.1-1.07-2.56-1.8-4.38l1.57-0.79l7.17-3.46
		c0.85-0.4,2.15-1.05,3.91-1.96l5.74-3c0.7,1.28,1.82,3.13,3.35,5.56c0.03,0.07,0.09,0.15,0.17,0.24
		C156.44,159.87,156.48,159.93,156.5,159.95z"/>
	<path class="st1" d="M174.72,145.27c0.08,0.18-0.09,0.36-0.5,0.52c-1.31,0.57-2.04,1.14-2.17,1.7c-0.18,0.39-0.36,2.88-0.55,7.47
		c-0.09,2.03-0.22,3.84-0.38,5.43c-0.11,1.09-0.14,1.81-0.08,2.17s0.32,1.08,0.76,2.16l2.81,6.84c0.33,0.8,0.62,1.22,0.89,1.28
		s1.02-0.12,2.28-0.56c0.67-0.22,1.04-0.24,1.11-0.06c0.08,0.18-0.06,0.34-0.39,0.48l-0.43,0.18l-5.09,1.97
		c-1.42,0.58-2.58,1.09-3.47,1.51c-0.13,0.08-0.3,0.17-0.49,0.24c-0.34,0.14-0.55,0.09-0.65-0.13c-0.09-0.23,0.13-0.47,0.67-0.72
		c1.3-0.59,2.04-1.03,2.2-1.32s0.05-0.92-0.35-1.87l-3.12-7.58c-0.46-0.43-1.73-1.55-3.83-3.36l-6.54-5.66
		c-0.65-0.55-1.4-1.15-2.26-1.81c-0.36-0.13-0.98-0.02-1.86,0.34c-0.88,0.36-1.37,0.41-1.48,0.14c-0.08-0.19,0.07-0.37,0.46-0.53
		c0.5-0.21,1.53-0.6,3.06-1.17c0.88-0.33,1.51-0.58,1.89-0.74l4.16-1.77c0.15-0.1,0.34-0.2,0.56-0.29c0.43-0.18,0.7-0.15,0.8,0.1
		c0.09,0.22-0.27,0.49-1.09,0.83c-1.49,0.61-2.13,1.19-1.91,1.72c0.17,0.41,1.61,1.76,4.31,4.04l5.83,4.85
		c0.16-1.32,0.29-2.93,0.41-4.82l0.36-5.17c0.17-1.88,0.15-3.06-0.05-3.55c-0.13-0.31-0.41-0.41-0.84-0.29
		c-0.89,0.23-1.48,0.41-1.75,0.55c-0.52,0.24-0.83,0.23-0.94-0.04c-0.08-0.19,0.11-0.38,0.57-0.57l2.09-0.86l1.19-0.49
		C173.32,145.36,174.59,144.97,174.72,145.27z"/>
	<path class="st1" d="M196.43,138.32c0.08,0.25-0.19,0.46-0.82,0.64l-0.82,0.27l-0.67,0.22c-0.4,0.13-0.61,0.28-0.64,0.44
		c-0.03,0.16,0.07,0.59,0.3,1.28l7,21.31c0.43,1.31,0.67,2.08,0.72,2.31s0.01,0.37-0.11,0.41c-0.15,0.05-0.37-0.03-0.65-0.24
		l-7.01-5.38c-4.07-3.14-9.07-7.1-14.99-11.86l6.82,20.75c0.13,0.31,0.38,0.46,0.76,0.43c0.38-0.03,1.23-0.25,2.56-0.66
		c0.32-0.11,0.52-0.06,0.58,0.14c0.08,0.25-0.2,0.48-0.84,0.69c-0.22,0.07-0.94,0.27-2.15,0.58c-0.4,0.11-0.79,0.22-1.16,0.34
		c0.02-0.01-0.18,0.09-0.62,0.29c-0.44,0.2-1.13,0.45-2.07,0.76l-0.37,0.12c-0.57,0.19-0.89,0.17-0.96-0.05
		c-0.07-0.22,0.14-0.42,0.63-0.58c1.45-0.5,2.26-0.87,2.45-1.11c0.18-0.24,0.13-0.8-0.17-1.69l-6.01-18.29
		c-0.67-2.05-1.52-3.2-2.53-3.45c-0.48-0.12-1.22-0.01-2.23,0.32c-0.64,0.21-1.01,0.19-1.09-0.07c-0.08-0.23,0.07-0.41,0.44-0.53
		c0.49-0.16,1.13-0.34,1.91-0.55c0.78-0.2,1.2-0.31,1.25-0.33c0.07-0.02,0.42-0.15,1.03-0.38c0.82-0.27,1.59-0.56,2.33-0.89
		l19.05,14.88l-5.42-16.49c-0.25-0.77-0.42-1.22-0.49-1.38c-0.08-0.15-0.22-0.24-0.42-0.27c-0.2-0.03-0.81,0.12-1.82,0.45
		c-0.89,0.29-1.37,0.33-1.44,0.1c-0.08-0.25,0.17-0.47,0.77-0.66l1.3-0.43c0.32-0.11,0.67-0.22,1.04-0.34
		c0.39-0.13,0.63-0.21,0.7-0.23c0.02-0.01,0.25-0.08,0.67-0.22c0.39-0.13,0.76-0.25,1.11-0.37l1.15-0.38
		C196.03,138.04,196.35,138.07,196.43,138.32z"/>
	<path class="st1" d="M226.02,158.14c0.05,0.21-0.11,0.37-0.48,0.47c-0.25,0.06-0.48,0.11-0.69,0.14l-4.84,1.08l-4.76,1.38
		c-0.17,0.07-0.36,0.13-0.56,0.18c-0.5,0.13-0.79,0.06-0.86-0.2c-0.07-0.29,0.23-0.52,0.91-0.7c2.21-0.59,3.26-1.1,3.16-1.52
		c-0.01-0.02-0.06-0.12-0.15-0.28l-0.56-0.92l-0.33-0.48c-0.43-0.72-1.42-2.31-2.99-4.76l-8.08,2.07c-0.48,4.42-0.64,6.93-0.49,7.53
		c0.09,0.35,0.3,0.53,0.62,0.53c0.08,0.01,0.72-0.1,1.93-0.33c0.74-0.16,1.13-0.13,1.19,0.1c0.06,0.25-0.23,0.46-0.89,0.63
		c-1.16,0.3-2.52,0.59-4.08,0.88c-0.38,0.07-0.78,0.16-1.18,0.26c-0.4,0.1-0.78,0.24-1.14,0.43c-0.19,0.09-0.35,0.16-0.47,0.19
		c-0.35,0.09-0.56,0.02-0.62-0.21c-0.06-0.23,0.31-0.46,1.09-0.68c0.79-0.23,1.33-0.49,1.63-0.8c0.3-0.3,0.47-0.79,0.52-1.44
		c0.86-10.13,1.59-18.27,2.18-24.43c-0.02-0.31,0.01-0.68,0.1-1.09l-0.01-0.73c0-0.3,0.07-0.46,0.2-0.49
		c0.08-0.02,0.16,0.04,0.25,0.18c0.58,0.9,1.85,2.76,3.8,5.59c1.53,2.21,5.35,7.77,11.47,16.67c0.35,0.52,0.7,0.82,1.05,0.89
		c0.35,0.08,1.03,0,2.02-0.23C225.61,157.89,225.97,157.93,226.02,158.14z M213.47,151.71c-0.7-1.03-1.86-2.73-3.48-5.11l-3.16-4.77
		c-0.35,3.06-0.7,7.01-1.05,11.85L213.47,151.71z"/>
	<path class="st1" d="M240.79,128.45c0.04,0.21-0.18,0.37-0.66,0.48c-1.12,0.24-1.84,0.55-2.17,0.93c-0.32,0.38-0.58,1.17-0.78,2.38
		l-0.62,3.82c-1.5,9.23-2.44,16.27-2.84,21.13c-0.02,0.32-0.12,0.5-0.29,0.53c-0.21,0.04-0.81-0.84-1.81-2.63
		c-1.82-3.28-3.21-5.74-4.19-7.38c-1.05-1.81-2.62-4.52-4.7-8.13l-2.85-4.81c-0.39-0.67-0.76-1.09-1.12-1.28
		c-0.35-0.18-0.89-0.22-1.61-0.11c-0.85,0.14-1.36,0.21-1.53,0.21c-0.17,0.01-0.27-0.08-0.31-0.26c-0.04-0.23,0.19-0.39,0.7-0.49
		l0.34-0.07c0.46-0.09,1.26-0.22,2.41-0.4c1.14-0.18,1.96-0.31,2.44-0.41c0.13-0.02,0.62-0.14,1.46-0.34
		c0.85-0.2,2.06-0.45,3.65-0.75l0.54-0.1c0.46-0.09,0.71-0.02,0.76,0.22c0.05,0.26-0.38,0.48-1.3,0.68L224,132.2
		c-0.53,0.13-0.77,0.35-0.71,0.67c0.01,0.05,0.06,0.16,0.14,0.31l0.49,0.98c0.09,0.19,2.03,3.55,5.8,10.08
		c0.64,1.13,1.85,3.27,3.65,6.43c1.93-12.74,2.84-19.41,2.72-20.03c-0.11-0.59-0.79-0.74-2.03-0.45l-1.19,0.23
		c-0.31,0.06-0.48-0.03-0.53-0.25c-0.05-0.28,0.3-0.5,1.07-0.64c0.15-0.03,0.59-0.11,1.3-0.25c0.73-0.06,1.26-0.12,1.59-0.18
		l1.23-0.23l2.51-0.6C240.51,128.18,240.75,128.24,240.79,128.45z"/>
	<path class="st1" d="M252.55,153.78c0.03,0.22-0.11,0.35-0.42,0.4l-0.39,0.06c-0.17-0.05-1.92,0.16-5.27,0.65
		c-0.64,0.09-1.28,0.21-1.92,0.36c-0.33,0.07-0.84,0.16-1.54,0.26c-0.33,0.05-0.52-0.04-0.55-0.27c-0.03-0.21,0.29-0.37,0.95-0.49
		c1.02-0.18,1.61-0.39,1.76-0.63c0.15-0.25,0.13-1-0.05-2.27l-2.97-20.36c-0.18-1.26-0.35-1.96-0.51-2.1
		c-0.2-0.23-0.93-0.28-2.22-0.15c-0.5,0.05-0.76,0-0.78-0.16c-0.03-0.2,0.11-0.33,0.42-0.37l5.25-0.77
		c0.39-0.06,1.14-0.15,2.26-0.29l1.47-0.25c0.42-0.06,0.64,0.02,0.67,0.24c0.03,0.2-0.53,0.4-1.67,0.62
		c-0.65,0.12-1.03,0.29-1.14,0.52c-0.11,0.23-0.11,0.78,0.02,1.65l3.01,20.61c0.21,1.47,0.39,2.26,0.54,2.36
		c0.32,0.24,1.18,0.29,2.58,0.14C252.36,153.47,252.52,153.56,252.55,153.78z"/>
	<path class="st1" d="M275.84,143.4c0.02,0.21-0.08,0.32-0.32,0.35l-0.89,0.09c-1.2,0.07-1.85,0.34-1.96,0.82
		c-0.07,0.32-0.01,1.45,0.18,3.38l0.13,1.24c-1.21,1.27-2.4,2.19-3.58,2.78c-1.18,0.59-2.63,0.97-4.33,1.14
		c-4.09,0.41-7.46-0.48-10.11-2.68c-2.65-2.2-4.19-5.4-4.62-9.59c-0.43-4.24,0.4-7.79,2.49-10.64c2.09-2.85,5.06-4.47,8.92-4.86
		c1.68-0.17,3.57,0.11,5.65,0.84c0.62,0.22,1.13,0.32,1.52,0.28c0.49-0.05,0.78-0.39,0.88-1.03c0.09-0.38,0.23-0.57,0.41-0.59
		c0.21-0.02,0.32,0.07,0.34,0.28c0.01,0.08,0.01,0.35,0.01,0.82c0.01,1.49,0.05,2.56,0.12,3.2l0.26,2.52c0.12,0.9,0.17,1.3,0.16,1.2
		c0.01,0.63-0.12,0.95-0.41,0.98c-0.23,0.02-0.38-0.15-0.44-0.51c-0.38-2.51-1.31-4.42-2.77-5.72c-1.47-1.31-3.27-1.85-5.42-1.64
		c-2.69,0.27-4.7,1.69-6.02,4.27c-1.32,2.57-1.77,5.93-1.35,10.08c0.41,4,1.52,7.09,3.35,9.27c1.83,2.19,4.1,3.14,6.82,2.87
		c2.07-0.21,3.43-0.95,4.09-2.21c0.33-0.63,0.41-1.72,0.26-3.26c-0.13-1.29-0.33-2.03-0.6-2.24s-1.13-0.22-2.57-0.05
		c-0.36,0.04-0.6,0.04-0.7,0.01c-0.11-0.03-0.17-0.11-0.18-0.24c-0.03-0.28,0.24-0.45,0.81-0.51l0.7-0.07
		c0.39-0.01,1.76-0.15,4.11-0.42l3.26-0.33c0.18-0.02,0.38-0.04,0.58-0.06s0.35-0.04,0.43-0.04
		C275.55,143.08,275.82,143.17,275.84,143.4z"/>
	<path class="st1" d="M297.34,150.6c0.01,0.22-0.18,0.34-0.57,0.36c-0.26,0.01-0.5,0.01-0.7-0.01l-4.96,0.06l-4.94,0.37
		c-0.18,0.03-0.38,0.06-0.58,0.06c-0.52,0.02-0.79-0.1-0.8-0.37c-0.01-0.3,0.33-0.46,1.03-0.49c2.28-0.12,3.42-0.4,3.4-0.83
		c0-0.03-0.03-0.13-0.09-0.3l-0.36-1.02l-0.22-0.54c-0.27-0.8-0.92-2.55-1.94-5.27l-8.33,0.36c-1.38,4.22-2.05,6.65-2.03,7.27
		c0.02,0.36,0.18,0.58,0.5,0.64c0.08,0.02,0.73,0.05,1.96,0.07c0.75-0.01,1.14,0.11,1.15,0.34c0.01,0.26-0.32,0.4-1,0.43
		c-1.2,0.05-2.59,0.06-4.18,0.02c-0.39-0.01-0.79,0-1.21,0.01c-0.42,0.02-0.82,0.08-1.2,0.18c-0.21,0.05-0.37,0.08-0.5,0.09
		c-0.36,0.02-0.55-0.09-0.56-0.33c-0.01-0.23,0.39-0.38,1.21-0.44s1.4-0.21,1.76-0.45c0.35-0.24,0.62-0.67,0.8-1.31
		c2.93-9.73,5.32-17.55,7.17-23.46c0.05-0.31,0.15-0.66,0.32-1.05l0.14-0.72c0.07-0.29,0.16-0.44,0.29-0.44
		c0.08,0,0.15,0.07,0.2,0.23c0.38,1,1.24,3.08,2.57,6.25c1.04,2.48,3.64,8.7,7.79,18.68c0.23,0.58,0.51,0.94,0.85,1.09
		c0.33,0.15,1,0.21,2.02,0.19C296.99,150.27,297.34,150.38,297.34,150.6z M286.39,141.73c-0.47-1.15-1.26-3.06-2.35-5.72l-2.1-5.32
		c-0.97,2.92-2.13,6.71-3.47,11.38L286.39,141.73z"/>
	<path class="st1" d="M314.4,131.1c0,0.34-0.16,0.51-0.47,0.5c-0.31,0-0.53-0.34-0.65-1.02c-0.05-0.47-0.09-0.94-0.14-1.41
		c-0.17-0.94-0.46-1.73-0.87-2.39c-0.54-0.86-1.43-1.42-2.67-1.67c-0.8-0.16-1.45-0.24-1.95-0.21c-1.22,0.02-1.96,0.04-2.22,0.05
		l-0.24,23.55c-0.01,0.94,0.23,1.53,0.72,1.77c0.26,0.13,0.99,0.22,2.18,0.26c0.31,0.03,0.47,0.14,0.46,0.34
		c0,0.22-0.21,0.33-0.63,0.33c-0.21,0-0.39-0.02-0.54-0.04c-1.56-0.07-2.67-0.11-3.31-0.11c-0.86-0.01-1.66,0-2.42,0.03
		c-0.75,0.03-1.72,0.04-2.89,0.03c-0.6-0.01-0.9-0.11-0.89-0.32c0-0.23,0.56-0.36,1.68-0.37c0.81,0.01,1.33-0.16,1.57-0.49
		c0.13-0.21,0.2-0.74,0.21-1.6l0.24-23.39c-2.57,0-4.17,0.11-4.8,0.34c-1.64,0.58-2.62,2.17-2.94,4.77
		c-0.09,0.78-0.27,1.17-0.56,1.16c-0.31,0-0.47-0.28-0.46-0.82c0-0.29,0.02-0.57,0.05-0.86l0.09-0.9c0.09-1.19,0.22-2.77,0.4-4.71
		l1.75,0.02l7.95,0.2c0.94,0.04,2.39,0.05,4.37,0.04l6.47-0.05c0.04,1.46,0.18,3.62,0.44,6.48c0,0.08,0.01,0.18,0.04,0.29
		S314.4,131.07,314.4,131.1z"/>
	<path class="st1" d="M338.39,139.46c-0.27,3.87-1.65,7.05-4.16,9.57c-2.5,2.51-5.44,3.65-8.82,3.42c-3.58-0.25-6.5-1.81-8.75-4.69
		c-2.25-2.88-3.24-6.3-2.97-10.27c0.28-4.05,1.68-7.28,4.2-9.7c2.52-2.42,5.62-3.5,9.27-3.25c3.45,0.24,6.25,1.78,8.4,4.64
		C337.73,132.04,338.67,135.47,338.39,139.46z M334.02,139.36c0.33-4.76-0.39-8.53-2.15-11.32c-1.11-1.75-2.75-2.7-4.93-2.85
		c-2.08-0.14-3.73,0.38-4.96,1.58c-2.26,2.2-3.57,5.94-3.94,11.22c-0.29,4.19,0.22,7.49,1.53,9.91c1.31,2.42,3.28,3.71,5.93,3.9
		c2.46,0.17,4.39-0.8,5.79-2.9C332.83,146.57,333.74,143.39,334.02,139.36z"/>
	<path class="st1" d="M349.86,139.56c-0.2,1.62-1.68,2.78-3.31,2.57c-1.62-0.2-2.74-1.68-2.53-3.3c0.2-1.62,1.65-2.78,3.27-2.58
		C348.91,136.45,350.06,137.93,349.86,139.56z"/>
</g>
<path class="st1" d="M282.77,202c-19.82-14.92-24.45-14.28-39.46,5.47c15.01-19.75,14.37-24.36-5.45-39.28
	c19.82,14.92,24.45,14.28,39.46-5.47C262.31,182.47,262.95,187.08,282.77,202z"/>
<path class="st1" d="M421.4,410.75c-13.31-10.29-16.45-9.89-26.8,3.37c10.35-13.26,9.95-16.39-3.36-26.68
	c13.31,10.29,16.45,9.89,26.8-3.37C407.69,397.33,408.09,400.46,421.4,410.75z"/>
<path class="st1" d="M370.86,420.24c-9.31-7.19-11.51-6.92-18.74,2.36c7.24-9.27,6.96-11.46-2.35-18.66
	c9.31,7.19,11.51,6.92,18.74-2.36C361.28,410.86,361.56,413.05,370.86,420.24z"/>
</svg>
