<svg width="500" height="500" viewBox="0 0 500 500" fill="none" xmlns="http://www.w3.org/2000/svg">
<mask id="mask0_46_11" style="mask-type:luminance" maskUnits="userSpaceOnUse" x="0" y="0" width="500" height="500">
<path d="M0 0H500V500H0V0Z" fill="white"/>
</mask>
<g mask="url(#mask0_46_11)">
<path d="M424.219 245.161C412.635 244.188 402.49 243.156 393.198 242.016C383.245 240.797 374.453 239.464 366.328 237.958C331.891 231.563 309.563 221.729 293.917 206.083C278.266 190.438 268.438 168.104 262.042 133.667C260.531 125.542 259.203 116.755 257.979 106.802C256.844 97.5104 255.813 87.3646 254.839 75.7813C252.87 52.3073 251.354 25.4844 250.016 0H249.984C248.646 25.4844 247.13 52.3073 245.161 75.7813C244.188 87.3646 243.156 97.5104 242.021 106.802C240.797 116.75 239.469 125.542 237.958 133.667C231.563 168.109 221.734 190.438 206.083 206.083C190.438 221.729 168.109 231.563 133.672 237.958C125.547 239.464 116.76 240.792 106.802 242.016C97.5104 243.156 87.3646 244.188 75.7813 245.161C52.3073 247.135 25.4844 248.646 0 249.984V250.01C25.4844 251.354 52.3073 252.865 75.7813 254.839C87.3646 255.807 97.5104 256.839 106.802 257.979C116.755 259.198 125.547 260.526 133.672 262.042C168.109 268.438 190.443 278.266 206.083 293.911C221.734 309.557 231.563 331.896 237.958 366.328C239.469 374.453 240.797 383.24 242.021 393.198C243.156 402.49 244.188 412.635 245.161 424.214C247.135 447.688 248.651 474.51 249.984 500.005H250.016C251.354 474.516 252.87 447.693 254.839 424.214C255.813 412.635 256.844 402.49 257.979 393.198C259.203 383.245 260.531 374.453 262.042 366.328C268.438 331.891 278.266 309.557 293.917 293.911C309.563 278.266 331.896 268.438 366.328 262.042C374.453 260.531 383.24 259.203 393.198 257.979C402.49 256.839 412.635 255.807 424.219 254.839C447.693 252.865 474.516 251.354 500.005 250.01V249.984C474.516 248.646 447.698 247.135 424.219 245.161Z" fill="#179379"/>
</g>
</svg>
