<svg width="500" height="500" viewBox="0 0 500 500" fill="none" xmlns="http://www.w3.org/2000/svg">
<path d="M110.118 98.1047C125.275 75.1758 119.054 44.2478 96.2246 29.0252C73.3949 13.8025 42.6007 20.0497 27.4438 42.9786C12.287 65.9076 18.5072 96.8355 41.337 112.058C64.1667 127.281 94.9609 121.034 110.118 98.1047Z" fill="#FFBFD2"/>
<path d="M230.677 105.712C250.054 86.2509 250.054 54.6983 230.677 35.2372C211.3 15.7761 179.884 15.7761 160.507 35.2372C141.13 54.6983 141.13 86.2509 160.507 105.712C179.884 125.173 211.3 125.173 230.677 105.712Z" fill="#FFBFD2"/>
<path d="M81.0214 242.675C107.584 235.91 123.656 208.799 116.92 182.122C110.184 155.445 83.1912 139.302 56.6291 146.067C30.067 152.832 13.9946 179.943 20.7303 206.62C27.4661 233.298 54.4593 249.44 81.0214 242.675Z" fill="#FFBFD2"/>
<path d="M207.19 242.877C233.848 236.5 250.312 209.626 243.962 182.852C237.613 156.078 210.855 139.543 184.197 145.92C157.539 152.297 141.076 179.171 147.425 205.945C153.775 232.719 180.532 249.254 207.19 242.877Z" fill="#FFBFD2"/>
<path d="M323.664 120.272C351.068 120.272 373.282 97.9606 373.282 70.4382C373.282 42.9158 351.068 20.6045 323.664 20.6045C296.261 20.6045 274.046 42.9158 274.046 70.4382C274.046 97.9606 296.261 120.272 323.664 120.272Z" fill="#FFBFD2"/>
<path d="M450.382 120.272C477.785 120.272 500 97.9606 500 70.4382C500 42.9158 477.785 20.6045 450.382 20.6045C422.979 20.6045 400.764 42.9158 400.764 70.4382C400.764 97.9606 422.979 120.272 450.382 120.272Z" fill="#FFBFD2"/>
<path d="M323.664 244.218C351.068 244.218 373.282 221.907 373.282 194.385C373.282 166.862 351.068 144.551 323.664 144.551C296.261 144.551 274.046 166.862 274.046 194.385C274.046 221.907 296.261 244.218 323.664 244.218Z" fill="#FFBFD2"/>
<path d="M450.382 244.218C477.785 244.218 500 221.907 500 194.385C500 166.862 477.785 144.551 450.382 144.551C422.979 144.551 400.764 166.862 400.764 194.385C400.764 221.907 422.979 244.218 450.382 244.218Z" fill="#FFBFD2"/>
<path d="M73.667 365.216C100.95 362.627 120.977 338.315 118.399 310.913C115.82 283.512 91.6134 263.398 64.3306 265.987C37.0478 268.577 17.0207 292.889 19.5989 320.29C22.177 347.692 46.3842 367.806 73.667 365.216Z" fill="#FFBFD2"/>
<path d="M200.589 365.121C227.858 362.398 247.766 337.989 245.056 310.602C242.345 283.214 218.042 263.219 190.773 265.942C163.503 268.664 143.595 293.073 146.305 320.461C149.016 347.848 173.319 367.843 200.589 365.121Z" fill="#FFBFD2"/>
<path d="M81.0341 487.751C107.596 480.986 123.669 453.876 116.933 427.198C110.197 400.521 83.2039 384.378 56.6418 391.143C30.0797 397.908 14.0073 425.019 20.743 451.696C27.4788 478.374 54.472 494.516 81.0341 487.751Z" fill="#FFBFD2"/>
<path d="M207.214 487.958C233.872 481.581 250.335 454.707 243.986 427.933C237.637 401.159 210.879 384.624 184.221 391.001C157.563 397.378 141.099 424.252 147.449 451.026C153.798 477.8 180.556 494.335 207.214 487.958Z" fill="#FFBFD2"/>
<path d="M323.664 365.352C351.068 365.352 373.282 343.041 373.282 315.518C373.282 287.996 351.068 265.685 323.664 265.685C296.261 265.685 274.046 287.996 274.046 315.518C274.046 343.041 296.261 365.352 323.664 365.352Z" fill="#FFBFD2"/>
<path d="M450.382 365.352C477.785 365.352 500 343.041 500 315.518C500 287.996 477.785 265.685 450.382 265.685C422.979 265.685 400.764 287.996 400.764 315.518C400.764 343.041 422.979 365.352 450.382 365.352Z" fill="#FFBFD2"/>
<path d="M323.664 489.296C351.068 489.296 373.282 466.985 373.282 439.463C373.282 411.94 351.068 389.629 323.664 389.629C296.261 389.629 274.046 411.94 274.046 439.463C274.046 466.985 296.261 489.296 323.664 489.296Z" fill="#FFBFD2"/>
<path d="M450.382 489.296C477.785 489.296 500 466.985 500 439.463C500 411.94 477.785 389.629 450.382 389.629C422.979 389.629 400.764 411.94 400.764 439.463C400.764 466.985 422.979 489.296 450.382 489.296Z" fill="#FFBFD2"/>
</svg>
