<svg width="500" height="500" viewBox="0 0 500 500" fill="none" xmlns="http://www.w3.org/2000/svg">
<path d="M500 233.655H289.746L481.422 147.017L474.812 132.19L285.816 217.578L432.476 70.9182L421.043 59.3069L272.061 208.289L349.768 12.6831L334.584 6.60951L258.128 199V0H241.872V199.178L165.416 6.60951L150.232 12.5045L227.938 208.289L79.1354 59.3069L67.5241 70.9182L212.933 216.327L25.9021 131.833L19.114 146.66L211.861 233.655H0V249.911H214.005L19.114 337.978L25.9021 352.805L211.147 269.203L67.5241 412.826L79.1354 424.259L227.76 275.634L150.232 471.24L165.238 477.313L241.872 284.387V500H258.128V284.387L334.762 477.135L349.768 471.24L272.24 275.455L421.043 424.259L432.476 412.826L287.603 267.953L474.812 352.447L481.422 337.621L287.424 249.911H500V233.655Z" fill="#5D6AB1"/>
</svg>
