<svg width="500" height="500" viewBox="0 0 500 500" fill="none" xmlns="http://www.w3.org/2000/svg">
<path d="M440.263 136.806C406.832 56.5972 324.443 0 228.17 0C102.119 0 0 97.0486 0 216.84C0 273.264 22.6526 324.653 59.737 363.194C93.1677 443.403 175.557 500 271.831 500C397.881 500 500 402.951 500 283.16C500 226.736 477.348 175.347 440.263 136.806ZM44.209 300C31.604 274.826 24.4793 246.701 24.4793 216.84C24.4793 110.069 115.638 23.4375 227.987 23.4375C292.108 23.4375 349.288 51.7361 386.737 95.8334C352.941 77.0834 313.665 66.3195 271.831 66.3195C145.78 66.3195 43.6609 163.368 43.6609 283.16C43.6609 288.889 43.8436 294.444 44.209 300ZM80.9281 350.521C72.7074 329.514 68.1403 306.771 68.1403 283.16C68.1403 176.389 159.298 89.757 271.648 89.757C329.558 89.757 381.805 112.674 418.707 149.479C426.927 170.486 431.494 193.229 431.494 216.84C431.494 323.611 340.336 410.243 227.987 410.243C170.259 410.417 118.012 387.326 80.9281 350.521ZM271.831 476.563C207.709 476.563 150.53 448.264 113.08 404.167C146.876 422.917 186.153 433.681 227.987 433.681C354.037 433.681 456.156 336.632 456.156 216.84C456.156 211.111 455.974 205.556 455.426 200C468.031 225.174 475.155 253.299 475.155 283.16C475.338 389.931 384.18 476.563 271.831 476.563Z" fill="#DBCB9E"/>
</svg>
