<svg width="500" height="500" viewBox="0 0 500 500" fill="none" xmlns="http://www.w3.org/2000/svg">
<mask id="mask0_46_16" style="mask-type:luminance" maskUnits="userSpaceOnUse" x="0" y="0" width="500" height="500">
<path d="M0 0H500V500H0V0Z" fill="white"/>
</mask>
<g mask="url(#mask0_46_16)">
<path d="M496.28 385.342C491.602 364.811 482.56 343.275 469.402 321.307C455.209 297.615 436.34 273.665 413.324 250.13C436.34 226.591 455.201 202.642 469.402 178.949C482.551 156.982 491.602 135.437 496.28 114.914C498.495 105.211 499.714 95.7291 499.921 86.7289C500.119 77.9621 499.345 69.5379 497.635 61.7074C495.955 54.0216 493.344 46.8262 489.884 40.316C486.458 33.8679 482.167 28.046 477.127 23.0127C472.089 17.9735 466.268 13.6787 459.828 10.2523C453.319 6.79047 446.126 4.18227 438.442 2.49861C430.614 0.779505 422.201 0.0174266 413.427 0.215331C404.421 0.419142 394.944 1.63906 385.25 3.8544C364.723 8.53616 343.193 17.5777 321.231 30.7428C297.545 44.9357 273.602 63.8105 250.073 86.8323C226.54 63.8105 202.597 44.9446 178.911 30.7428C156.935 17.5689 135.393 8.51844 114.875 3.83668C105.175 1.62134 95.6986 0.40142 86.7008 0.197608C77.9274 0.00856543 69.5143 0.770644 61.6829 2.48975C53.9992 4.17341 46.8057 6.78456 40.2973 10.2435C33.8509 13.6698 28.0305 17.9647 22.9986 23.0038C17.9607 28.046 13.6671 33.8679 10.2416 40.3071C6.78361 46.8173 4.17315 54.0127 2.48994 61.6985C0.774245 69.529 0.00941614 77.9443 0.207268 86.723C0.413978 95.7203 1.63062 105.211 3.84537 114.905C8.52589 135.428 17.5739 156.973 30.7266 178.94C44.9187 202.633 63.7884 226.582 86.8042 250.121C63.7884 273.657 44.9246 297.606 30.7266 321.298C17.565 343.266 8.52589 364.811 3.84537 385.334C1.63062 395.037 0.413978 404.518 0.207268 413.519C0.00941614 422.285 0.783103 430.701 2.48994 438.54C4.17315 446.226 6.78361 453.421 10.2416 459.932C13.6671 466.371 17.9607 472.202 22.9986 477.235C28.0393 482.277 33.8597 486.569 40.2973 489.995C46.8057 493.457 53.9992 496.068 61.6829 497.749C69.5143 499.468 77.9274 500.233 86.7008 500.035C95.6986 499.828 105.184 498.608 114.875 496.393C135.393 491.714 156.935 482.67 178.894 469.508C202.58 455.312 226.523 436.437 250.055 413.415C273.585 436.437 297.531 455.303 321.217 469.508C343.175 482.661 364.714 491.714 385.235 496.393C394.936 498.608 404.412 499.828 413.41 500.035C414.301 500.05 415.196 500.068 416.079 500.068C423.884 500.068 431.387 499.288 438.427 497.749C446.108 496.068 453.305 493.457 459.81 489.995C466.251 486.569 472.08 482.277 477.109 477.235C482.15 472.196 486.44 466.371 489.866 459.932C493.327 453.421 495.937 446.226 497.62 438.54C499.336 430.71 500.101 422.294 499.903 413.519C499.714 404.527 498.486 395.046 496.28 385.342Z" fill="#DF7395"/>
</g>
</svg>
