<svg width="500" height="500" viewBox="0 0 500 500" fill="none" xmlns="http://www.w3.org/2000/svg">
<path d="M497.5 94.2308C497.5 106.275 491.033 118.044 478.69 129.043C466.35 140.041 448.351 150.059 425.895 158.523C381.002 175.444 318.814 185.962 250 185.962C181.186 185.962 118.998 175.444 74.1051 158.523C51.6493 150.059 33.6501 140.041 21.3095 129.043C8.96673 118.044 2.5 106.275 2.5 94.2308C2.5 82.1868 8.96673 70.4175 21.3095 59.4183C33.6501 48.421 51.6493 38.403 74.1051 29.9389C118.998 13.0176 181.186 2.5 250 2.5C318.814 2.5 381.002 13.0176 425.895 29.9389C448.351 38.403 466.35 48.421 478.69 59.4183C491.033 70.4175 497.5 82.1868 497.5 94.2308Z" stroke="#95FD7B" stroke-width="5"/>
<path d="M497.5 198.076C497.5 210.12 491.033 221.89 478.69 232.889C466.35 243.886 448.351 253.904 425.895 262.368C381.002 279.29 318.814 289.807 250 289.807C181.186 289.807 118.998 279.29 74.1051 262.368C51.6493 253.904 33.6501 243.886 21.3095 232.889C8.96673 221.89 2.5 210.12 2.5 198.076C2.5 186.033 8.96673 174.263 21.3095 163.264C33.6501 152.267 51.6493 142.249 74.1051 133.785C118.998 116.863 181.186 106.346 250 106.346C318.814 106.346 381.002 116.863 425.895 133.785C448.351 142.249 466.35 152.267 478.69 163.264C491.033 174.263 497.5 186.033 497.5 198.076Z" stroke="#95FD7B" stroke-width="5"/>
<path d="M497.5 301.923C497.5 313.967 491.033 325.736 478.69 336.736C466.35 347.733 448.351 357.751 425.895 366.215C381.002 383.136 318.814 393.654 250 393.654C181.186 393.654 118.998 383.136 74.1051 366.215C51.6493 357.751 33.6501 347.733 21.3095 336.736C8.96673 325.736 2.5 313.967 2.5 301.923C2.5 289.879 8.96673 278.11 21.3095 267.111C33.6501 256.113 51.6493 246.095 74.1051 237.631C118.998 220.71 181.186 210.192 250 210.192C318.814 210.192 381.002 220.71 425.895 237.631C448.351 246.095 466.35 256.113 478.69 267.111C491.033 278.11 497.5 289.879 497.5 301.923Z" stroke="#95FD7B" stroke-width="5"/>
<path d="M497.5 405.769C497.5 417.813 491.033 429.582 478.69 440.581C466.35 451.579 448.351 461.597 425.895 470.061C381.002 486.982 318.814 497.5 250 497.5C181.186 497.5 118.998 486.982 74.1051 470.061C51.6493 461.597 33.6501 451.579 21.3095 440.581C8.96673 429.582 2.5 417.813 2.5 405.769C2.5 393.725 8.96673 381.956 21.3095 370.956C33.6501 359.959 51.6493 349.941 74.1051 341.477C118.998 324.556 181.186 314.038 250 314.038C318.814 314.038 381.002 324.556 425.895 341.477C448.351 349.941 466.35 359.959 478.69 370.956C491.033 381.956 497.5 393.725 497.5 405.769Z" stroke="#95FD7B" stroke-width="5"/>
</svg>
