<svg width="500" height="481" viewBox="0 0 500 481" fill="none" xmlns="http://www.w3.org/2000/svg">
<path d="M250.001 240C381.635 561.333 118.363 561.333 250.001 240Z" fill="#FF7742"/>
<path d="M251 240C111.28 562.801 -86.304 373.704 251 240Z" fill="#FF7742"/>
<path d="M251 240C584.679 373.704 389.214 562.801 251 240Z" fill="#FF7742"/>
<path d="M251 241.002C-83.6667 372.634 -83.6667 109.362 251 241.002Z" fill="#FF7742"/>
<path d="M251 240C584.679 108.543 389.214 -77.3559 251 240Z" fill="#FF7742"/>
<path d="M251 241.002C583 372.634 583 109.362 251 241.002Z" fill="#FF7742"/>
<path d="M251 240C111.28 -77.3559 -86.304 108.543 251 240Z" fill="#FF7742"/>
<path d="M250.001 240C381.635 -80 118.363 -80 250.001 240Z" fill="#FF7742"/>
</svg>
